<svg width="264" height="240" viewBox="0 0 264 240" fill="none" xmlns="http://www.w3.org/2000/svg">
<path d="M250.91 10.1814V183.303C250.91 186.139 249.786 188.859 247.785 190.865C245.783 192.87 243.069 193.997 240.24 193.997H10.9204C8.09061 193.997 5.37661 192.87 3.37548 190.865C1.37433 188.859 0.25 186.139 0.25 183.303V13.4186C0.25 10.5821 1.37433 7.86196 3.37548 5.85644C5.37661 3.85094 8.0906 2.72437 10.9204 2.72437H243.47C245.443 2.72437 247.335 3.50989 248.731 4.9083C250.126 6.30673 250.91 8.20353 250.91 10.1814Z" fill="white" stroke="#B4E8FF" stroke-width="0.5"/>
<path d="M149.706 64.3364H40.8291V120.012H149.706V64.3364Z" fill="#F3F9FE"/>
<path d="M149.706 28.4565H40.8291V35.88H149.706V28.4565Z" fill="#F3F9FE"/>
<path d="M98.9795 40.8291H40.8291V48.2526H98.9795V40.8291Z" fill="#F3F9FE"/>
<path d="M149.706 124.961H40.8291V181.875H149.706V124.961Z" fill="#F3F9FE"/>
<path d="M251.16 10.8537V11.1352H0V10.8537C0 7.97513 1.15054 5.21445 3.19851 3.17898C5.24648 1.14352 8.02413 3.56994e-06 10.9204 3.56994e-06H240.24C241.674 -0.00115315 243.095 0.278798 244.42 0.823839C245.746 1.36888 246.95 2.16831 247.964 3.1764C248.978 4.18449 249.783 5.38146 250.331 6.69881C250.88 8.01617 251.161 9.42806 251.16 10.8537Z" fill="#B4E8FF"/>
<path d="M34.6428 11.1353V194.247H11.1646C8.20355 194.247 5.3638 193.097 3.27003 191.05C1.17627 189.003 0 186.226 0 183.331V11.1353H34.6428Z" fill="#B4E8FF"/>
<path d="M28.4562 56.9131H11.1348V59.3876H28.4562V56.9131Z" fill="white"/>
<path d="M28.4569 51.9641H7.42383V54.4386H28.4569V51.9641Z" fill="white"/>
<path d="M28.4562 77.9463H11.1348V79.1835H28.4562V77.9463Z" fill="white"/>
<path d="M28.4569 72.9973H7.42383V75.4718H28.4569V72.9973Z" fill="white"/>
<path d="M28.4562 98.9795H11.1348V100.217H28.4562V98.9795Z" fill="white"/>
<path d="M28.4569 92.793H7.42383V95.2675H28.4569V92.793Z" fill="white"/>
<path d="M28.4562 118.775H11.1348V121.25H28.4562V118.775Z" fill="white"/>
<path d="M28.4569 113.826H7.42383V116.301H28.4569V113.826Z" fill="white"/>
<path d="M12.3719 7.42358C13.7386 7.42358 14.8464 6.31571 14.8464 4.94909C14.8464 3.58247 13.7386 2.47461 12.3719 2.47461C11.0053 2.47461 9.89746 3.58247 9.89746 4.94909C9.89746 6.31571 11.0053 7.42358 12.3719 7.42358Z" fill="white"/>
<path d="M21.0331 7.42333C22.3998 7.42333 23.5076 6.31547 23.5076 4.94885C23.5076 3.58223 22.3998 2.47437 21.0331 2.47437C19.6665 2.47437 18.5587 3.58223 18.5587 4.94885C18.5587 6.31547 19.6665 7.42333 21.0331 7.42333Z" fill="white"/>
<path d="M28.4569 7.42358C29.8235 7.42358 30.9314 6.31571 30.9314 4.94909C30.9314 3.58247 29.8235 2.47461 28.4569 2.47461C27.0903 2.47461 25.9824 3.58247 25.9824 4.94909C25.9824 6.31571 27.0903 7.42358 28.4569 7.42358Z" fill="white"/>
<path d="M218.973 223.56C219.012 225.164 218.7 226.758 218.059 228.229C217.271 229.6 216.086 230.699 214.66 231.382C211.607 232.971 208.059 233.321 204.754 232.36C204.304 232.269 203.899 232.023 203.611 231.666C203.435 231.369 203.365 231.021 203.41 230.679C203.484 228.851 204.708 227.306 206.006 226.027C207.303 224.748 208.747 223.56 209.57 221.924C211.087 218.853 209.963 210.693 215.747 212.009C220.618 213.096 219.101 220.16 218.973 223.56Z" fill="#FBB9AD"/>
<path d="M219.777 229.097C219.777 229.097 220.6 231.117 219.585 232.296C218.571 233.475 208.18 239.936 201.18 234.736C194.18 229.536 210.693 228.86 210.693 228.86L219.777 229.097Z" fill="#B4E8FF"/>
<path d="M219.366 224.4C219.054 224.252 218.698 224.219 218.364 224.307C218.029 224.396 217.737 224.601 217.539 224.885C216.855 225.66 215.986 226.249 215.012 226.597C214.039 226.945 212.994 227.042 211.973 226.877C209.698 226.329 208.793 223.706 207.669 223.697C206.545 223.688 200.495 228.824 200.139 231.008C199.783 233.192 202.881 234.837 206.289 235.047C209.698 235.257 217.402 232.954 218.873 231.126C220.344 229.299 220.162 225.525 219.366 224.4Z" fill="#F3F9FE"/>
<path d="M238.795 226.703C238.848 228.304 238.552 229.898 237.927 231.373C237.14 232.743 235.954 233.84 234.527 234.517C231.476 236.11 227.925 236.461 224.621 235.494C224.17 235.411 223.765 235.167 223.479 234.809C223.314 234.508 223.24 234.165 223.269 233.822C223.342 231.994 224.575 230.441 225.873 229.161C227.171 227.882 228.615 226.703 229.437 225.095C230.954 222.015 229.83 213.854 235.606 215.161C240.431 216.258 238.932 223.313 238.795 226.703Z" fill="#FBB9AD"/>
<path d="M239.599 232.259C239.599 232.259 240.412 234.279 239.407 235.458C238.401 236.637 228.011 243.098 221.029 237.898C214.047 232.698 230.515 232.04 230.515 232.04L239.599 232.259Z" fill="#B4E8FF"/>
<path d="M239.188 227.562C238.87 227.405 238.505 227.367 238.161 227.456C237.817 227.545 237.517 227.754 237.315 228.046C236.637 228.827 235.77 229.421 234.797 229.77C233.824 230.119 232.778 230.211 231.758 230.039C229.492 229.49 228.569 226.868 227.454 226.858C226.339 226.849 220.28 231.985 219.951 234.169C219.622 236.353 222.693 238.007 226.102 238.227C229.51 238.446 237.241 236.07 238.713 234.279C240.184 232.488 239.974 228.695 239.188 227.562Z" fill="#F3F9FE"/>
<path d="M242.934 141.404C242.934 141.404 244.004 200.805 239.608 220.58L228.45 221.951L220.728 140.655L242.934 141.404Z" fill="#3E4957"/>
<path d="M208.446 134.916C208.446 134.916 203.2 166.946 209.57 218.378L220.728 219.758L228.45 138.425L208.446 134.916Z" fill="#3E4957"/>
<path d="M195.378 109.41C195.506 111.558 196.201 113.422 198.074 114.043C198.229 114.1 198.388 114.143 198.549 114.171C201.976 114.857 206.472 112.252 209.607 109.977C210.918 109.034 212.175 108.018 213.372 106.934V83.9958L196.703 101.03C195.817 103.735 195.37 106.564 195.378 109.41Z" fill="#B4E8FF"/>
<path d="M209.496 109.876C209.496 110.955 209.368 112.033 209.359 113.102C209.359 119.024 210.729 125.138 208.966 130.95C208.573 132.247 208.052 133.636 208.472 134.916C208.985 135.98 209.864 136.824 210.949 137.292C216.176 140.152 222.216 141.02 228.102 141.861C232.534 142.482 238.821 143.808 242.915 141.413C244.67 140.399 245.264 138.507 245.812 136.616C247.594 130.602 248.115 124.141 248.554 117.927C248.609 117.105 248.672 116.282 248.718 115.46C249.059 109.788 249.175 104.113 249.065 98.4348C248.983 94.3133 248.663 89.8628 245.967 86.7557C242.394 82.616 235.476 79.8744 230.213 78.9057C228.512 78.5559 226.769 78.4604 225.04 78.6224C222.588 79.0092 220.221 79.8128 218.04 80.9985C215.436 82.287 213.114 83.3836 211.835 85.9607C210.429 88.9405 209.448 92.1028 208.92 95.3551C208.43 98.4047 208.359 101.507 208.71 104.576C208.874 106.075 209.249 107.573 209.404 109.072C209.462 109.336 209.492 109.606 209.496 109.876Z" fill="#B4E8FF"/>
<path opacity="0.1" d="M233.65 143.396C235.368 143.899 239.325 142.318 240.641 142.099C241.436 141.953 242.148 141.56 242.934 141.377C246.855 140.399 247.321 129.369 247.705 126.408C248.719 118.567 250.282 110.443 250.391 102.584C250.569 99.5522 250.22 96.5127 249.359 93.6006C248.363 90.7402 246.325 88.1174 243.474 87.0574C238.457 85.2297 236.967 101.103 236.282 104.421C235.423 108.533 234.545 112.645 233.695 116.748C233.074 119.755 233.421 122.158 231.036 124.388C230.88 124.57 230.668 124.696 230.433 124.745C230.223 124.746 230.016 124.696 229.83 124.598C228.829 124.172 227.763 123.918 226.677 123.849C226.19 123.778 225.692 123.858 225.251 124.078C224.992 124.261 224.773 124.495 224.607 124.765C224.44 125.035 224.33 125.336 224.283 125.649C223.974 127.051 224.099 128.513 224.641 129.841C225.183 131.17 226.116 132.302 227.317 133.088C228.395 133.755 229.61 134.121 230.689 134.779C234.737 137.237 231.347 139.869 232.964 142.903C233.039 143.028 233.138 143.136 233.256 143.221C233.374 143.306 233.508 143.366 233.65 143.396Z" fill="#020202"/>
<path d="M220.088 71.3116C220.505 72.1454 221.214 72.7962 222.08 73.1393C223.095 73.5505 224.237 73.6054 225.05 74.3456C225.783 75.1437 226.249 76.1496 226.385 77.2242C226.622 78.3391 226.86 79.4449 227.107 80.5598C227.225 81.1172 227.353 81.6747 227.472 82.2321C227.513 82.5546 227.619 82.8654 227.783 83.146C227.991 83.3836 228.251 83.5705 228.542 83.6924C228.834 83.8144 229.149 83.8681 229.464 83.8497C230.769 83.9064 232.062 83.5894 233.193 82.9358C233.385 82.8382 233.546 82.6896 233.659 82.5063C233.757 82.2725 233.783 82.0145 233.732 81.7661C233.595 80.1668 233.458 78.5676 233.312 76.9683C233.082 75.6525 233.291 74.2978 233.906 73.1119C235.139 70.5348 236.474 67.9578 236.958 65.1157C237.258 63.8003 237.143 62.4244 236.629 61.177C236.161 60.3769 235.53 59.6838 234.778 59.1423C234.026 58.6009 233.168 58.2231 232.261 58.0333C229.918 57.3148 227.417 57.2894 225.06 57.9602C224.146 58.2618 223.917 58.8741 223.506 59.6508C222.885 60.8663 222.309 62.1091 221.788 63.3794C221.203 64.8141 220.691 66.2854 220.234 67.7841C219.77 68.9057 219.719 70.1554 220.088 71.3116Z" fill="#FBB9AD"/>
<path d="M184.603 95.4376C184.457 95.2 184.164 94.9349 183.927 95.0994C183.832 95.1916 183.765 95.3089 183.735 95.4376C183.595 95.6797 183.394 95.8807 183.152 96.0203C182.909 96.1599 182.635 96.2331 182.355 96.2326C181.816 96.2326 181.258 96.1503 180.701 96.1412C179.981 96.1679 179.277 96.3598 178.643 96.7021C178.009 97.0444 177.463 97.5278 177.045 98.1151C176.218 99.3061 175.757 100.714 175.72 102.164C175.573 103.464 175.93 104.772 176.716 105.819C178.005 107.29 180.235 107.327 182.2 107.263L183.972 107.199C184.391 107.25 184.813 107.139 185.153 106.89C185.493 106.64 185.724 106.27 185.8 105.855C186.54 104.092 187.856 102.328 186.942 100.546C186.157 99.0199 185.681 96.7901 184.603 95.4376Z" fill="#FBB9AD"/>
<path d="M219.549 114.153V100.884C219.549 100.366 219.393 99.8592 219.101 99.4306C218.809 99.0021 218.396 98.6711 217.914 98.4806L185.015 85.385C183.306 84.7088 179.842 86.7284 179.842 88.5652L181.46 119.344C181.46 119.857 181.612 120.36 181.896 120.787C182.181 121.215 182.585 121.549 183.059 121.747L214.377 136.177C216.086 136.881 219.586 134.852 219.586 133.006L219.549 114.153Z" fill="white"/>
<path d="M219.549 114.153V100.884C219.549 100.366 219.393 99.8592 219.101 99.4306C218.809 99.0021 218.396 98.6711 217.914 98.4806L185.015 85.385C183.306 84.7088 179.842 86.7284 179.842 88.5652L181.46 119.344C181.46 119.857 181.612 120.36 181.896 120.787C182.181 121.215 182.585 121.549 183.059 121.747L214.377 136.177C216.086 136.881 219.586 134.852 219.586 133.006L219.549 114.153Z" fill="url(#paint0_linear_1_1125)"/>
<path d="M217.968 114.939V101.661C217.967 101.141 217.81 100.634 217.519 100.204C217.227 99.7743 216.814 99.4413 216.332 99.2482L183.433 86.1526C183.039 85.996 182.613 85.9381 182.192 85.9841C181.771 86.0301 181.367 86.1786 181.016 86.4166C180.666 86.6546 180.379 86.9749 180.18 87.3494C179.982 87.724 179.878 88.1414 179.878 88.5652V120.121C179.878 120.633 180.029 121.135 180.314 121.561C180.599 121.987 181.004 122.319 181.478 122.515L214.376 136.177C214.771 136.339 215.2 136.401 215.625 136.358C216.049 136.315 216.457 136.169 216.812 135.931C217.167 135.694 217.458 135.373 217.659 134.997C217.861 134.62 217.967 134.2 217.968 133.774V114.939Z" fill="#F3F9FE"/>
<path d="M225.763 59.4133C226.228 60.1124 226.951 60.5988 227.773 60.7658C230.003 61.241 231.365 60.1535 232.489 62.758C232.854 63.6452 232.965 64.6168 232.809 65.5635C232.809 65.7554 232.114 67.9852 231.895 67.8664C232.471 68.2776 232.909 67.1627 233.54 66.8337C234.17 66.5048 235.102 67.4552 234.947 68.2776C234.685 69.0724 234.218 69.7845 233.595 70.3429C232.593 71.587 232.039 73.1322 232.023 74.7294C232.023 75.1041 232.169 75.6433 232.535 75.6433C232.9 75.6433 233.33 75.1224 233.622 74.9305C234.077 74.6208 234.557 74.3488 235.057 74.1171C236.592 73.3861 238.895 73.1576 240.174 72.1341C240.816 71.5747 241.243 70.8087 241.381 69.9683C241.435 69.7763 241.381 67.6105 241.006 67.7385C241.516 67.5819 241.976 67.2915 242.336 66.8975C242.696 66.5034 242.944 66.02 243.054 65.4976C243.164 64.9752 243.132 64.4328 242.962 63.9269C242.791 63.421 242.488 62.97 242.084 62.6209C243.656 60.4368 242.934 57.2017 241.052 55.3101C239.169 53.4184 236.437 52.5685 233.741 52.2121C230.813 51.7437 227.818 51.9405 224.977 52.7878C223.997 53.055 223.093 53.5461 222.336 54.2226C221.957 54.5633 221.665 54.9902 221.485 55.4674C221.305 55.9445 221.243 56.4578 221.303 56.9641C221.471 57.0314 221.654 57.05 221.832 57.0177C222.01 56.9853 222.175 56.9034 222.309 56.7814C222.188 57.172 222.201 57.5918 222.347 57.9737C222.493 58.3557 222.763 58.6776 223.114 58.8882C223.464 59.0987 223.875 59.1856 224.281 59.135C224.687 59.0844 225.064 58.8992 225.352 58.6091C225.431 58.9029 225.571 59.1768 225.763 59.4133Z" fill="#3E4957"/>
<path d="M224.338 73.8339L224.721 73.9435C224.833 73.9562 224.937 74.008 225.014 74.0898C225.056 74.1713 225.072 74.2638 225.06 74.3548C225.792 75.1529 226.258 76.1588 226.394 77.2334C226.631 78.3483 226.869 79.4541 227.116 80.569C228.315 78.437 229.222 76.1531 229.812 73.7791C227.994 73.9884 226.159 74.0067 224.338 73.8339Z" fill="#DC9F95"/>
<path d="M222.428 114.254C221.943 113.797 221.304 113.34 220.664 113.504C220.273 113.685 219.899 113.902 219.549 114.153C219.23 114.297 218.885 114.374 218.535 114.382C217.117 114.474 215.695 114.271 214.358 113.788C213.699 113.455 212.976 113.267 212.238 113.239C211.791 113.325 211.367 113.506 210.995 113.769C210.623 114.032 210.312 114.372 210.082 114.765C209.418 115.725 209.046 116.855 209.011 118.021C208.975 119.187 209.277 120.338 209.881 121.336C210.436 122.147 211.171 122.82 212.028 123.301C213.929 124.307 216.046 124.837 218.197 124.845C220.335 124.937 222.501 124.772 224.594 124.937C225.093 125.03 225.609 124.96 226.065 124.736C226.32 124.499 226.517 124.207 226.641 123.882C226.764 123.557 226.811 123.208 226.778 122.862C226.86 121.254 227.134 119.892 226.184 118.521C225.032 116.94 223.671 115.707 222.428 114.254Z" fill="#FBB9AD"/>
<path d="M245.968 86.7376C245.968 86.7376 269.518 117.534 262.079 128.418C254.641 139.302 223.241 126.591 223.241 126.591L226.302 117.58C226.302 117.58 248.363 120.367 248.527 117.909C248.692 115.451 234.536 101.359 234.536 101.359C234.536 101.359 231.977 80.624 245.968 86.7376Z" fill="#B4E8FF"/>
<path d="M217.813 100.802L192.81 112.325L180.665 86.9111C180.665 86.9111 179.87 86.9111 179.988 89.0678L189.209 110.086L179.87 120.057C179.869 120.438 179.95 120.814 180.108 121.161C180.266 121.508 180.496 121.817 180.784 122.067L190.205 111.585L191.485 114.226L196.611 112.654L210.082 134.34L215.163 136.314L199.335 111.585L217.932 103.031L217.813 100.802Z" fill="url(#paint1_linear_1_1125)"/>
<defs>
<linearGradient id="paint0_linear_1_1125" x1="126.474" y1="154.555" x2="354.699" y2="18.1895" gradientUnits="userSpaceOnUse">
<stop offset="0.01" stop-color="#41B4E6"/>
<stop offset="0.13" stop-color="#41B4E6" stop-opacity="0.69"/>
<stop offset="0.25" stop-color="#41B4E6" stop-opacity="0.32"/>
<stop offset="1" stop-color="#41B4E6" stop-opacity="0"/>
</linearGradient>
<linearGradient id="paint1_linear_1_1125" x1="231.32" y1="14.6528" x2="155.68" y2="233.338" gradientUnits="userSpaceOnUse">
<stop offset="0.01" stop-color="#41B4E6"/>
<stop offset="0.13" stop-color="#41B4E6" stop-opacity="0.69"/>
<stop offset="0.25" stop-color="#41B4E6" stop-opacity="0.32"/>
<stop offset="1" stop-color="#41B4E6" stop-opacity="0"/>
</linearGradient>
</defs>
</svg>
