<svg width="264" height="240" viewBox="0 0 264 240" fill="none" xmlns="http://www.w3.org/2000/svg">
<path d="M252 12.7198V181.255C252.001 184.632 250.793 187.872 248.64 190.261C246.488 192.651 243.567 193.996 240.521 194H11.4926C8.44455 194 5.52137 192.658 3.36609 190.269C1.21082 187.879 0 184.639 0 181.26L0 12.7198C0.00717868 9.3453 1.22088 6.11154 3.37512 3.72726C5.52935 1.34298 8.44841 0.00264356 11.4926 0H240.521C243.563 0.00661789 246.478 1.34871 248.63 3.73256C250.781 6.11642 251.993 9.3479 252 12.7198Z" fill="#B4E8FF"/>
<path d="M251.75 12.7204V181.255C251.751 184.574 250.563 187.753 248.455 190.094C246.346 192.435 243.492 193.746 240.521 193.75H11.4926C8.51965 193.75 5.66258 192.441 3.55172 190.101C1.4401 187.76 0.25 184.58 0.25 181.26V12.7201C0.257118 9.40401 1.45005 6.23081 3.56062 3.89486C5.67048 1.55969 8.52357 0.252578 11.4928 0.25L240.521 0.25C243.488 0.256534 246.337 1.56536 248.444 3.90005C250.552 6.23565 251.743 9.40674 251.75 12.7204Z" fill="url(#paint0_linear_1_1170)" stroke="#B4E8FF" stroke-width="0.5"/>
<path d="M151.344 58.9985H42.3252V129.54H151.344V58.9985Z" fill="#F3F9FE"/>
<path d="M147.496 62.8462H46.1729V125.692H147.496V62.8462Z" fill="#B4E8FF"/>
<path d="M147.496 96.5054V125.692H46.1729V106.331C51.9457 99.8632 60.4773 95.5783 68.0766 90.2852C69.4593 89.2373 70.9648 88.3635 72.5595 87.6835C79.0817 85.2142 85.9998 89.5162 91.9302 93.1945C99.111 97.6489 106.679 101.442 114.541 104.528C111.898 100.692 108.067 97.8387 103.642 96.4114L113.979 87.8159C115.256 86.7522 116.576 85.6799 118.138 85.1032C121.276 83.9796 124.724 85.1501 127.819 86.3848C132.15 88.1193 136.416 90.0032 140.617 92.0368C143.086 93.25 145.589 94.5445 147.496 96.5054Z" fill="url(#paint1_linear_1_1170)"/>
<path d="M133.387 80.8023C136.929 80.8023 139.8 77.9312 139.8 74.3894C139.8 70.8477 136.929 67.9766 133.387 67.9766C129.846 67.9766 126.975 70.8477 126.975 74.3894C126.975 77.9312 129.846 80.8023 133.387 80.8023Z" fill="white"/>
<path d="M252 10.8647V13H0V10.8647C-2.356e-07 7.98391 1.21113 5.22109 3.36708 3.18369C5.52304 1.1463 8.4473 0.00113237 11.4969 0H240.503C243.552 0.00113186 246.476 1.14571 248.631 3.18218C250.787 5.21865 251.999 7.98038 252 10.8604V10.8647Z" fill="#B4E8FF"/>
<path d="M252 10.8647V13H0V10.8647C-2.356e-07 7.98391 1.21113 5.22109 3.36708 3.18369C5.52304 1.1463 8.4473 0.00113237 11.4969 0H240.503C243.552 0.00113186 246.476 1.14571 248.631 3.18218C250.787 5.21865 251.999 7.98038 252 10.8604V10.8647Z" fill="#B4E8FF"/>
<path d="M15.0466 6.09068C15.0466 6.50215 14.9246 6.90438 14.696 7.2465C14.4674 7.58863 14.1425 7.85528 13.7623 8.01274C13.3822 8.17021 12.9639 8.2114 12.5603 8.13113C12.1567 8.05086 11.786 7.85272 11.4951 7.56176C11.2041 7.27081 11.006 6.90011 10.9257 6.49655C10.8454 6.09299 10.8866 5.67468 11.0441 5.29454C11.2016 4.91439 11.4682 4.58947 11.8103 4.36087C12.1525 4.13227 12.5547 4.01025 12.9662 4.01025C13.5179 4.01025 14.0471 4.22944 14.4373 4.6196C14.8274 5.00975 15.0466 5.53892 15.0466 6.09068Z" fill="url(#paint2_linear_1_1170)"/>
<path d="M24.7468 6.09068C24.7468 6.50215 24.6248 6.90438 24.3962 7.2465C24.1676 7.58863 23.8427 7.85528 23.4625 8.01274C23.0824 8.17021 22.6641 8.2114 22.2605 8.13113C21.8569 8.05086 21.4862 7.85272 21.1953 7.56176C20.9043 7.27081 20.7062 6.90011 20.6259 6.49655C20.5456 6.09299 20.5868 5.67468 20.7443 5.29454C20.9018 4.91439 21.1684 4.58947 21.5105 4.36087C21.8527 4.13227 22.2549 4.01025 22.6664 4.01025C23.2181 4.01025 23.7473 4.22944 24.1374 4.6196C24.5276 5.00975 24.7468 5.53892 24.7468 6.09068Z" fill="url(#paint3_linear_1_1170)"/>
<path d="M32.3552 8.17125C33.507 8.17125 34.4408 7.23749 34.4408 6.08563C34.4408 4.93377 33.507 4 32.3552 4C31.2033 4 30.2695 4.93377 30.2695 6.08563C30.2695 7.23749 31.2033 8.17125 32.3552 8.17125Z" fill="url(#paint4_linear_1_1170)"/>
<path d="M216.755 141.083H189.821V159.039H216.755V141.083Z" fill="white"/>
<path d="M251 13V180.162C251.001 181.847 250.697 183.515 250.105 185.072C249.512 186.629 248.643 188.044 247.548 189.236C246.452 190.428 245.151 191.374 243.719 192.02C242.286 192.666 240.751 192.999 239.2 193H200V13H251Z" fill="url(#paint5_linear_1_1170)"/>
<path d="M252 65H210V142H252V65Z" fill="url(#paint6_linear_1_1170)"/>
<path d="M36 13V194H11.602C8.52495 194 5.57394 192.863 3.39814 190.84C1.22235 188.816 0 186.072 0 183.21V13H36Z" fill="#B4E8FF"/>
<path d="M29.499 58.9985H11.543V61.5637H29.499V58.9985Z" fill="white"/>
<path d="M29.4991 53.8682H7.69531V56.4333H29.4991V53.8682Z" fill="white"/>
<path d="M29.499 80.8022H11.543V82.0848H29.499V80.8022Z" fill="white"/>
<path d="M29.4991 75.6719H7.69531V78.237H29.4991V75.6719Z" fill="white"/>
<path d="M29.499 102.606H11.543V103.889H29.499V102.606Z" fill="white"/>
<path d="M29.4991 96.1934H7.69531V98.7585H29.4991V96.1934Z" fill="white"/>
<path d="M29.499 123.127H11.543V125.693H29.499V123.127Z" fill="white"/>
<path d="M29.4991 117.997H7.69531V120.562H29.4991V117.997Z" fill="white"/>
<path d="M151.344 29.4993H42.3252V37.1947H151.344V29.4993Z" fill="#F3F9FE"/>
<path d="M102.606 42.325H42.3252V50.0204H102.606V42.325Z" fill="#F3F9FE"/>
<path d="M151.344 138.518H42.3252V146.214H151.344V138.518Z" fill="#F3F9FE"/>
<path d="M151.344 151.344H42.3252V159.039H151.344V151.344Z" fill="#F3F9FE"/>
<path d="M102.606 164.17H42.3252V171.865H102.606V164.17Z" fill="#F3F9FE"/>
<path d="M228.931 40.5166C233.074 31.8827 248.635 33.3012 248.635 33.3012C239.036 27.7989 240.875 13.8246 240.991 13C236.793 25.1827 222.298 22.4929 220.999 22.2278C230.624 24.5348 228.931 40.5166 228.931 40.5166Z" fill="#41B4E6"/>
<path opacity="0.22" d="M246.407 32.5944L248.625 33.3012C239.026 27.7989 240.865 13.8246 240.981 13C240.83 13.6626 238.596 22.8855 239.814 25.914C241.335 29.6984 246.407 32.5944 246.407 32.5944Z" fill="white"/>
<path d="M248.597 55.0206C251.096 50.1913 260.484 50.9848 260.484 50.9848C254.693 47.9071 255.802 40.0909 255.872 39.6296C253.339 46.4438 244.594 44.9393 243.811 44.7911C249.618 46.0814 248.597 55.0206 248.597 55.0206Z" fill="#41B4E6"/>
<path opacity="0.22" d="M259.244 50.7709L260.484 51.1728C255.116 48.0442 256.144 40.0985 256.209 39.6296C256.124 40.0064 254.875 45.2505 255.556 46.9725C256.407 49.1243 259.244 50.7709 259.244 50.7709Z" fill="white"/>
<path d="M196.719 197.204C196.926 202.614 201.092 222.497 201.228 227.917C201.228 229.72 200.75 232.489 201.327 234.229C202.517 237.917 206.737 237.412 207.287 235.239L207.495 234.157C209.451 223.625 206.304 211.677 207.495 197.925C208.207 189.53 211.525 173.344 213.699 173.236C214.844 173.236 240.985 228.71 243.257 232.128C244.376 233.85 247.523 233.58 249.047 234.968C250.571 236.357 236.35 192.911 230.39 169.953C229 165.215 228.093 160.348 227.685 155.426C227.522 152.586 228.433 151.63 225.827 150.791C224.023 150.214 221.526 150.377 219.596 150.241C217.495 150.079 197.954 150.043 197.954 151.432C198.144 158.97 196.214 184.706 196.719 197.204Z" fill="#3E4857"/>
<path d="M196.719 197.204C196.926 202.614 201.092 222.497 201.228 227.917C201.228 229.72 200.75 232.489 201.327 234.229C202.517 237.917 206.737 237.412 207.287 235.239L207.495 234.157C209.451 223.625 206.304 211.677 207.495 197.925C208.207 189.53 211.525 173.344 213.699 173.236C214.844 173.236 240.985 228.71 243.257 232.128C244.376 233.85 247.523 233.58 249.047 234.968C250.571 236.357 236.35 192.911 230.39 169.953C229 165.215 228.093 160.348 227.685 155.426C227.522 152.586 228.433 151.63 225.827 150.791C224.023 150.214 221.526 150.377 219.596 150.241C217.495 150.079 197.954 150.043 197.954 151.432C198.144 158.97 196.214 184.706 196.719 197.204Z" fill="url(#paint7_linear_1_1170)"/>
<path d="M219.624 81.7908C219.786 80.0955 220.579 79.1758 221.355 79.1758C222.13 79.1758 222.608 80.0775 222.446 81.7908C222.428 82.4032 222.194 82.9895 221.784 83.4452C221.375 83.9009 220.817 84.1966 220.21 84.2796C219.425 84.2796 219.452 83.4861 219.624 81.7908Z" fill="#FFCD9C"/>
<path d="M205.23 81.8899C205.122 80.1947 204.329 79.2749 203.508 79.2749C202.688 79.2749 202.156 80.1766 202.282 81.8899C202.287 82.508 202.52 83.1025 202.936 83.5598C203.352 84.0172 203.921 84.3055 204.536 84.3697C205.348 84.3697 205.357 83.5852 205.23 81.8899Z" fill="#FFCD9C"/>
<path d="M204.113 89.0856C204.221 89.9873 207.945 93.937 212.183 93.937C216.421 93.937 219.92 90.33 220.66 88.8872C221.399 87.4445 218.423 68.8868 216.701 67.3358C214.979 65.7848 207.999 66.8038 207.413 67.6243C206.006 69.5631 203.653 85.4877 204.113 89.0856Z" fill="#FBB9AD"/>
<path d="M216.846 88.6619H207.278L205.844 97.1111C211.056 99.7261 214.095 99.4376 218.162 96.534L216.846 88.6619Z" fill="#FBB9AD"/>
<path d="M203.68 86.011C203.338 83.9371 202.779 69.0855 204.149 67.1197C205.52 65.1539 213.726 63.8825 214.97 64.1891C217.756 64.8744 217.27 66.8943 217.27 66.8943C218.098 66.9068 218.909 67.1336 219.623 67.5525C220.579 68.2018 222.59 77.5618 220.985 84.6404C220.263 87.8235 217.423 90.5919 212.517 90.7271C206.476 90.8894 204.095 88.581 203.68 86.011Z" fill="#3E4857"/>
<path d="M214.763 64.748C214.432 64.4719 214.049 64.2651 213.637 64.1396C213.225 64.0142 212.792 63.9726 212.364 64.0175C209.737 64.0035 207.131 64.4838 204.681 65.4333C203.323 65.9049 202.09 66.6788 201.074 67.6966C200.57 68.2127 200.193 68.839 199.972 69.526C199.751 70.213 199.693 70.942 199.803 71.6552C200.254 73.7833 202.508 75.0999 203.248 77.1468C203.843 78.788 203.419 80.375 203.401 82.0252C203.389 83.3594 203.485 84.6923 203.689 86.0108C204.104 88.5808 206.476 90.8892 212.563 90.7359C217.468 90.6007 220.308 87.8324 221.03 84.6492C222.006 79.366 221.75 73.9287 220.281 68.7607C217.638 69.3692 214.933 69.6718 212.22 69.6624C209.343 69.6863 206.475 69.3531 203.68 68.6705C203.202 71.4298 203.212 76.9574 203.365 81.0874" fill="#3E4857"/>
<path d="M229.749 95.7858C231.235 95.9097 232.667 96.4025 233.915 97.2196C236.052 98.8968 236.215 102.026 236.179 104.749C236.252 108.522 235.989 112.294 235.394 116.021C234.754 119.438 233.591 122.721 232.635 126.066C231.128 131.51 230.337 137.127 230.281 142.775C230.281 145.877 230.335 149.286 228.397 151.711C226.277 154.344 222.526 154.858 219.154 155.048C214.366 155.327 209.559 155.363 204.771 155.165C201.561 155.021 198.143 154.705 195.6 152.739C193.572 151.17 188.819 98.0852 192.508 96.7416C196.196 95.3981 200.163 95.0554 204.077 94.7308C212.851 93.9914 221.111 93.4052 229.749 95.7858Z" fill="#B4E8FF"/>
<path d="M203.058 206.275C203.527 212.308 204.645 234.229 204.645 234.229L207.494 234.13C209.451 223.597 206.304 211.649 207.494 197.898C208.207 189.503 211.525 173.317 213.698 173.208C213.049 167.798 209.397 168.61 209.397 168.61C206.741 172.581 204.45 176.786 202.553 181.171C200.38 186.87 202.58 200.215 203.058 206.275Z" fill="url(#paint8_linear_1_1170)"/>
<path d="M256.756 234.229C257.202 234.563 257.54 235.021 257.73 235.545C257.831 235.977 257.79 236.429 257.613 236.835C257.364 237.346 257.001 237.792 256.552 238.141C256.104 238.49 255.581 238.731 255.025 238.846C253.91 239.061 252.769 239.1 251.643 238.963L248.036 238.719C247.118 238.698 246.208 238.549 245.331 238.278C244.897 238.141 244.495 237.917 244.15 237.62C243.806 237.322 243.527 236.956 243.329 236.546C243.117 235.936 243.034 235.288 243.086 234.644C243.086 231.659 244.132 229.233 247.396 229.964C250.815 230.607 254.027 232.07 256.756 234.229Z" fill="#B4E8FF"/>
<path d="M196.864 235.41C196.471 235.706 196.173 236.11 196.007 236.573C195.918 236.95 195.953 237.345 196.106 237.701C196.324 238.149 196.642 238.541 197.036 238.847C197.43 239.152 197.89 239.361 198.379 239.459C199.355 239.653 200.357 239.689 201.345 239.567L204.483 239.351C205.282 239.333 206.074 239.206 206.837 238.972C207.218 238.852 207.569 238.655 207.87 238.392C208.171 238.13 208.415 237.809 208.586 237.448C208.772 236.913 208.845 236.345 208.803 235.78C208.803 233.165 207.901 231.01 205.024 231.677C202.042 232.243 199.242 233.524 196.864 235.41Z" fill="#B4E8FF"/>
<path d="M192.508 96.7415C192.508 96.7415 178.756 105.037 174.626 115.525C170.496 126.012 188.152 151.287 188.152 151.287L191.931 147.311C191.931 147.311 182.715 128.239 184.14 123.469C185.564 118.699 191.146 114.253 191.146 114.253L192.508 96.7415Z" fill="#B4E8FF"/>
<path d="M232.941 113.297C232.941 113.297 252.491 122.044 260.435 117.752C268.38 113.46 260.201 91.8992 260.201 91.8992L254.881 93.7026C254.881 93.7026 259.326 104.695 254.24 106.327C249.155 107.959 233.915 97.2375 233.915 97.2375L232.941 113.297Z" fill="#B4E8FF"/>
<path d="M196.133 150.287C196.68 150.667 197.123 151.179 197.422 151.774C197.602 152.28 197.667 152.819 197.612 153.352C197.628 153.992 197.502 154.627 197.244 155.211C196.985 155.796 196.599 156.316 196.115 156.734C195.426 157.129 194.654 157.358 193.861 157.401C193.374 157.487 192.877 157.487 192.391 157.401C192.147 157.355 191.918 157.248 191.726 157.09C191.534 156.933 191.384 156.73 191.291 156.499C191.226 156.203 191.199 155.901 191.21 155.598C191.146 154.11 190.1 152.893 189.235 151.675C189.026 151.44 188.891 151.148 188.847 150.837C188.852 150.492 188.973 150.158 189.19 149.89C189.776 149.042 191.228 147.482 192.391 147.617C193.554 147.753 195.231 149.547 196.133 150.287Z" fill="#FBB9AD"/>
<path d="M251.644 89.1489C251.401 88.7936 251.235 88.3911 251.157 87.9676C251.127 87.7538 251.163 87.536 251.262 87.3438C251.36 87.1517 251.516 86.9948 251.707 86.8945C252.329 86.6511 253.069 87.2913 253.682 87.0208C253.889 86.9047 254.063 86.737 254.187 86.5339C254.911 85.485 255.326 84.2541 255.386 82.981C255.351 82.3026 255.412 81.6226 255.567 80.9611C255.655 80.6317 255.858 80.3445 256.139 80.1511C256.42 79.9578 256.76 79.8709 257.099 79.9061C257.677 80.0414 258.001 80.6275 258.362 81.0964C258.723 81.5653 259.444 82.1244 259.913 82.7105C260.713 83.915 261.172 85.3145 261.238 86.7593C261.491 88.5628 261.653 90.6277 260.391 91.9262C259.417 92.9271 256.45 94.1084 255.089 93.5764C253.583 92.9813 252.401 90.4474 251.644 89.1489Z" fill="#FBB9AD"/>
<defs>
<linearGradient id="paint0_linear_1_1170" x1="93.8315" y1="161.576" x2="241.143" y2="22.0873" gradientUnits="userSpaceOnUse">
<stop stop-color="white"/>
<stop offset="1" stop-color="white"/>
</linearGradient>
<linearGradient id="paint1_linear_1_1170" x1="96.8346" y1="84.5478" x2="96.8346" y2="258.537" gradientUnits="userSpaceOnUse">
<stop stop-color="white"/>
<stop offset="0.97" stop-color="white" stop-opacity="0"/>
</linearGradient>
<linearGradient id="paint2_linear_1_1170" x1="13.1742" y1="-1.20121" x2="12.9454" y2="6.91245" gradientUnits="userSpaceOnUse">
<stop stop-color="white"/>
<stop offset="1" stop-color="white"/>
</linearGradient>
<linearGradient id="paint3_linear_1_1170" x1="22.864" y1="-0.925556" x2="22.6352" y2="7.1881" gradientUnits="userSpaceOnUse">
<stop stop-color="white"/>
<stop offset="1" stop-color="white"/>
</linearGradient>
<linearGradient id="paint4_linear_1_1170" x1="32.5476" y1="-0.649751" x2="32.3188" y2="7.46391" gradientUnits="userSpaceOnUse">
<stop stop-color="white"/>
<stop offset="1" stop-color="white"/>
</linearGradient>
<linearGradient id="paint5_linear_1_1170" x1="225.5" y1="13" x2="225.5" y2="193" gradientUnits="userSpaceOnUse">
<stop stop-color="#F3F9FE"/>
<stop offset="1" stop-color="white"/>
</linearGradient>
<linearGradient id="paint6_linear_1_1170" x1="270.617" y1="104.305" x2="214.221" y2="104.171" gradientUnits="userSpaceOnUse">
<stop stop-color="white" stop-opacity="0"/>
<stop offset="1" stop-color="white"/>
</linearGradient>
<linearGradient id="paint7_linear_1_1170" x1="221.643" y1="202.29" x2="239.759" y2="118.068" gradientUnits="userSpaceOnUse">
<stop stop-color="#3E4857"/>
<stop offset="1" stop-color="#3E4957"/>
</linearGradient>
<linearGradient id="paint8_linear_1_1170" x1="189.928" y1="186.491" x2="262.87" y2="247.034" gradientUnits="userSpaceOnUse">
<stop stop-color="#3E4857"/>
<stop offset="0.95" stop-color="#1C2534"/>
</linearGradient>
</defs>
</svg>
