<svg width="264" height="241" viewBox="0 0 264 241" fill="none" xmlns="http://www.w3.org/2000/svg">
<path d="M234.111 0H16.8897C7.56176 0 0 7.52949 0 16.8176V161.182C0 170.471 7.56176 178 16.8897 178H234.111C243.438 178 251 170.471 251 161.182V16.8176C251 7.52949 243.438 0 234.111 0Z" fill="#B4E8FF"/>
<path d="M234.111 0H16.8897C7.56176 0 0 7.52949 0 16.8176V161.182C0 170.471 7.56176 178 16.8897 178H234.111C243.438 178 251 170.471 251 161.182V16.8176C251 7.52949 243.438 0 234.111 0Z" fill="url(#paint0_linear_6_1517)"/>
<path d="M236.163 12.5513H14.8379V162.026H236.163V12.5513Z" fill="white"/>
<path d="M119.922 82.0283H113.514V141.843H119.922V82.0283Z" fill="#B4E8FF"/>
<path d="M131.066 91.8083H124.658V141.843H131.066V91.8083Z" fill="#B4E8FF"/>
<path d="M141.984 100.74H135.576V141.843H141.984V100.74Z" fill="#B4E8FF"/>
<path d="M153.129 91.8083H146.721V141.843H153.129V91.8083Z" fill="#B4E8FF"/>
<path d="M164.047 111.93H157.639V141.843H164.047V111.93Z" fill="#B4E8FF"/>
<path d="M175.189 91.8083H168.781V141.843H175.189V91.8083Z" fill="#B4E8FF"/>
<path d="M186.107 106.831H179.699V141.843H186.107V106.831Z" fill="#B4E8FF"/>
<path d="M197.252 100.091H190.844V141.843H197.252V100.091Z" fill="#B4E8FF"/>
<path d="M75.0764 115.005H38.4287V117.186H75.0764V115.005Z" fill="#F3F9FE"/>
<path d="M75.0764 121.051H38.4287V123.232H75.0764V121.051Z" fill="#F3F9FE"/>
<path d="M75.0764 127.109H38.4287V129.29H75.0764V127.109Z" fill="#F3F9FE"/>
<path d="M75.0764 133.166H38.4287V135.347H75.0764V133.166Z" fill="#F3F9FE"/>
<path d="M75.0764 139.224H38.4287V141.404H75.0764V139.224Z" fill="#F3F9FE"/>
<path d="M87.2807 62.8208C86.7827 68.8966 84.0663 74.5595 79.6701 78.6865C75.2738 82.8134 69.5189 85.103 63.5465 85.1011H63.4062V76.6317C67.1824 76.6073 70.8244 75.1996 73.6696 72.6649C76.5148 70.1302 78.374 66.637 78.909 62.8208H87.2807Z" fill="#B4E8FF"/>
<path opacity="0.5" d="M87.2807 62.8208C86.7827 68.8966 84.0663 74.5595 79.6701 78.6865C75.2738 82.8134 69.5189 85.103 63.5465 85.1011H63.4062V76.6317C67.1824 76.6073 70.8244 75.1996 73.6696 72.6649C76.5148 70.1302 78.374 66.637 78.909 62.8208H87.2807Z" fill="white"/>
<path d="M61.3 33.8419C54.9767 33.8229 48.905 36.3691 44.4206 40.9202C39.9362 45.4714 37.4064 51.6548 37.3878 58.1101C37.3692 64.5654 39.8633 70.7639 44.3214 75.3419C48.7795 79.9199 54.8364 82.5025 61.1597 82.5215V74.0411H61.0626C57.9431 74.0411 54.8937 73.0968 52.2999 71.3275C49.7062 69.5582 47.6846 67.0435 46.4908 64.1013C45.297 61.1591 44.9847 57.9216 45.5933 54.7981C46.2019 51.6747 47.704 48.8056 49.9098 46.5538C52.1157 44.3019 54.926 42.7684 57.9856 42.1471C61.0451 41.5258 64.2165 41.8447 67.0985 43.0634C69.9805 44.2821 72.4438 46.3459 74.1769 48.9938C75.91 51.6417 76.8351 54.7548 76.8351 57.9394C76.8374 58.7102 76.7797 59.4798 76.6625 60.2412H85.0449C85.1149 59.5571 85.1474 58.8695 85.142 58.1817C85.1434 54.985 84.5277 51.8193 83.33 48.8656C82.1324 45.9119 80.3762 43.2281 78.162 40.9676C75.9478 38.7072 73.3189 36.9144 70.4256 35.6917C67.5323 34.469 64.4314 33.8405 61.3 33.8419Z" fill="#B4E8FF"/>
<path d="M151.949 63.1878L187.977 71.3562C188.36 71.4551 188.759 71.4751 189.15 71.4153C189.541 71.3555 189.917 71.217 190.255 71.0079C190.593 70.7987 190.888 70.523 191.121 70.1968C191.354 69.8707 191.521 69.5005 191.613 69.1078L196.044 48.4135C196.125 48.0289 196.132 47.6318 196.064 47.2446C195.962 46.6537 195.692 46.1065 195.288 45.6716C194.883 45.2367 194.361 44.9333 193.788 44.7996L157.761 36.6312C157.334 36.5381 156.893 36.5414 156.468 36.641C156.043 36.7406 155.645 36.9339 155.301 37.2075C154.758 37.6351 154.379 38.2445 154.233 38.9284L149.699 59.5872C149.529 60.3644 149.667 61.1785 150.083 61.8523C150.498 62.5261 151.158 63.005 151.918 63.1848L151.949 63.1878Z" fill="#B4E8FF"/>
<path d="M151.949 63.1878L187.977 71.3562C188.36 71.4551 188.759 71.4751 189.15 71.4153C189.541 71.3555 189.917 71.217 190.255 71.0079C190.593 70.7987 190.888 70.523 191.121 70.1968C191.354 69.8707 191.521 69.5005 191.613 69.1078L196.044 48.4135C196.125 48.0289 196.132 47.6318 196.064 47.2446C195.962 46.6537 195.692 46.1065 195.288 45.6716C194.883 45.2367 194.361 44.9333 193.788 44.7996L157.761 36.6312C157.334 36.5381 156.893 36.5414 156.468 36.641C156.043 36.7406 155.645 36.9339 155.301 37.2075C154.758 37.6351 154.379 38.2445 154.233 38.9284L149.699 59.5872C149.529 60.3644 149.667 61.1785 150.083 61.8523C150.498 62.5261 151.158 63.005 151.918 63.1848L151.949 63.1878Z" fill="url(#paint1_linear_6_1517)"/>
<path d="M150.282 62.8232L186.31 70.9917C187.079 71.1645 187.883 71.0192 188.547 70.5876C189.21 70.156 189.68 69.4733 189.851 68.6893L194.268 48.0768C194.349 47.6923 194.356 47.2951 194.288 46.9079C194.186 46.3194 193.917 45.7746 193.513 45.342C193.109 44.9094 192.589 44.6082 192.018 44.4762L155.99 36.3078C155.225 36.1329 154.423 36.2752 153.761 36.7035C153.098 37.1317 152.629 37.8109 152.457 38.5917L147.98 59.2432C147.9 59.6327 147.896 60.0345 147.968 60.4256C148.041 60.8167 148.188 61.1893 148.402 61.522C148.616 61.8547 148.892 62.1409 149.215 62.3642C149.538 62.5876 149.9 62.7435 150.282 62.8232Z" fill="#B4E8FF"/>
<path d="M153.579 36.8501L168.651 57.5873L194.394 46.8666C194.292 46.278 194.023 45.7333 193.619 45.3007C193.215 44.8681 192.695 44.5669 192.124 44.4349L156.096 36.2664C155.661 36.1589 155.207 36.1557 154.77 36.2569C154.334 36.3582 153.926 36.5612 153.579 36.8501Z" fill="url(#paint2_linear_6_1517)"/>
<path d="M177.88 53.7521L184.184 70.4739L150.283 62.8233L163.256 50.1597L168.645 57.5742L177.88 53.7521Z" fill="url(#paint3_linear_6_1517)"/>
<path d="M232.701 94.7089L221.916 72.0581L197.001 86.6171L214.149 121.993L227.523 114.551L232.701 94.7089Z" fill="#B4E8FF"/>
<path d="M230.656 92.4447L221.59 74.8669L201.098 86.837L216.632 118.009L227.197 109.918L230.656 92.4447Z" fill="white"/>
<path d="M231.38 148.176C231.38 148.176 224.001 184.5 224.221 192.471C224.441 200.442 231.489 236.5 231.489 236.5C231.489 236.5 227.989 235.931 225.489 237C222.989 238.069 222.489 239.638 222.489 239.638L233.969 239.576C233.969 239.576 234.924 203.268 235.501 194.924C236.077 186.58 245.761 161.634 245.761 161.634C245.761 161.634 241.24 187.843 242.001 194.924C242.762 202.005 251.001 237 251.001 237C251.001 237 248.759 237.149 247.501 237.5C246.243 237.851 244.989 240.5 244.989 240.5L255.519 239.638C255.519 239.638 252.438 198.395 253.501 192.471C254.564 186.547 258.045 168.185 258.045 168.185C258.045 168.185 262.993 148.752 258.045 145.587C253.098 142.421 231.38 148.176 231.38 148.176Z" fill="#3E4857"/>
<path d="M257.553 81.7324C257.553 81.7324 240.143 83.682 235.835 86.8265C231.527 89.971 227.062 94.9603 227.062 98.9852C227.062 103.01 225.333 122.852 225.333 122.852L218.142 106.176L214.117 108.471C214.117 108.471 218.719 137.379 221.308 138.239C223.897 139.098 230.94 137.191 230.94 137.191L231.381 148.123C231.381 148.123 254.964 150.419 258.119 145.534C261.274 140.65 268.727 89.7194 257.553 81.7324Z" fill="#CEF0FF"/>
<path d="M242.607 76.2717C242.607 76.2717 244.703 80.7054 243.582 84.3321C243.582 84.3321 250.049 83.4516 250.237 82.6865C250.426 81.9213 249.43 75.1397 250.175 73.0539C250.919 70.968 242.607 76.2717 242.607 76.2717Z" fill="#FBB9AD"/>
<path d="M249.556 58.2221C247.009 57.174 240.039 55.6017 237.46 66.01C234.882 76.4183 238.802 76.9214 242.858 76.9633C246.915 77.0052 253.749 70.4123 254.388 68.2845C255.027 66.1567 256.799 61.3457 249.556 58.2221Z" fill="#FBB9AD"/>
<path d="M217.775 101.354C217.782 101.071 217.747 100.788 217.67 100.516C217.429 99.7504 216.622 99.3312 216.182 98.6498C215.953 98.2131 215.811 97.7361 215.763 97.2453C215.728 96.8113 215.611 96.3878 215.417 95.998C215.32 95.805 215.17 95.644 214.984 95.5343C214.798 95.4246 214.584 95.3709 214.369 95.3796C213.782 95.4634 213.478 96.1133 213.32 96.6793C212.286 100.122 212.434 103.812 213.74 107.161C213.928 107.654 214.274 108.209 214.788 108.209C214.966 108.186 215.138 108.126 215.291 108.031C216.339 107.465 217.828 106.983 217.88 105.756C217.932 104.258 217.807 102.79 217.775 101.354Z" fill="#FBB9AD"/>
<path d="M215.344 97.696L220.228 93.1155L220.658 93.975L216.183 98.6708C216.183 98.6708 215.271 98.3563 215.344 97.696Z" fill="#B4E8FF"/>
<path d="M230.94 137.243C230.94 137.243 233.466 136.195 234.326 128.858C235.185 121.521 236.265 113.974 236.265 113.974V148.459H230.51L230.94 137.243Z" fill="url(#paint4_linear_6_1517)"/>
<path d="M241.768 55.9477C242.208 54.802 243.05 53.8557 244.137 53.2854C244.531 53.0368 244.983 52.8929 245.449 52.8672C245.915 52.8416 246.379 52.935 246.799 53.1387C247.052 52.7956 247.382 52.5171 247.762 52.3259C248.143 52.1346 248.564 52.036 248.99 52.0381C249.705 51.9331 250.436 52.0463 251.086 52.363C251.412 52.5355 251.674 52.8075 251.834 53.1393C251.994 53.4711 252.044 53.8455 251.977 54.2078C253.02 54.0579 254.079 54.0579 255.121 54.2078C255.446 54.2399 255.76 54.3399 256.044 54.5013C256.384 54.7729 256.639 55.1368 256.778 55.5495C257.354 56.8728 257.657 58.2988 257.668 59.7421C258.212 60.129 258.661 60.6333 258.982 61.2177C259.303 61.8021 259.488 62.4513 259.524 63.1172C259.55 63.7852 259.428 64.4508 259.165 65.0655C258.902 65.6801 258.505 66.2284 258.004 66.6705C258.201 67.3552 258.253 68.0737 258.156 68.7797C258.058 69.4856 257.814 70.1633 257.438 70.7688C257.048 71.3667 256.485 71.8315 255.824 72.1011C255.162 72.3708 254.435 72.4326 253.738 72.2782C253.738 72.9071 253.654 73.6722 253.078 73.9552C252.875 74.0381 252.656 74.0739 252.438 74.06C251.822 74.0499 251.214 73.9219 250.646 73.6827C250.756 74.1657 250.756 74.6671 250.646 75.1501C250.587 75.3873 250.453 75.5992 250.265 75.7541C250.076 75.909 249.842 75.9986 249.598 76.0096C249.24 75.9365 248.916 75.7488 248.675 75.4751C247.99 74.9484 247.461 74.2455 247.145 73.4416C247.04 72.6876 246.977 71.9282 246.956 71.1671C246.789 70.2762 246.223 69.4062 246.453 68.5362C246.684 67.6662 247.407 67.2784 247.962 66.7019C248.518 66.1254 248.853 65.0982 248.245 64.6056C247.638 64.113 246.747 64.5532 246.202 65.0982C245.929 65.3603 245.541 65.6642 245.227 65.4651C244.912 65.2659 245.007 64.8467 245.122 64.5322C245.422 63.855 245.664 63.1538 245.845 62.4359C245.939 62.0656 245.933 61.6774 245.831 61.3097C245.728 60.9419 245.53 60.6075 245.258 60.3396C244.357 59.5744 242.9 60.0041 242.019 59.2914C241.139 58.5786 241.432 56.8597 241.768 55.9477Z" fill="#3E4857"/>
<defs>
<linearGradient id="paint0_linear_6_1517" x1="-51.9995" y1="-134" x2="124.282" y2="178.687" gradientUnits="userSpaceOnUse">
<stop stop-color="white"/>
<stop offset="1" stop-color="white" stop-opacity="0"/>
</linearGradient>
<linearGradient id="paint1_linear_6_1517" x1="164.324" y1="45.9769" x2="241.917" y2="76.2111" gradientUnits="userSpaceOnUse">
<stop offset="0.01" stop-color="#41B4E6"/>
<stop offset="0.08" stop-color="#41B4E6"/>
<stop offset="0.21" stop-color="#41B4E6"/>
<stop offset="1" stop-color="white"/>
</linearGradient>
<linearGradient id="paint2_linear_6_1517" x1="168.365" y1="15.5813" x2="170.171" y2="82.99" gradientUnits="userSpaceOnUse">
<stop offset="0.01" stop-color="white"/>
<stop offset="1" stop-color="white" stop-opacity="0"/>
</linearGradient>
<linearGradient id="paint3_linear_6_1517" x1="192.711" y1="24.7601" x2="111.58" y2="144.504" gradientUnits="userSpaceOnUse">
<stop offset="0.01" stop-color="#41B4E6"/>
<stop offset="0.08" stop-color="#41B4E6" stop-opacity="0.69"/>
<stop offset="0.21" stop-color="#41B4E6" stop-opacity="0.5"/>
<stop offset="1" stop-color="white"/>
</linearGradient>
<linearGradient id="paint4_linear_6_1517" x1="217.178" y1="117.15" x2="265.058" y2="158.773" gradientUnits="userSpaceOnUse">
<stop stop-color="white" stop-opacity="0"/>
<stop offset="0.99" stop-color="white"/>
</linearGradient>
</defs>
</svg>
