<svg width="207" height="217" viewBox="0 0 207 217" fill="none" xmlns="http://www.w3.org/2000/svg">
<path d="M98.412 0.993773C103.318 -0.690219 108.816 -0.119127 113.627 1.84309C117.55 3.35064 120.949 5.96867 123.408 9.37712C124.617 11.0868 125.451 13.0319 125.857 15.0857C126.264 17.1396 126.232 19.2559 125.766 21.2969C125.034 24.0279 123.43 26.6856 123.936 29.4679C124.375 31.9133 126.403 33.7584 128.519 35.0617C130.635 36.3649 132.992 37.3241 134.845 38.9861C136.444 40.4692 137.569 42.3925 138.077 44.5137C138.585 46.6349 138.454 48.859 137.7 50.9058C137.1 52.4507 136.126 53.9956 136.397 55.6357C136.668 57.2757 138.198 58.4984 139.772 59.1135C141.347 59.7285 143.06 59.9335 144.634 60.5778C146.122 61.1716 147.436 62.1313 148.454 63.3679C149.472 64.6046 150.162 66.0782 150.459 67.6523C150.756 69.2264 150.651 70.85 150.154 72.3728C149.656 73.8955 148.783 75.2681 147.614 76.3634C145.469 78.3842 142.525 79.2921 139.677 80.0243C128.63 82.8002 117.193 83.684 105.851 82.6381C97.1161 81.8254 88.3667 79.8632 79.6465 80.8736C74.2065 81.5032 68.9495 83.2824 63.5387 83.9926C58.128 84.7028 52.1608 84.183 47.8776 80.7638C45.7285 78.9198 43.9942 76.6416 42.789 74.079C40.6511 69.8691 39.3112 65.0807 40.0947 60.4314C40.8781 55.7821 44.1436 51.3671 48.7196 50.181C50.7551 49.6611 52.9003 49.8003 55.0016 49.6904C59.1574 49.4605 63.1984 48.2432 66.7896 46.1394C67.8732 45.5024 68.9861 44.6751 69.279 43.467C69.7622 41.4608 67.8659 39.8061 66.8555 37.9903C64.8347 34.3881 67.0678 29.1531 71.0655 28.1134C73.4084 27.5057 76.2785 28.0401 77.9259 26.2683C79.9906 24.0718 78.9436 20.572 81.1694 18.2584C83.1609 16.1936 85.9432 15.4175 87.5393 12.8476C90.6657 7.781 92.0861 3.17564 98.412 0.993773Z" fill="#3E4957"/>
<path d="M98.412 0.993773C103.318 -0.690219 108.816 -0.119127 113.627 1.84309C117.55 3.35064 120.949 5.96867 123.408 9.37712C124.617 11.0868 125.451 13.0319 125.857 15.0857C126.264 17.1396 126.232 19.2559 125.766 21.2969C125.034 24.0279 123.43 26.6856 123.936 29.4679C124.375 31.9133 126.403 33.7584 128.519 35.0617C130.635 36.3649 132.992 37.3241 134.845 38.9861C136.444 40.4692 137.569 42.3925 138.077 44.5137C138.585 46.6349 138.454 48.859 137.7 50.9058C137.1 52.4507 136.126 53.9956 136.397 55.6357C136.668 57.2757 138.198 58.4984 139.772 59.1135C141.347 59.7285 143.06 59.9335 144.634 60.5778C146.122 61.1716 147.436 62.1313 148.454 63.3679C149.472 64.6046 150.162 66.0782 150.459 67.6523C150.756 69.2264 150.651 70.85 150.154 72.3728C149.656 73.8955 148.783 75.2681 147.614 76.3634C145.469 78.3842 142.525 79.2921 139.677 80.0243C128.63 82.8002 117.193 83.684 105.851 82.6381C97.1161 81.8254 88.3667 79.8632 79.6465 80.8736C74.2065 81.5032 68.9495 83.2824 63.5387 83.9926C58.128 84.7028 52.1608 84.183 47.8776 80.7638C45.7285 78.9198 43.9942 76.6416 42.789 74.079C40.6511 69.8691 39.3112 65.0807 40.0947 60.4314C40.8781 55.7821 44.1436 51.3671 48.7196 50.181C50.7551 49.6611 52.9003 49.8003 55.0016 49.6904C59.1574 49.4605 63.1984 48.2432 66.7896 46.1394C67.8732 45.5024 68.9861 44.6751 69.279 43.467C69.7622 41.4608 67.8659 39.8061 66.8555 37.9903C64.8347 34.3881 67.0678 29.1531 71.0655 28.1134C73.4084 27.5057 76.2785 28.0401 77.9259 26.2683C79.9906 24.0718 78.9436 20.572 81.1694 18.2584C83.1609 16.1936 85.9432 15.4175 87.5393 12.8476C90.6657 7.781 92.0861 3.17564 98.412 0.993773Z" fill="url(#paint0_linear_1_1508)"/>
<path d="M0.183434 157.502C0.183434 157.502 9.22574 140.245 48.6824 153.805C88.1391 167.365 144.45 191.622 144.45 191.622L139.933 208.886C139.933 208.886 47.0423 197.787 33.8852 190.384C20.7281 182.982 -2.28398 182.169 0.183434 157.502Z" fill="#B4E8FF"/>
<path d="M0.183434 157.502C0.183434 157.502 9.22574 140.245 48.6824 153.805C88.1391 167.365 144.45 191.622 144.45 191.622L139.933 208.886C139.933 208.886 47.0423 197.787 33.8852 190.384C20.7281 182.982 -2.28398 182.169 0.183434 157.502Z" fill="url(#paint1_linear_1_1508)"/>
<path d="M65.5374 193.262C65.5374 193.262 134.178 160.007 167.499 156.273C200.82 152.538 203.259 159.97 204.496 161.617C205.733 163.265 218.056 184.63 173.254 194.909C128.453 205.189 64.3366 211.346 64.3366 211.346C64.3366 211.346 61.0126 207.239 65.5374 193.262Z" fill="#B4E8FF"/>
<path d="M65.5374 193.262C65.5374 193.262 134.178 160.007 167.499 156.273C200.82 152.538 203.259 159.97 204.496 161.617C205.733 163.265 218.056 184.63 173.254 194.909C128.453 205.189 64.3366 211.346 64.3366 211.346C64.3366 211.346 61.0126 207.239 65.5374 193.262Z" fill="url(#paint2_linear_1_1508)"/>
<path d="M93.5506 56.9755C90.706 58.7261 87.6758 60.1552 84.5157 61.2368C86.1906 63.9752 88.4696 66.2943 91.1784 68.0167C95.1248 70.4035 99.8839 71.0552 104.497 71.0991C107.104 71.2027 109.712 70.8888 112.221 70.1692C115.582 69.0856 118.459 66.8818 121.146 64.5901C122.347 63.5504 123.65 62.1666 123.343 60.6144C120.884 60.7585 118.44 60.1505 116.336 58.8714C114.231 57.5922 112.566 55.7025 111.562 53.4538C111.158 52.4274 110.83 51.3727 110.581 50.2981C110.464 49.8442 110.017 46.9741 109.702 46.6373C109.319 46.2678 108.854 45.9937 108.346 45.8372C107.837 45.6808 107.298 45.6463 106.774 45.7367C104.416 46.1614 101.143 45.356 99.4519 47.2816C97.4751 49.4854 96.1938 55.3062 93.5506 56.9755Z" fill="#FBB9AD"/>
<path d="M101.121 55.2182C102.347 56.0178 103.809 56.3767 105.265 56.236C106.73 56.0676 107.872 52.5751 108.575 51.2792C108.782 50.8734 108.958 50.4524 109.102 50.0198C109.727 48.4823 110.11 46.8571 110.237 45.2021C110.237 45.6634 107.184 46.1467 106.788 46.2052C105.514 46.3956 104.218 46.4615 102.937 46.5933C101.158 46.7763 97.5995 46.8569 98.3902 49.4268C98.7856 50.7374 99.9717 54.5007 101.121 55.2182Z" fill="#ECAEA3"/>
<path d="M84.5217 61.2369C84.5217 61.2369 74.5788 62.3498 71.9064 67.8996C69.2339 73.4495 30.1726 124.006 29.9823 127.293C29.7919 130.581 48.4769 149.493 48.4769 149.493L57.1092 130.991L54.4368 125.243L71.0863 102.224L70.4274 161.676L105.447 175.66L137.48 163.345L138.666 102.019C138.666 102.019 152.643 121.743 153.053 126.678C153.463 131.613 151.413 134.491 151.413 134.491L163.332 151.748C163.332 151.748 181.827 132.433 180.597 123.391C179.367 114.349 141.14 68.3096 137.48 66.2888C133.819 64.268 123.334 60.6438 123.334 60.6438L84.5217 61.2369Z" fill="#B4E8FF"/>
<path d="M64.2038 159.67C61.2208 159.994 58.2649 160.532 55.3591 161.281C54.3634 161.537 53.2285 161.947 52.9137 162.928C52.4817 164.26 53.8875 165.447 55.1688 166.018C63.1128 169.554 72.4114 166.618 81.0071 167.995C88.3727 169.181 94.8524 173.471 101.991 175.66C102.33 175.789 102.69 175.854 103.053 175.851C103.855 175.865 104.657 175.801 105.447 175.66C108.859 174.482 111.729 173.083 115.478 172.658L129.579 171.07C135.473 170.403 140.313 167.548 146.178 166.677C148.674 166.303 151.303 166.538 153.624 165.498C154.473 165.11 155.337 164.121 154.795 163.367C154.564 163.106 154.257 162.924 153.917 162.847C151.376 162.02 148.652 162.079 145.987 162.115C118.772 162.598 91.2721 156.741 64.2038 159.67Z" fill="#B4E8FF"/>
<path d="M64.2038 159.67C61.2208 159.994 58.2649 160.532 55.3591 161.281C54.3634 161.537 53.2285 161.947 52.9137 162.928C52.4817 164.26 53.8875 165.447 55.1688 166.018C63.1128 169.554 72.4114 166.618 81.0071 167.995C88.3727 169.181 94.8524 173.471 101.991 175.66C102.33 175.789 102.69 175.854 103.053 175.851C103.855 175.865 104.657 175.801 105.447 175.66C108.859 174.482 111.729 173.083 115.478 172.658L129.579 171.07C135.473 170.403 140.313 167.548 146.178 166.677C148.674 166.303 151.303 166.538 153.624 165.498C154.473 165.11 155.337 164.121 154.795 163.367C154.564 163.106 154.257 162.924 153.917 162.847C151.376 162.02 148.652 162.079 145.987 162.115C118.772 162.598 91.2721 156.741 64.2038 159.67Z" fill="url(#paint3_linear_1_1508)"/>
<path d="M138.285 91.6438L138.973 101.711L151.42 121.033C152.484 122.688 153.128 124.578 153.294 126.538C153.46 128.498 153.143 130.469 152.372 132.279L151.427 134.476L157.848 139.989L164.24 125.873L138.285 91.6438Z" fill="url(#paint4_linear_1_1508)"/>
<path d="M72.0234 141.117C73.2908 141.559 74.4908 142.175 75.5891 142.947C78.3713 145.078 79.2865 148.848 79.5135 152.348C79.6037 152.993 79.5203 153.65 79.2719 154.252C78.9788 154.7 78.5686 155.058 78.0858 155.289C77.603 155.521 77.0662 155.615 76.5336 155.562C73.9563 155.562 71.6573 153.82 69.0874 153.571C67.7695 153.439 66.4223 153.703 65.1264 153.439C62.0805 152.817 60.3819 149.683 58.5368 147.201C56.8332 144.961 54.7125 143.071 52.2914 141.636C47.5689 138.847 50.0949 133.495 55.2201 134.534C60.8871 135.698 66.6273 138.927 72.0234 141.117Z" fill="#FBB9AD"/>
<path d="M137.619 139.616C136.432 139.823 135.289 140.229 134.237 140.816C132.728 141.775 131.798 143.408 130.576 144.682C129.536 145.729 128.203 146.644 127.83 148.072C127.637 148.952 127.748 149.871 128.145 150.679C128.762 151.955 129.797 152.982 131.078 153.589C132.359 154.196 133.81 154.348 135.188 154.017C136.316 153.71 137.334 153.08 138.454 152.765C141.932 151.777 146.01 153.82 149.107 151.967C150.086 151.277 150.956 150.445 151.691 149.5C153.357 147.653 155.298 146.075 157.446 144.821C157.99 144.569 158.466 144.193 158.837 143.723C159.57 142.566 158.772 141.058 157.893 140.004C155.323 136.929 153.844 135.852 149.971 136.738C145.827 137.675 141.727 138.656 137.619 139.616Z" fill="#FBB9AD"/>
<path d="M56.4134 197.062C49.5091 197.75 42.5901 195.195 35.6784 195.846C33.1863 196.113 30.7397 196.704 28.4006 197.604C27.2645 197.951 26.216 198.538 25.3255 199.324C23.7879 200.84 23.4877 203.249 23.8612 205.372C24.5933 209.516 27.6391 213.052 31.4025 214.934C33.7278 216.126 36.3394 216.646 38.9439 216.435C40.1812 216.286 41.4051 216.041 42.6047 215.703C45.3056 215.137 47.9337 214.268 50.4389 213.111C52.0204 212.306 53.4774 211.28 55.0663 210.504C57.3213 209.406 59.8034 208.842 62.0219 207.678C62.1944 207.604 62.351 207.497 62.4832 207.363C62.6201 207.192 62.7221 206.996 62.7833 206.785C63.8871 203.677 64.4252 200.396 64.3721 197.098C64.3721 196.63 64.5259 195.634 64.0427 195.378C63.6693 195.187 62.0585 195.92 61.6265 196.037C59.9197 196.52 58.1762 196.863 56.4134 197.062Z" fill="#FBB9AD"/>
<path d="M152.629 206.712C155.953 207.554 158.969 209.326 162.264 210.255C165.095 210.981 168.011 211.319 170.933 211.258C175.326 211.258 179.946 210.922 183.753 208.689C184.367 208.365 184.904 207.913 185.327 207.363C186.309 205.965 185.877 204.032 185.225 202.45C184.097 199.676 182.245 196.974 179.455 195.861C176.161 194.58 172.493 195.861 169.066 196.688C160.631 198.804 151.765 198.482 143.235 200.166C142.779 200.157 142.337 200.323 142 200.629C141.662 200.935 141.455 201.359 141.419 201.813C141.178 202.839 140.548 204.53 140.936 205.584C141.383 206.814 142.598 206.375 143.667 206.316C146.655 205.949 149.684 206.083 152.629 206.712Z" fill="#FBB9AD"/>
<path d="M159.556 202.817C159.255 203.41 158.902 203.976 158.501 204.508C157.895 205.378 157.634 206.443 157.769 207.495C157.94 208.114 158.233 208.693 158.632 209.196C159.03 209.699 159.527 210.117 160.09 210.424C163.297 212.518 167.302 212.906 171.131 213.038C173.183 213.164 175.242 213.073 177.274 212.767C178.723 212.482 180.152 212.1 181.55 211.625C182.968 211.276 184.304 210.651 185.482 209.787C186.381 208.99 187.07 207.984 187.488 206.858C188.054 205.575 188.208 204.147 187.927 202.773C187.612 201.721 187.089 200.742 186.39 199.895C185.671 198.933 184.888 198.021 184.047 197.164C183.433 196.479 182.685 195.926 181.85 195.539C180.847 195.216 179.787 195.104 178.739 195.209C172.721 195.356 166.725 195.985 160.808 197.091C160.345 197.145 159.904 197.316 159.526 197.589C158.758 198.255 159.526 199.141 159.673 199.91C159.934 200.868 159.893 201.883 159.556 202.817Z" fill="#B4E8FF"/>
<path d="M53.4266 205.225C54.1148 205.701 54.8909 206.031 55.5499 206.543C55.8962 206.778 56.1795 207.095 56.3748 207.465C56.5702 207.836 56.6716 208.248 56.6701 208.667C56.5749 209.677 55.6304 210.373 54.7664 210.863C50.7931 213.266 46.4919 215.079 41.9974 216.245C40.0358 216.834 37.9877 217.081 35.9423 216.977C34.2722 216.778 32.641 216.332 31.1027 215.652C28.401 214.539 25.7798 213.038 23.964 210.753C22.1482 208.469 21.2696 205.284 22.302 202.553C23.1733 200.239 25.2307 198.607 27.1929 197.12C28.1943 196.283 29.3242 195.613 30.5389 195.136C31.7292 194.802 32.9641 194.654 34.1998 194.697C37.4433 194.646 40.6795 194.653 43.923 194.653C46.1195 194.653 50.4759 194.616 50.9811 197.479C51.2154 198.79 50.659 200.108 50.9811 201.469C51.2962 202.984 52.169 204.325 53.4266 205.225Z" fill="#B4E8FF"/>
<path d="M90.8123 25.3603C90.8123 25.3603 90.1973 51.2572 103.764 49.8148C117.332 48.3724 117.947 24.5549 117.947 24.5549C117.947 24.5549 112.397 10.5778 100.682 12.6352C88.9672 14.6926 90.8123 25.3603 90.8123 25.3603Z" fill="#FBB9AD"/>
<path d="M97.6136 14.0996C99.4733 21.8753 107.527 27.6448 115.486 26.9199C116.855 26.7882 118.415 26.3342 118.942 25.0676C119.138 24.4862 119.201 23.868 119.125 23.2591C118.95 19.2894 117.647 15.4517 115.369 12.196C114.222 10.588 112.753 9.2366 111.055 8.22809C109.357 7.21958 107.467 6.57608 105.506 6.33864C99.8247 5.80415 94.5238 9.33321 90.6653 13.5652C88.2564 16.2229 80.9713 28.333 88.9154 28.7138C91.456 28.8309 93.9161 26.9858 95.1388 24.8918C97.0718 21.5458 95.4024 17.2333 97.6136 14.0996Z" fill="#3E4957"/>
<path d="M71.7755 92.1562L71.0873 102.224L54.4451 125.236L57.1102 130.991L55.1772 134.534L45.8055 126.4L71.7755 92.1562Z" fill="url(#paint5_linear_1_1508)"/>
<path d="M85.2832 63.404C85.8323 64.8684 87.6701 65.2784 89.2003 65.6518C92.129 66.384 94.8966 67.8483 97.8472 68.5805C100.932 69.2522 104.085 69.5521 107.241 69.4737C111.224 69.5396 115.214 69.6055 119.19 69.32C124.52 68.9466 129.858 67.9655 135.173 68.5C135.532 68.2364 135.115 67.7019 134.727 67.4822C131.959 65.9154 129.06 64.6048 126.197 63.221C123.825 62.0642 121.804 62.2033 119.168 62.357C111.956 62.7671 104.73 62.357 97.5104 62.4303C93.4162 62.4504 89.3291 62.7759 85.2832 63.404Z" fill="url(#paint6_linear_1_1508)"/>
<path d="M148.923 99.5H63.7057V164.268H148.923V99.5Z" fill="#F3F9FE"/>
<path d="M149.305 99.5H64.0876V104.032H149.305V99.5Z" fill="url(#paint7_linear_1_1508)"/>
<defs>
<linearGradient id="paint0_linear_1_1508" x1="100.155" y1="16.3767" x2="92.8402" y2="90.26" gradientUnits="userSpaceOnUse">
<stop stop-color="#3E4957"/>
<stop offset="0.99" stop-color="#3E4957"/>
</linearGradient>
<linearGradient id="paint1_linear_1_1508" x1="68.3046" y1="185.786" x2="139.113" y2="80.3464" gradientUnits="userSpaceOnUse">
<stop stop-opacity="0"/>
<stop offset="0.99" stop-color="#41B4E6" stop-opacity="0.69"/>
</linearGradient>
<linearGradient id="paint2_linear_1_1508" x1="131.161" y1="189.844" x2="109.805" y2="108.799" gradientUnits="userSpaceOnUse">
<stop stop-opacity="0"/>
<stop offset="0.99" stop-color="#41B4E6" stop-opacity="0.69"/>
</linearGradient>
<linearGradient id="paint3_linear_1_1508" x1="80.7728" y1="120.931" x2="166.195" y2="279.079" gradientUnits="userSpaceOnUse">
<stop stop-color="#141C20" stop-opacity="0"/>
<stop offset="0.99" stop-color="#007AAF"/>
</linearGradient>
<linearGradient id="paint4_linear_1_1508" x1="169.834" y1="123.508" x2="-18.9927" y2="56.8438" gradientUnits="userSpaceOnUse">
<stop stop-opacity="0"/>
<stop offset="0.99"/>
</linearGradient>
<linearGradient id="paint5_linear_1_1508" x1="39.4502" y1="121.824" x2="228.277" y2="55.1597" gradientUnits="userSpaceOnUse">
<stop stop-opacity="0"/>
<stop offset="0.99"/>
</linearGradient>
<linearGradient id="paint6_linear_1_1508" x1="103.558" y1="72.2706" x2="162.051" y2="16.86" gradientUnits="userSpaceOnUse">
<stop stop-color="white" stop-opacity="0"/>
<stop offset="0.76" stop-color="white" stop-opacity="0.76"/>
<stop offset="0.99" stop-color="white"/>
</linearGradient>
<linearGradient id="paint7_linear_1_1508" x1="106.363" y1="109.553" x2="107.132" y2="91.8488" gradientUnits="userSpaceOnUse">
<stop stop-color="white" stop-opacity="0"/>
<stop offset="0.76" stop-color="white" stop-opacity="0.76"/>
<stop offset="0.99" stop-color="white"/>
</linearGradient>
</defs>
</svg>
