<svg width="166" height="232" viewBox="0 0 166 232" fill="none" xmlns="http://www.w3.org/2000/svg">
<path d="M165.052 13.3518H47.4055V40.0109H165.052V13.3518Z" fill="#F3F9FE"/>
<path d="M165.052 50.1702H47.4055V76.8293H165.052V50.1702Z" fill="#F3F9FE"/>
<path d="M165.052 86.9885H47.4055V113.648H165.052V86.9885Z" fill="#F3F9FE"/>
<path d="M165.052 123.807H47.4055V150.466H165.052V123.807Z" fill="#F3F9FE"/>
<path d="M165.052 160.625H47.4055V187.284H165.052V160.625Z" fill="#F3F9FE"/>
<path d="M165.052 197.443H47.4055V224.102H165.052V197.443Z" fill="#F3F9FE"/>
<path d="M51.2758 208.535L52.009 216.161C52.009 216.161 49.0762 220.577 45.2753 220.853C41.4744 221.129 40.1663 219.305 40.1663 219.305L40.7881 208.084" fill="#FBB9AD"/>
<path d="M40.1663 219.316L40.4185 214.817L51.5925 211.82L52.009 216.172C52.009 216.172 49.0762 220.589 45.2753 220.865C41.4744 221.141 40.1663 219.316 40.1663 219.316Z" fill="#F3F9FE"/>
<path d="M15.5852 209.345L14.8344 217.175C14.8344 217.175 17.8318 221.715 21.75 222.003C25.6682 222.29 26.9938 220.413 26.9938 220.413L26.3545 208.887" fill="#FBB9AD"/>
<path d="M26.9938 220.413L26.7416 215.797L15.2626 212.706L14.8344 217.175C14.8344 217.175 17.8318 221.715 21.75 222.003C25.6682 222.29 26.9938 220.413 26.9938 220.413Z" fill="#F3F9FE"/>
<path d="M24.9638 38.0986C24.9638 38.0986 9.81298 45.4189 9.47277 47.8179C9.13257 50.217 11.1855 109.172 11.1855 109.172C11.1855 109.172 16.1009 115.548 31.1638 115.548C46.5903 115.548 50.5613 111.137 51.2476 109.096C51.9338 107.055 54.3974 48.2637 54.0572 45.7474C53.717 43.231 39.7451 38.1221 39.7451 38.1221L24.9638 38.0986Z" fill="#B4E8FF"/>
<path d="M26.4071 43.6182V113.348C26.4071 113.348 33.4165 116.797 41.775 112.609L38.8422 39.2073L31.9853 44.1168L26.4071 43.6182Z" fill="#F2FBFF"/>
<path d="M25.0105 28.9426C25.0105 28.9426 24.899 34.2216 24.9636 38.0988C25.0105 40.9847 25.9959 46.5276 32.1372 46.5276C38.2785 46.5276 38.9999 39.4889 38.8885 38.0988C38.8064 37.1134 39.2873 35.0956 38.8885 31.9516C38.4838 28.5848 25.3507 26.6022 25.0105 28.9426Z" fill="#FBB9AD"/>
<path d="M27.4626 38.6912C28.0879 39.2752 28.8266 39.7245 29.6329 40.011C30.8108 40.4599 32.0691 40.6596 33.3282 40.5975C34.0912 40.5741 34.8383 40.3733 35.5102 40.011C36.2454 39.5358 36.8794 38.9198 37.3755 38.1985C37.9798 37.5101 38.4494 36.7142 38.7597 35.8522C38.8953 35.3567 38.9701 34.8466 38.9826 34.3331C39.0317 33.2426 38.9924 32.15 38.8653 31.0659C35.7214 31.4061 32.5774 31.6525 29.4276 31.8754C27.621 32.0044 24.5122 32.415 25.3217 34.9607C25.7385 36.3525 26.4712 37.6292 27.4626 38.6912Z" fill="url(#paint0_linear_1_1339)"/>
<path d="M11.1865 109.172C11.1865 109.172 10.5002 120.317 12.2189 153.422C13.9375 186.528 14.7939 209.685 14.7939 209.685C14.7939 209.685 15.0167 212.389 20.7122 212.471C26.4077 212.553 27.9211 208.788 27.9211 208.788L33.4875 123.953L39.3003 210.53C39.3003 210.53 46.1396 214.46 51.4714 211.509C55.2547 209.415 51.2544 109.108 51.2544 109.108C51.2544 109.108 32.9772 119.144 11.1865 109.172Z" fill="#3E4957"/>
<path d="M54.0574 45.759C54.0574 45.759 60.9318 74.653 61.4656 79.5683C61.9994 84.4837 57.4594 96.1914 54.6498 95.4054C48.4088 93.6458 49.4059 82.988 49.4059 82.988L54.0574 45.759Z" fill="#B4E8FF"/>
<path d="M58.3753 99.7871C58.5301 99.6142 58.7308 99.4888 58.9541 99.4255C59.1773 99.3621 59.4139 99.3634 59.6365 99.4293C59.86 99.5525 60.056 99.7201 60.2123 99.9218C60.3687 100.124 60.4821 100.355 60.5456 100.602C61.9299 104.122 61.7657 107.242 61.8771 110.861C61.9592 113.407 62.2467 116.228 61.7011 118.739C61.2202 120.956 54.6624 126.505 53.7474 125.842C52.8324 125.179 54.8325 123.291 56.1406 122.182C57.4486 121.073 57.519 118.299 57.7126 117.413C57.9061 116.527 55.7652 116.522 56.34 113.865C56.7682 111.894 57.6246 110.932 57.4779 108.873C57.3027 106.433 57.3833 103.982 57.7184 101.558C57.7578 101.007 57.9266 100.472 58.2111 99.9982C58.2604 99.9238 58.3153 99.8532 58.3753 99.7871Z" fill="#FBB9AD"/>
<path d="M51.2763 90.76C51.1766 91.1999 56.7254 109.436 56.7254 109.436C56.7254 109.436 59.189 109.946 63.0544 108.075C63.0544 108.075 62.3329 82.4719 61.6936 80.6946C61.0542 78.9174 59.8166 79.328 54.0683 81.3633C48.32 83.3987 51.2763 90.76 51.2763 90.76Z" fill="#B4E8FF"/>
<path d="M9.0042 46.6565C9.0042 46.6565 2.12385 75.5504 1.59595 80.4658C1.06804 85.3812 5.59628 97.0889 8.4059 96.3029C14.6469 94.5432 13.6556 83.8796 13.6556 83.8796L9.0042 46.6565Z" fill="#B4E8FF"/>
<path d="M4.68047 100.667C4.52568 100.494 4.32501 100.369 4.10176 100.305C3.87852 100.242 3.64189 100.243 3.41937 100.309C3.19472 100.43 2.99813 100.597 2.84247 100.799C2.68681 101.001 2.57559 101.234 2.51608 101.482C1.12593 105.002 1.29602 108.116 1.17871 111.735C1.10246 114.281 0.815047 117.108 1.35468 119.619C1.83566 121.836 8.3934 127.379 9.3143 126.716C10.2352 126.053 8.2233 124.165 6.91528 123.056C5.60725 121.947 5.53685 119.173 5.34329 118.287C5.14973 117.401 7.29067 117.402 6.71584 114.739C6.28765 112.774 5.43714 111.806 5.57791 109.747C5.75312 107.309 5.67252 104.859 5.33743 102.438C5.29984 101.887 5.13306 101.353 4.85058 100.878C4.8009 100.802 4.74392 100.732 4.68047 100.667Z" fill="#FBB9AD"/>
<path d="M11.7781 91.6516C11.8837 92.0916 6.32898 110.328 6.32898 110.328C6.32898 110.328 3.86543 110.838 0 108.967C0 108.967 0.721473 83.3635 1.36082 81.5863C2.00017 79.809 3.23781 80.2196 8.9861 82.2608C14.7344 84.302 11.7781 91.6516 11.7781 91.6516Z" fill="#B4E8FF"/>
<path d="M20.1189 218.472C17.9662 217.369 15.6083 216.125 13.262 216.712C12.0701 217.074 10.97 217.688 10.036 218.513C8.10618 220.032 6.24091 221.809 5.37867 224.108C4.51643 226.408 4.91529 229.346 6.892 230.813C8.36426 231.91 10.3351 231.986 12.171 231.986C14.4532 232.066 16.7354 231.827 18.9517 231.276C20.6246 230.745 22.2277 230.014 23.7263 229.1C25.4859 228.085 27.2749 226.895 28.1841 225.076C28.8704 223.704 29.017 220.724 27.2925 219.909C26.4772 219.527 25.0108 220.085 24.0137 219.909C22.6474 219.639 21.3327 219.154 20.1189 218.472Z" fill="#B4E8FF"/>
<path d="M46.245 218.472C48.3918 217.369 50.7497 216.125 53.096 216.712C54.2879 217.074 55.388 217.688 56.322 218.513C58.2518 220.032 60.1171 221.809 60.9793 224.108C61.8416 226.408 61.4427 229.346 59.4719 230.813C57.9996 231.91 56.0229 231.986 54.1929 231.986C51.9106 232.066 49.6284 231.827 47.4122 231.276C45.7392 230.745 44.1362 230.014 42.6376 229.1C40.8779 228.085 39.1183 226.895 38.1798 225.076C37.4935 223.704 37.3469 220.724 39.0713 219.909C39.8867 219.527 41.3531 220.085 42.3502 219.909C43.7163 219.639 45.0309 219.154 46.245 218.472Z" fill="#B4E8FF"/>
<path d="M47.6106 65.8782L46.1324 111.196L51.2531 109.108L52.2033 94.7076L50.4026 83.733L47.6106 65.8782Z" fill="url(#paint1_linear_1_1339)"/>
<path d="M20.1479 12.3898C20.2547 18.4206 21.1319 24.4129 22.7581 30.2213C23.0896 31.7037 23.7051 33.108 24.5705 34.3565C25.6161 35.6471 27.0818 36.5295 28.7117 36.8494C30.3214 37.1469 31.9766 37.0909 33.5625 36.6851C35.7376 36.266 37.7144 35.1426 39.1876 33.4884C40.0514 32.3477 40.7103 31.0656 41.135 29.6992C42.7373 25.0787 43.2453 20.1493 42.619 15.2992C42.3081 12.9529 41.6336 10.4835 39.8739 9.02885C38.8147 8.2373 37.5785 7.71586 36.2724 7.50966C31.5816 6.57791 26.7123 7.34511 22.5352 9.67407C21.861 9.99161 21.2824 10.4812 20.8576 11.0935C20.4953 11.8213 20.318 12.6272 20.3415 13.4398" fill="#FBB9AD"/>
<path d="M21.0635 22.7191C20.8758 20.8245 19.9314 19.1059 19.0574 17.4401C18.1835 15.7743 17.3505 13.9207 17.4268 12.0437C17.5031 10.1667 18.7935 8.16071 20.6822 7.93782C21.1573 5.37455 22.4419 2.85821 24.6004 1.41528C27.6975 -0.667011 31.8034 -0.121512 35.3814 0.951892C38.2731 1.82 41.3702 3.29813 42.4553 6.09015C42.7978 7.10331 42.9952 8.1598 43.0419 9.22825C43.3469 13.0174 43.5756 17.1233 41.4816 20.2908C41.5566 17.554 41.2306 14.821 40.5138 12.1786C35.6613 14.1039 30.2792 14.2246 25.3454 12.5188C20.0722 10.6946 20.7409 19.4285 21.0635 22.7191Z" fill="#3E4957"/>
<path d="M154.412 169.397H138.692C137.211 169.397 136.011 170.597 136.011 172.078V179.867C136.011 181.348 137.211 182.548 138.692 182.548H154.412C155.892 182.548 157.092 181.348 157.092 179.867V172.078C157.092 170.597 155.892 169.397 154.412 169.397Z" fill="#B4E8FF"/>
<path d="M147.096 171.934H145.137C144.316 171.934 143.528 171.608 142.947 171.027C142.367 170.446 142.04 169.658 142.04 168.837C142.04 168.015 142.367 167.228 142.947 166.647C143.528 166.066 144.316 165.74 145.137 165.74H147.096C147.918 165.74 148.706 166.066 149.286 166.647C149.867 167.228 150.194 168.015 150.194 168.837C150.194 169.658 149.867 170.446 149.286 171.027C148.706 171.608 147.918 171.934 147.096 171.934ZM145.137 167.828C144.862 167.828 144.598 167.937 144.403 168.132C144.209 168.327 144.099 168.591 144.099 168.866C144.099 169.141 144.209 169.406 144.403 169.6C144.598 169.795 144.862 169.904 145.137 169.904H147.096C147.372 169.904 147.636 169.795 147.831 169.6C148.025 169.406 148.135 169.141 148.135 168.866C148.135 168.591 148.025 168.327 147.831 168.132C147.636 167.937 147.372 167.828 147.096 167.828H145.137Z" fill="#B4E8FF"/>
<path d="M153.796 59.7895V73.1337H149.215V64.7225H145.021V73.1337H139.947V59.7895L146.851 56.1587L153.796 59.7895Z" fill="#B4E8FF"/>
<path d="M138.235 59.7839C138.122 59.7818 138.012 59.7423 137.923 59.6715C137.834 59.6007 137.771 59.5026 137.744 59.3922C137.716 59.2819 137.726 59.1657 137.771 59.0615C137.817 58.9573 137.895 58.871 137.995 58.816L146.793 54.0942L155.568 58.6225C155.628 58.6537 155.681 58.6963 155.724 58.748C155.767 58.7997 155.8 58.8593 155.82 58.9236C155.84 58.9879 155.848 59.0555 155.842 59.1226C155.836 59.1897 155.816 59.2549 155.785 59.3146C155.754 59.3743 155.711 59.4273 155.66 59.4705C155.608 59.5137 155.548 59.5463 155.484 59.5665C155.42 59.5866 155.352 59.5939 155.285 59.5879C155.218 59.582 155.153 59.5628 155.093 59.5316L146.828 55.2556L138.511 59.7252C138.426 59.7688 138.331 59.7891 138.235 59.7839Z" fill="#B4E8FF"/>
<path d="M146.263 107.491C144.598 107.074 139.958 103.866 138.744 100.904C138.473 100.281 138.324 99.6119 138.304 98.9329C138.343 97.9896 138.693 97.0856 139.298 96.3612C139.904 95.6368 140.732 95.1326 141.653 94.9267C142.595 94.7255 143.577 94.8257 144.459 95.2131C145.341 95.6004 146.079 96.2554 146.568 97.0853C147.116 96.2018 147.941 95.5251 148.915 95.1614C151.566 94.2111 153.502 96.7568 153.607 97.5428C154.44 104.153 146.263 107.491 146.263 107.491Z" fill="#B4E8FF"/>
<path d="M146.428 147.331V144.838C145.09 144.832 143.78 144.455 142.645 143.747L143.231 142.093C144.292 142.78 145.528 143.149 146.792 143.155C148.551 143.155 149.724 142.14 149.724 140.732C149.724 139.324 148.762 138.532 146.932 137.799C144.41 136.808 142.856 135.67 142.856 133.523C142.856 131.47 144.316 129.916 146.586 129.546V127.048H148.117V129.447C149.245 129.455 150.351 129.752 151.331 130.309L150.716 131.94C149.773 131.381 148.696 131.091 147.601 131.101C145.695 131.101 144.979 132.239 144.979 133.23C144.979 134.509 145.894 135.154 148.047 136.045C150.592 137.084 151.877 138.392 151.877 140.568C151.877 142.515 150.516 144.345 147.97 144.768V147.337L146.428 147.331Z" fill="#B4E8FF"/>
<path d="M142.91 35.6646C147.165 35.5356 151.417 35.5082 155.668 35.5825C155.884 34.2103 155.682 32.8047 155.088 31.5491C154.494 30.2935 153.535 29.2461 152.336 28.5438C151.749 28.2036 151.022 27.881 150.834 27.2181C150.647 26.5553 151.046 25.9512 151.251 25.3294C151.463 24.7036 151.481 24.0286 151.303 23.3924C151.125 22.7562 150.759 22.1884 150.254 21.7631C149.731 21.3603 149.084 21.1528 148.424 21.1764C147.764 21.1999 147.133 21.4531 146.641 21.8922C146.238 22.311 145.946 22.8229 145.79 23.382C145.428 24.4306 145.487 25.5785 145.954 26.5847C146.224 26.953 146.382 27.3904 146.412 27.8458C146.365 28.3326 145.943 28.6787 145.585 29.0189C144.696 29.8755 143.998 30.9104 143.537 32.0557C143.076 33.2011 142.862 34.4309 142.91 35.6646Z" fill="#B4E8FF"/>
<path d="M153.708 219.972H138.622V202.563L151.292 202.54L153.708 205.056V219.972Z" fill="#B4E8FF"/>
<path d="M150.611 208.858H142.006V210.5H150.611V208.858Z" fill="url(#paint2_linear_1_1339)"/>
<path d="M150.611 214.155H142.006V215.797H150.611V214.155Z" fill="url(#paint3_linear_1_1339)"/>
<path opacity="0.24" d="M130.592 25.7778H77.5025C76.1419 25.7778 75.039 26.8808 75.039 28.2414V28.2472C75.039 29.6078 76.1419 30.7108 77.5025 30.7108H130.592C131.953 30.7108 133.056 29.6078 133.056 28.2472V28.2414C133.056 26.8808 131.953 25.7778 130.592 25.7778Z" fill="#B4E8FF"/>
<path opacity="0.24" d="M130.592 62.6033H77.5025C76.1419 62.6033 75.039 63.7062 75.039 65.0668V65.0727C75.039 66.4333 76.1419 67.5362 77.5025 67.5362H130.592C131.953 67.5362 133.056 66.4333 133.056 65.0727V65.0668C133.056 63.7062 131.953 62.6033 130.592 62.6033Z" fill="#B4E8FF"/>
<path opacity="0.24" d="M130.592 98.5081H77.5025C76.1419 98.5081 75.039 99.611 75.039 100.972V100.977C75.039 102.338 76.1419 103.441 77.5025 103.441H130.592C131.953 103.441 133.056 102.338 133.056 100.977V100.972C133.056 99.611 131.953 98.5081 130.592 98.5081Z" fill="#B4E8FF"/>
<path opacity="0.24" d="M130.592 134.413H77.5025C76.1419 134.413 75.039 135.516 75.039 136.876V136.882C75.039 138.243 76.1419 139.346 77.5025 139.346H130.592C131.953 139.346 133.056 138.243 133.056 136.882V136.876C133.056 135.516 131.953 134.413 130.592 134.413Z" fill="#B4E8FF"/>
<path opacity="0.24" d="M130.592 173.079H77.5025C76.1419 173.079 75.039 174.182 75.039 175.543V175.549C75.039 176.909 76.1419 178.012 77.5025 178.012H130.592C131.953 178.012 133.056 176.909 133.056 175.549V175.543C133.056 174.182 131.953 173.079 130.592 173.079Z" fill="#B4E8FF"/>
<path opacity="0.24" d="M130.592 208.984H77.5025C76.1419 208.984 75.039 210.087 75.039 211.448V211.454C75.039 212.814 76.1419 213.917 77.5025 213.917H130.592C131.953 213.917 133.056 212.814 133.056 211.454V211.448C133.056 210.087 131.953 208.984 130.592 208.984Z" fill="#B4E8FF"/>
<defs>
<linearGradient id="paint0_linear_1_1339" x1="31.7034" y1="41.3835" x2="33.8796" y2="1.17484" gradientUnits="userSpaceOnUse">
<stop stop-color="#010101" stop-opacity="0"/>
<stop offset="0.95" stop-color="#010101"/>
</linearGradient>
<linearGradient id="paint1_linear_1_1339" x1="43.2231" y1="88.7364" x2="103.738" y2="85.3871" gradientUnits="userSpaceOnUse">
<stop stop-color="#010101" stop-opacity="0"/>
<stop offset="0.95" stop-color="#010101"/>
</linearGradient>
<linearGradient id="paint2_linear_1_1339" x1="142.006" y1="209.679" x2="150.617" y2="209.679" gradientUnits="userSpaceOnUse">
<stop stop-color="white" stop-opacity="0"/>
<stop offset="0.13" stop-color="white" stop-opacity="0.23"/>
<stop offset="0.23" stop-color="white" stop-opacity="0.41"/>
<stop offset="0.35" stop-color="white" stop-opacity="0.59"/>
<stop offset="0.48" stop-color="white" stop-opacity="0.74"/>
<stop offset="0.6" stop-color="white" stop-opacity="0.85"/>
<stop offset="0.72" stop-color="white" stop-opacity="0.93"/>
<stop offset="0.84" stop-color="white" stop-opacity="0.98"/>
<stop offset="0.95" stop-color="white"/>
</linearGradient>
<linearGradient id="paint3_linear_1_1339" x1="142.006" y1="214.976" x2="150.617" y2="214.976" gradientUnits="userSpaceOnUse">
<stop stop-color="white" stop-opacity="0"/>
<stop offset="0.13" stop-color="white" stop-opacity="0.23"/>
<stop offset="0.23" stop-color="white" stop-opacity="0.41"/>
<stop offset="0.35" stop-color="white" stop-opacity="0.59"/>
<stop offset="0.48" stop-color="white" stop-opacity="0.74"/>
<stop offset="0.6" stop-color="white" stop-opacity="0.85"/>
<stop offset="0.72" stop-color="white" stop-opacity="0.93"/>
<stop offset="0.84" stop-color="white" stop-opacity="0.98"/>
<stop offset="0.95" stop-color="white"/>
</linearGradient>
</defs>
</svg>
