<svg width="203" height="241" viewBox="0 0 203 241" fill="none" xmlns="http://www.w3.org/2000/svg">
<rect x="35.8398" width="158.516" height="141.975" rx="5" fill="#F3F9FE"/>
<path d="M183.502 10.2054L182.773 9.47656L179.884 12.366L176.994 9.47656L176.265 10.2054L179.155 13.0949L176.265 15.9843L176.994 16.7132L179.884 13.8237L182.773 16.7132L183.502 15.9843L180.613 13.0949L183.502 10.2054Z" fill="#B4E8FF"/>
<path opacity="0.18" d="M83.8151 39.715C83.788 44.7802 81.7549 49.628 78.1618 53.1952C74.5686 56.7625 69.7086 58.7581 64.6474 58.7446C59.5863 58.731 54.737 56.7093 51.163 53.1228C47.589 49.5363 45.582 44.6777 45.582 39.6124C45.582 34.5471 47.589 29.6886 51.163 26.1021C54.737 22.5156 59.5863 20.4939 64.6474 20.4803C69.7086 20.4667 74.5686 22.4624 78.1618 26.0296C81.7549 29.5969 83.788 34.4446 83.8151 39.5098V39.715Z" fill="#B4E8FF"/>
<path opacity="0.34" d="M64.0953 43.7671C67.2372 43.7671 69.7842 41.2181 69.7842 38.0736C69.7842 34.9292 67.2372 32.3801 64.0953 32.3801C60.9534 32.3801 58.4064 34.9292 58.4064 38.0736C58.4064 41.2181 60.9534 43.7671 64.0953 43.7671Z" fill="#B4E8FF"/>
<path opacity="0.34" d="M76.486 54.8465C72.9553 57.6194 68.5662 59.0682 64.0799 58.9418C59.5936 58.8153 55.293 57.1215 51.9239 54.154C52.7825 51.525 54.4675 49.2444 56.7274 47.6523C58.9872 46.0603 61.7008 45.2421 64.4633 45.32C67.2259 45.3979 69.8891 46.3676 72.0559 48.0845C74.2226 49.8013 75.7766 52.1733 76.486 54.8465Z" fill="#B4E8FF"/>
<path opacity="0.18" d="M183.897 24.699H102.856V29.6616H183.897V24.699Z" fill="#B4E8FF"/>
<path opacity="0.18" d="M183.897 33.5085H102.856V38.4711H183.897V33.5085Z" fill="#B4E8FF"/>
<path opacity="0.18" d="M183.897 42.3181H102.856V47.2807H183.897V42.3181Z" fill="#B4E8FF"/>
<path opacity="0.18" d="M183.328 74.4336H46.8664V79.9472H183.328V74.4336Z" fill="#B4E8FF"/>
<path opacity="0.18" d="M183.328 82.7039H46.8664V88.2175H183.328V82.7039Z" fill="#B4E8FF"/>
<path opacity="0.18" d="M183.328 92.3528H46.8664V97.8664H183.328V92.3528Z" fill="#B4E8FF"/>
<path opacity="0.18" d="M183.897 51.1277H102.856V56.0903H183.897V51.1277Z" fill="#B4E8FF"/>
<path d="M109.962 175.856L177.357 206.632C178.79 207.284 180.422 207.342 181.897 206.791C183.372 206.241 184.568 205.128 185.224 203.695L202.457 165.906C202.789 165.203 202.972 164.439 202.996 163.661C203.04 162.484 202.736 161.32 202.12 160.316C201.504 159.312 200.605 158.512 199.536 158.019L132.141 127.244C131.433 126.901 130.664 126.704 129.88 126.664C129.095 126.623 128.31 126.74 127.571 127.008C126.832 127.276 126.154 127.688 125.576 128.222C124.999 128.756 124.535 129.4 124.21 130.116L106.964 167.932C106.637 168.641 106.453 169.408 106.423 170.189C106.393 170.97 106.517 171.749 106.788 172.482C107.06 173.214 107.473 173.886 108.004 174.459C108.536 175.031 109.175 175.493 109.885 175.818L109.962 175.856Z" fill="#B4E8FF"/>
<path d="M109.962 175.856L177.357 206.632C178.79 207.284 180.422 207.342 181.897 206.791C183.372 206.241 184.568 205.128 185.224 203.695L202.457 165.906C202.789 165.203 202.972 164.439 202.996 163.661C203.04 162.484 202.736 161.32 202.12 160.316C201.504 159.312 200.605 158.512 199.536 158.019L132.141 127.244C131.433 126.901 130.664 126.704 129.88 126.664C129.095 126.623 128.31 126.74 127.571 127.008C126.832 127.276 126.154 127.688 125.576 128.222C124.999 128.756 124.535 129.4 124.21 130.116L106.964 167.932C106.637 168.641 106.453 169.408 106.423 170.189C106.393 170.97 106.517 171.749 106.788 172.482C107.06 173.214 107.473 173.886 108.004 174.459C108.536 175.031 109.175 175.493 109.885 175.818L109.962 175.856Z" fill="#47B7E7"/>
<path d="M106.847 174.446L174.243 205.222C175.674 205.875 177.305 205.934 178.78 205.386C180.254 204.838 181.452 203.728 182.11 202.298L199.343 164.495C199.667 163.794 199.85 163.036 199.881 162.264C199.925 161.085 199.618 159.92 199 158.916C198.382 157.911 197.48 157.113 196.409 156.622L129.026 125.846C127.594 125.194 125.961 125.136 124.486 125.687C123.011 126.237 121.815 127.351 121.159 128.783L103.913 166.585C103.262 168.017 103.205 169.65 103.755 171.123C104.305 172.597 105.417 173.792 106.847 174.446Z" fill="#B4E8FF"/>
<path d="M202.175 160.404L181.534 106.137L123.367 126.124L196.909 169.855L202.175 160.404Z" fill="#B4E8FF"/>
<path d="M123.367 126.123L145.043 172.112L202.201 160.43L181.559 106.162C181.559 106.162 124.904 125.328 123.367 126.123Z" fill="url(#paint0_linear_1_1419)"/>
<path d="M164.685 168.56L170.194 203.375L106.861 174.446L137.483 155.57L145.017 172.086L164.685 168.56Z" fill="#A8E0F9"/>
<path d="M7.0483 235.741C5.90796 236.613 4.90855 238.113 5.51076 239.434C6.11296 240.755 7.74018 240.934 9.12397 240.973C14.3575 241.109 19.5894 240.644 24.7172 239.588C24.8697 239.574 25.0136 239.511 25.1272 239.408C25.2301 239.277 25.2804 239.113 25.2681 238.946C25.6481 235.755 25.8108 232.542 25.755 229.329C22.9362 228.534 19.6689 229.496 17.1448 230.791C13.9031 232.394 9.93118 233.509 7.0483 235.741Z" fill="#B4E8FF"/>
<path d="M60.3235 233.804C61.4638 234.689 62.476 236.19 61.8738 237.498C61.2716 238.805 59.6316 239.011 58.2478 239.036C53.0126 239.166 47.7799 238.689 42.6546 237.613C42.5021 237.599 42.3582 237.536 42.2446 237.433C42.1522 237.298 42.1071 237.136 42.1165 236.972C41.7237 233.782 41.561 230.568 41.6296 227.354C44.4484 226.547 47.7157 227.521 50.2398 228.816C53.4814 230.47 57.4406 231.586 60.3235 233.804Z" fill="#B4E8FF"/>
<path d="M17.9897 143.208V230.214C17.9897 230.214 22.833 231.945 25.7799 230.214L34.9283 156.916L41.3347 229.008C41.3347 229.008 46.4598 230.214 50.3036 228.483L54.1475 142.567C54.1475 142.567 31.4432 137.451 17.9897 143.208Z" fill="#3E4857"/>
<path d="M83.9762 95.968C81.5289 105.803 81.5674 110.612 77.8388 120.037C76.8394 122.602 75.2763 125.423 72.5856 125.743C70.5355 125.987 68.6521 124.615 67.0248 123.333C62.5574 119.768 58.0772 116.203 53.5842 112.638C53.131 123.279 53.4736 133.939 54.6092 144.529C48.4078 147.799 41.8733 151.146 34.8647 150.941C30.4605 150.629 26.1599 149.457 22.2056 147.492C21.2447 147.081 20.3093 146.658 19.374 146.209C19.033 146.094 18.734 145.88 18.5155 145.594C17.2342 143.593 17.8365 138.567 17.7339 136.194C17.5802 132.578 17.4008 128.949 17.2214 125.32C17.1446 124.038 17.0805 122.845 16.9908 121.602C16.6705 115.716 16.2989 109.855 15.7095 103.97C15.812 104.983 14.7998 106.804 14.4282 107.817C13.9542 109.407 13.4801 111.022 12.9932 112.625C12.471 114.084 12.043 115.574 11.7119 117.088C11.43 118.921 12.3141 120.678 12.1988 122.563C12.1909 123.351 12.0019 124.126 11.6464 124.829C11.2909 125.531 10.7784 126.143 10.1488 126.615C8.16278 127.898 5.56178 127.103 3.39642 126.179C2.18581 125.821 1.13298 125.062 0.411033 124.025C-0.060877 122.85 -0.128495 121.55 0.218839 120.332C1.22166 113.51 2.99698 106.825 5.51053 100.405C7.67589 94.7882 9.80282 88.6587 15.7608 86.1454C18.8487 84.8631 22.5259 84.7733 25.8316 84.7092L37.4657 84.4784C41.1567 84.2179 44.8659 84.5075 48.4719 85.3375C53.1998 86.6199 56.1596 90.1591 58.8374 94.0701C62.1688 98.9771 65.2951 104.029 68.2164 109.227C70.2921 102.315 70.0743 100.533 72.5856 93.7752C76.4512 94.0866 80.271 94.8219 83.9762 95.968Z" fill="#B4E8FF"/>
<path d="M34.3645 123.461C33.7214 124.307 32.8892 124.99 31.9346 125.455C30.9799 125.92 29.9296 126.155 28.8678 126.141C27.1529 126.204 25.4424 126.354 23.7426 126.59C23.2744 126.64 22.8301 126.822 22.4614 127.115C22.1963 127.443 22.0159 127.83 21.936 128.244C20.3344 134.232 21.7951 140.554 22.3076 146.722C22.359 146.976 22.3322 147.24 22.2307 147.479C21.2698 147.068 20.3344 146.645 19.3991 146.196C19.0581 146.081 18.7592 145.867 18.5407 145.581C17.2594 143.58 17.8616 138.554 17.7591 136.181C17.6053 132.565 17.4259 128.936 17.2466 125.307C17.1697 124.025 17.1056 122.832 17.0159 121.589C17.3106 121.512 17.6181 121.46 17.9128 121.409L26.1771 119.999C28.2143 119.64 31.3022 118.434 33.3394 119.204C35.3767 119.973 35.3126 121.935 34.3645 123.461Z" fill="url(#paint1_linear_1_1419)"/>
<path d="M25.4856 84.6707C27.4332 82.9524 29.227 79.7851 28.8682 77.0922C28.5094 74.3993 26.5491 71.5654 25.4087 69.0136C24.8322 67.7313 24.2556 66.154 24.9475 64.8974C25.3613 64.3358 25.8291 63.8161 26.3441 63.3458C27.5229 62.0634 27.8432 60.1912 28.6248 58.614C29.2526 57.3877 30.1771 56.3382 31.314 55.561C32.4509 54.7838 33.764 54.3037 35.1337 54.1643C36.5069 54.0643 37.8818 54.3352 39.1147 54.9488C40.3476 55.5623 41.3932 56.496 42.1423 57.6523C42.8331 58.8892 43.2974 60.2398 43.5132 61.6403C44.239 65.3712 44.2868 69.2025 43.6542 72.9503C43.4743 74.2498 43.0388 75.5006 42.3729 76.6306C42.0392 77.1908 41.5769 77.6633 41.0243 78.0089C40.4717 78.3546 39.8447 78.5634 39.1953 78.6182C38.5162 78.6182 37.7347 78.4643 37.2606 78.9388C37.0446 79.172 36.9098 79.4689 36.8762 79.7851C36.6985 80.6984 36.8105 81.6444 37.1965 82.4908C37.6485 83.5608 37.9752 84.6796 38.1703 85.8248C38.4266 87.043 38.5931 88.5048 37.6578 89.3127C37.0717 89.7261 36.3615 89.9253 35.6462 89.8769C33.6635 89.8661 31.7111 89.3893 29.9463 88.485C28.1815 87.5807 26.6535 86.2742 25.4856 84.6707Z" fill="#FBB9AD"/>
<path d="M38.2729 106.265L47.0369 78.041L6.52277 88.1072L28.7017 119.011L38.2729 106.265Z" fill="url(#paint2_linear_1_1419)"/>
<path d="M46.3441 51.3175C46.1037 50.4413 45.635 49.6448 44.986 49.0094C44.0793 48.0968 42.9468 47.4415 41.7042 47.1103C40.4616 46.7792 39.1534 46.784 37.9133 47.1244C36.7345 47.4578 35.6454 48.0989 34.4795 48.4964C32.4321 48.9577 30.3486 49.2409 28.2524 49.3428C26.1768 49.6377 23.9602 50.484 22.9864 52.3434C22.4906 53.6384 22.1884 54.9995 22.0895 56.3827C21.3976 59.9091 18.8735 63.4098 20.1676 66.7695C21.4617 70.1292 26.369 72.7066 28.3806 75.5277C28.8931 74.3223 28.2781 71.9116 27.7527 70.7062C27.3124 70.7275 26.877 70.6053 26.512 70.3579C26.147 70.1105 25.872 69.7513 25.7283 69.3341C25.3379 68.6959 25.1215 67.9664 25.1005 67.2183C25.0544 66.8458 25.0978 66.4676 25.227 66.1153C25.3563 65.7629 25.5677 65.4464 25.8436 65.1922C26.1967 65.0298 26.5967 65.0014 26.9692 65.1123C27.3416 65.2232 27.6611 65.4658 27.8681 65.7949C28.2612 66.4734 28.473 67.2419 28.4831 68.0262C31.0456 65.5769 28.2396 60.6144 30.5459 57.9087C32.3121 58.5514 34.1238 59.0615 35.9658 59.4346C37.9146 59.6059 39.8773 59.3521 41.7187 58.6909C44.3197 57.6907 47.036 54.2156 46.3441 51.3175Z" fill="#3E4857"/>
<path d="M5.46005 116.485C4.2518 116.986 3.20851 117.817 2.44905 118.883C2.00972 119.628 1.77057 120.474 1.75486 121.34C1.73914 122.205 1.94739 123.059 2.35936 123.82C2.78692 124.57 3.3614 125.225 4.04833 125.748C4.73526 126.27 5.5205 126.648 6.35696 126.859C8.76577 127.5 11.3155 126.859 13.7371 126.243L22.3858 124.012C22.6178 123.976 22.8328 123.869 23.0008 123.704C23.0762 123.555 23.1155 123.391 23.1155 123.224C23.1155 123.056 23.0762 122.892 23.0008 122.743C22.4498 120.64 22.0911 118.357 21.3351 116.331C20.6561 114.536 19.8488 114.549 17.9525 114.497C13.8012 114.42 9.27827 114.613 5.46005 116.485Z" fill="#B4E8FF"/>
<path d="M77.1976 97.0322C77.5641 97.056 77.9295 96.9713 78.2482 96.7886C78.4775 96.617 78.6621 96.3927 78.7864 96.1346C79.3624 95.1358 79.6713 94.0051 79.6833 92.8519C79.642 92.2908 79.6983 91.7267 79.8498 91.1849C80.024 90.8307 80.2344 90.4955 80.4777 90.1847C81.3601 88.4999 81.6704 86.5733 81.3617 84.6963C81.3608 83.9797 81.2216 83.27 80.9517 82.6062C80.6931 82.1069 80.3305 81.6688 79.8885 81.3216C79.4465 80.9743 78.9352 80.7258 78.3892 80.5929C77.2956 80.3259 76.1693 80.218 75.045 80.2723C74.3195 80.2079 73.5892 80.3224 72.9181 80.6057C71.9443 81.093 71.4318 83.2858 71.2396 84.2988C70.9377 85.9674 71.2617 87.6888 72.1493 89.1332C72.441 89.5335 72.6901 89.9633 72.8925 90.4155C73.4306 91.8773 72.1621 93.9675 73.0975 95.237C73.6277 95.7935 74.2633 96.2388 74.9673 96.547C75.6712 96.8552 76.4293 97.0202 77.1976 97.0322Z" fill="#FBB9AD"/>
<path d="M92.3518 60.6494L94.1739 90.8386C93.1523 89.6833 93.5717 91.2281 92.3518 90.285C87.199 86.181 79.3302 81.2184 72.7508 80.9391C71.5882 80.9191 70.4547 80.5716 69.4803 79.9366C68.5058 79.3016 67.7299 78.4046 67.2413 77.3486C66.7672 76.2783 66.5859 75.1011 66.716 73.9376C66.9496 72.4694 67.7117 71.1373 68.8587 70.1925C70.0057 69.2477 71.4584 68.7554 72.943 68.8083C76.4025 68.6673 81.3712 67.7406 92.3518 60.6494Z" fill="#B4E8FF"/>
<path d="M74.6741 80.0034H79.1201V83.9145C79.1201 84.5063 78.8852 85.0738 78.4671 85.4922C78.049 85.9106 77.482 86.1457 76.8907 86.1457C76.2994 86.1457 75.7324 85.9106 75.3143 85.4922C74.8962 85.0738 74.6613 84.5063 74.6613 83.9145V80.0034H74.6741Z" fill="#B4E8FF"/>
<path d="M92.3515 90.285C87.1987 86.181 79.3304 81.1543 72.751 80.8749C71.5883 80.8549 70.4548 80.5075 69.4804 79.8725C68.506 79.2374 67.73 78.3405 67.2415 77.2844C67.408 77.4639 69.3171 79.2849 74.6857 78.3744C80.3233 77.4127 88.1135 80.2722 88.1135 80.2722L92.3515 90.285Z" fill="url(#paint3_linear_1_1419)"/>
<path d="M33.5325 120.832H28.1255C27.9269 120.841 27.7285 120.81 27.5418 120.742C27.3551 120.674 27.1836 120.569 27.0372 120.435C26.8909 120.3 26.7724 120.138 26.6887 119.957C26.605 119.777 26.5577 119.582 26.5495 119.383C26.5182 119.214 26.5182 119.04 26.5495 118.87L29.1121 107.547C29.243 107.004 29.548 106.518 29.9806 106.163C30.4131 105.809 30.9495 105.606 31.508 105.585H36.9022C37.1025 105.579 37.3021 105.611 37.4897 105.682C37.6774 105.752 37.8493 105.859 37.9956 105.996C38.142 106.133 38.26 106.297 38.3428 106.48C38.4256 106.662 38.4716 106.86 38.4782 107.06C38.5041 107.221 38.5041 107.386 38.4782 107.547L35.9156 118.87C35.7853 119.412 35.4822 119.896 35.0522 120.25C34.6222 120.604 34.0887 120.809 33.5325 120.832Z" fill="#3E4857"/>
<path d="M26.2806 112.638C26.4467 112.37 26.6353 112.117 26.8444 111.882C27.1317 111.587 27.5225 111.417 27.9335 111.407C27.9771 111.403 28.0211 111.408 28.0629 111.421C28.1046 111.434 28.1434 111.456 28.1769 111.484C28.2135 111.543 28.2395 111.608 28.2538 111.676C28.3179 112.048 28.3435 112.42 28.4332 112.779C28.5057 113.149 28.6942 113.486 28.9713 113.741C29.5479 114.215 30.6626 113.908 31.3289 113.831L34.1477 113.51C34.4336 113.434 34.7329 113.424 35.0234 113.479C35.314 113.535 35.5883 113.655 35.8262 113.831C36.3771 114.369 36.1337 115.28 35.8262 115.998C34.9677 118.126 33.8402 120.447 31.6876 121.255C29.1251 122.23 26.255 120.653 23.5515 121.076C22.0396 121.307 20.3611 121.884 19.4642 120.204C19.202 119.748 19.077 119.225 19.1043 118.7C19.1316 118.174 19.31 117.668 19.618 117.242C20.4481 116.509 21.4087 115.939 22.4496 115.562C23.3226 115.102 24.1505 114.561 24.9225 113.946C25.3293 113.63 25.7105 113.283 26.0628 112.907L26.2806 112.638Z" fill="#FBB9AD"/>
<path d="M95.241 91.4163C99.8086 91.4163 103.511 84.3193 103.511 75.5647C103.511 66.8101 99.8086 59.7131 95.241 59.7131C90.6734 59.7131 86.9706 66.8101 86.9706 75.5647C86.9706 84.3193 90.6734 91.4163 95.241 91.4163Z" fill="#B4E8FF"/>
<path d="M95.241 91.4163C99.8086 91.4163 103.511 84.3193 103.511 75.5647C103.511 66.8101 99.8086 59.7131 95.241 59.7131C90.6734 59.7131 86.9706 66.8101 86.9706 75.5647C86.9706 84.3193 90.6734 91.4163 95.241 91.4163Z" fill="url(#paint4_linear_1_1419)"/>
<path d="M87.6902 69.3621L95.241 71.6768V78.5688L87.6224 81.7677C86.731 77.6721 86.7541 73.4489 87.6902 69.3621Z" fill="url(#paint5_linear_1_1419)"/>
<path d="M95.1093 78.5688C95.8706 78.5688 96.4877 77.0259 96.4877 75.1228C96.4877 73.2196 95.8706 71.6768 95.1093 71.6768C94.348 71.6768 93.7309 73.2196 93.7309 75.1228C93.7309 77.0259 94.348 78.5688 95.1093 78.5688Z" fill="#B4E8FF"/>
<defs>
<linearGradient id="paint0_linear_1_1419" x1="140.161" y1="191.552" x2="252.357" y2="-44.8373" gradientUnits="userSpaceOnUse">
<stop offset="0.01" stop-color="#41B4E6"/>
<stop offset="0.08" stop-color="#41B4E6"/>
<stop offset="0.21" stop-color="#41B4E6" stop-opacity="0.32"/>
<stop offset="1" stop-color="#B4E8FF" stop-opacity="0"/>
</linearGradient>
<linearGradient id="paint1_linear_1_1419" x1="-7.71277" y1="112.497" x2="62.8897" y2="154.174" gradientUnits="userSpaceOnUse">
<stop offset="0.01"/>
<stop offset="0.08" stop-opacity="0.69"/>
<stop offset="0.21" stop-opacity="0.32"/>
<stop offset="1" stop-opacity="0"/>
</linearGradient>
<linearGradient id="paint2_linear_1_1419" x1="34.98" y1="124.166" x2="27.3188" y2="85.904" gradientUnits="userSpaceOnUse">
<stop offset="0.01" stop-color="white"/>
<stop offset="1" stop-color="white" stop-opacity="0"/>
</linearGradient>
<linearGradient id="paint3_linear_1_1419" x1="79.3111" y1="99.2506" x2="78.5924" y2="57.729" gradientUnits="userSpaceOnUse">
<stop offset="0.01"/>
<stop offset="0.08" stop-opacity="0.69"/>
<stop offset="0.21" stop-opacity="0.32"/>
<stop offset="1" stop-opacity="0"/>
</linearGradient>
<linearGradient id="paint4_linear_1_1419" x1="64.3819" y1="60.8863" x2="160.088" y2="107.357" gradientUnits="userSpaceOnUse">
<stop offset="0.01"/>
<stop offset="0.08" stop-opacity="0.69"/>
<stop offset="0.21" stop-opacity="0.32"/>
<stop offset="1" stop-opacity="0"/>
</linearGradient>
<linearGradient id="paint5_linear_1_1419" x1="57.9752" y1="65.6277" x2="145.104" y2="98.596" gradientUnits="userSpaceOnUse">
<stop offset="0.01"/>
<stop offset="0.08" stop-opacity="0.69"/>
<stop offset="0.21" stop-opacity="0.32"/>
<stop offset="1" stop-opacity="0"/>
</linearGradient>
</defs>
</svg>
