<svg width="166" height="249" viewBox="0 0 166 249" fill="none" xmlns="http://www.w3.org/2000/svg">
<path d="M102.492 31.1602L94.7235 28.7202L96.846 10.439H97.4684C98.2403 9.81658 100.494 7.12139 99.8898 5.12334C99.3482 3.29335 96.4352 2.55886 94.0761 2.25386C90.7274 1.8306 88.5364 2.21029 87.7334 3.34314C86.6566 4.87436 88.0757 7.75006 88.7169 8.7273L88.8849 8.9825L87.7147 26.6537L79.0938 24.276L79.5794 22.5269L85.8225 24.276L86.806 9.33729C86.1835 8.32271 84.3162 4.71875 85.9906 2.30988C87.2354 0.542139 89.9991 -0.0865315 94.2193 0.442547C100.811 1.28285 102.075 4.00916 101.981 6.15037C101.888 8.29159 100.076 10.9183 98.7133 11.8955L96.902 27.4567L103.052 29.3863L102.492 31.1602Z" fill="url(#paint0_linear_1_1383)"/>
<path d="M166 248.431H9.7226L0 240.426L9.7226 29.6414L156.277 21.6367L166 29.6414V248.431Z" fill="#B4E8FF"/>
<path d="M160.852 244.616H5.21664L0 240.426L5.14762 28.8822L156.105 21.7234L162.748 27.4173L160.852 244.616Z" fill="#D8F3FF"/>
<path d="M0.25 240.176V21.8867H156.027V240.176H0.25Z" fill="white" stroke="#B4E8FF" stroke-width="0.5"/>
<path d="M49.2472 36.8618C49.1662 37.4158 49.1289 38.1067 49.5771 38.4179C49.8213 38.5651 50.1011 38.6426 50.3862 38.642C64.7827 39.8877 79.2831 39.083 93.4532 36.2518C95.7874 35.785 98.6133 34.7144 98.7814 32.3429C98.937 30.239 96.914 27.6683 98.5448 26.3487C99.1563 25.9823 99.8549 25.7867 100.568 25.7823C101.861 25.5936 103.096 25.1205 104.184 24.3973C105.272 23.674 106.186 22.7185 106.861 21.5995L65.9972 21.2696C62.026 21.2384 54.7932 19.5703 51.9548 23.1369C49.7576 25.8694 49.2472 33.6127 49.2472 36.8618Z" fill="#F3F9FE"/>
<path d="M94.5311 31.2599H52.2235L49.3602 4.96162L91.9542 4.67529L94.5311 31.2599Z" fill="#B4E8FF"/>
<path d="M91.9533 4.67529L107.683 12.4932L105.392 21.6369H93.7647L91.9533 4.67529Z" fill="#B4E8FF"/>
<path d="M91.9533 4.67529L107.683 12.4932L105.392 21.6369H93.7647L91.9533 4.67529Z" fill="url(#paint1_linear_1_1383)"/>
<path d="M82.487 30.849L74.3454 30.5316L71.5319 10.2025L72.117 10.0531C72.6959 9.14433 74.1524 5.58394 73.0382 3.60456C72.0299 1.79947 69.0235 1.86794 66.6768 2.24763C63.3343 2.78293 61.3176 3.84109 60.8508 5.30384C60.2283 7.27076 62.3508 9.94728 63.2223 10.8125L63.4526 11.0366L67.0192 30.4195H58.0809V28.3903H64.5854L61.5728 12.02C60.7263 11.105 57.9315 7.79362 58.9212 4.68761C59.6432 2.41569 62.1454 0.921818 66.3905 0.243352C72.9635 -0.808581 74.9056 1.74967 75.3911 4.09007C75.8766 6.43046 74.8184 9.79167 73.7665 11.2482L76.1567 28.5646L82.599 28.8198L82.487 30.849Z" fill="url(#paint2_linear_1_1383)"/>
<path d="M71.6617 54.9875H23.6338V115.595H71.6617V54.9875Z" fill="#B4E8FF"/>
<path d="M135.127 63.3779H89.0037C87.6355 63.3779 86.5263 64.4871 86.5263 65.8553C86.5263 67.2235 87.6355 68.3326 89.0037 68.3326H135.127C136.495 68.3326 137.604 67.2235 137.604 65.8553C137.604 64.4871 136.495 63.3779 135.127 63.3779Z" fill="#F3F9FE"/>
<path d="M135.127 74.2397H89.0037C87.6355 74.2397 86.5263 75.3489 86.5263 76.7171C86.5263 78.0853 87.6355 79.1944 89.0037 79.1944H135.127C136.495 79.1944 137.604 78.0853 137.604 76.7171C137.604 75.3489 136.495 74.2397 135.127 74.2397Z" fill="#F3F9FE"/>
<path d="M135.127 90.0562H89.0037C87.6355 90.0562 86.5263 91.1653 86.5263 92.5335C86.5263 93.9017 87.6355 95.0108 89.0037 95.0108H135.127C136.495 95.0108 137.604 93.9017 137.604 92.5335C137.604 91.1653 136.495 90.0562 135.127 90.0562Z" fill="#F3F9FE"/>
<path d="M135.127 100.918H89.0037C87.6355 100.918 86.5263 102.027 86.5263 103.395C86.5263 104.763 87.6355 105.872 89.0037 105.872H135.127C136.495 105.872 137.604 104.763 137.604 103.395C137.604 102.027 136.495 100.918 135.127 100.918Z" fill="#F3F9FE"/>
<path d="M105.966 151.236H59.8428C58.4746 151.236 57.3654 152.345 57.3654 153.713C57.3654 155.082 58.4746 156.191 59.8428 156.191H105.966C107.334 156.191 108.443 155.082 108.443 153.713C108.443 152.345 107.334 151.236 105.966 151.236Z" fill="#F3F9FE"/>
<path d="M105.966 162.098H59.8428C58.4746 162.098 57.3654 163.207 57.3654 164.575C57.3654 165.943 58.4746 167.053 59.8428 167.053H105.966C107.334 167.053 108.443 165.943 108.443 164.575C108.443 163.207 107.334 162.098 105.966 162.098Z" fill="#F3F9FE"/>
<path d="M105.966 187.823H59.8428C58.4746 187.823 57.3654 188.933 57.3654 190.301C57.3654 191.669 58.4746 192.778 59.8428 192.778H105.966C107.334 192.778 108.443 191.669 108.443 190.301C108.443 188.933 107.334 187.823 105.966 187.823Z" fill="#F3F9FE"/>
<path d="M105.966 198.685H59.8428C58.4746 198.685 57.3654 199.794 57.3654 201.163C57.3654 202.531 58.4746 203.64 59.8428 203.64H105.966C107.334 203.64 108.443 202.531 108.443 201.163C108.443 199.794 107.334 198.685 105.966 198.685Z" fill="#F3F9FE"/>
<path d="M135.12 123.792H24.9657C23.5975 123.792 22.4884 124.902 22.4884 126.27C22.4884 127.638 23.5975 128.747 24.9657 128.747H135.12C136.488 128.747 137.597 127.638 137.597 126.27C137.597 124.902 136.488 123.792 135.12 123.792Z" fill="#F3F9FE"/>
<path d="M135.12 134.654H24.9657C23.5975 134.654 22.4884 135.763 22.4884 137.132C22.4884 138.5 23.5975 139.609 24.9657 139.609H135.12C136.488 139.609 137.597 138.5 137.597 137.132C137.597 135.763 136.488 134.654 135.12 134.654Z" fill="#F3F9FE"/>
<path d="M48.2217 148.186H28.2101V165.907H48.2217V148.186Z" fill="#F3F9FE"/>
<path d="M48.2217 187.064H28.2101V204.785H48.2217V187.064Z" fill="#F3F9FE"/>
<path d="M33.649 104.908C30.7546 107.03 28.159 110.846 28.6694 114.406C42.8425 113.709 56.2935 114.524 68.6117 114.344C68.3628 111.107 67.0619 106.993 64.8086 104.659C63.6349 103.574 62.2831 102.701 60.8125 102.076C57.8123 100.6 54.7686 99.1314 51.4758 98.4467C44.9028 97.0586 38.8215 101.123 33.649 104.908Z" fill="white"/>
<path d="M58.5469 83.2588C58.6014 83.7788 58.5441 84.3044 58.3788 84.8004C58.2134 85.2964 57.9439 85.7513 57.5884 86.1345C57.4227 86.3319 57.208 86.4821 56.9659 86.5703C55.721 86.9748 55.665 84.4602 56.0198 83.7444C56.4431 82.9289 58.3602 81.6405 58.5469 83.2588Z" fill="#FBB9AD"/>
<path d="M36.4321 81.8521C36.3772 82.3716 36.4337 82.8968 36.598 83.3927C36.7622 83.8886 37.0303 84.3437 37.3844 84.7278C37.5538 84.9211 37.7673 85.0706 38.0069 85.1635C39.2518 85.5681 39.3078 83.0472 38.9468 82.3376C38.536 81.5408 36.6188 80.2337 36.4321 81.8521Z" fill="#FBB9AD"/>
<path d="M45.9111 62.3075C47.069 60.883 48.742 59.9726 50.567 59.7741C52.3348 59.5874 54.3017 60.1974 55.2478 61.6913C55.8589 62.837 56.139 64.1301 56.057 65.4259C56.1668 66.6275 55.9786 67.8375 55.5092 68.949C54.9348 69.9967 53.999 70.7997 52.8763 71.2085C50.2869 72.2293 47.2307 71.4014 45.2264 69.559C43.2222 67.7165 44.3426 64.2122 45.9111 62.3075Z" fill="#3E4957"/>
<path d="M45.9111 62.3075C47.069 60.883 48.742 59.9726 50.567 59.7741C52.3348 59.5874 54.3017 60.1974 55.2478 61.6913C55.8589 62.837 56.139 64.1301 56.057 65.4259C56.1668 66.6275 55.9786 67.8375 55.5092 68.949C54.9348 69.9967 53.999 70.7997 52.8763 71.2085C50.2869 72.2293 47.2307 71.4014 45.2264 69.559C43.2222 67.7165 44.3426 64.2122 45.9111 62.3075Z" fill="url(#paint3_linear_1_1383)"/>
<path d="M52.1357 90.2926C52.1357 90.2926 52.2104 98.5213 54.084 100.252C55.9576 101.982 46.5773 110.068 42.6061 101.042C42.6061 101.042 44.9154 97.1457 44.1249 90.5789C43.3344 84.0121 52.1357 90.2926 52.1357 90.2926Z" fill="#FBB9AD"/>
<path d="M52.4102 92.2409V94.046C52.4102 94.046 47.6485 100.893 45.7002 98.5961C43.752 96.2993 44.3246 95.7826 44.3246 95.7826L44.113 90.5852L52.4102 92.2409Z" fill="url(#paint4_linear_1_1383)"/>
<path d="M56.6738 78.5284C56.6738 78.5284 58.0431 91.0894 51.327 93.5791C44.6108 96.0689 40.6084 92.4961 38.766 86.4335C36.9236 80.3709 39.7432 68.1336 46.8578 69.3224C53.9723 70.5113 56.6738 78.5284 56.6738 78.5284Z" fill="#FBB9AD"/>
<path d="M57.7383 82.7484C58.0446 82.3137 58.2431 81.8123 58.3171 81.2857C58.754 78.9282 58.5643 76.4974 57.7669 74.2362C56.9695 71.9751 55.5924 69.963 53.7733 68.4011C53.0347 67.7502 52.1792 67.2453 51.2524 66.9134C50.3284 66.6399 49.3628 66.5344 48.4016 66.6022C45.3694 66.696 42.4449 67.7486 40.0484 69.6086C38.8654 70.5496 37.8906 71.7259 37.1856 73.063C36.4806 74.4001 36.0608 75.869 35.9527 77.3767C35.8693 78.27 36.015 79.1697 36.3759 79.991C36.5586 80.3999 36.8345 80.7604 37.1814 81.0435C37.5284 81.3267 37.9368 81.5248 38.374 81.6218C39.9239 81.8895 40.3471 80.4578 41.6045 79.5055C43.4718 78.0676 44.0943 75.9327 48.3891 76.2937C55.373 76.8788 55.8709 85.0453 57.7383 82.7484Z" fill="#3E4957"/>
<path d="M37.6762 82.7486C37.5943 82.6735 37.5287 82.5824 37.4833 82.4809C37.4545 82.3626 37.4378 82.2416 37.4335 82.1199C37.417 82.0006 37.3598 81.8907 37.2716 81.8087C37.2244 81.7703 37.1683 81.7445 37.1085 81.7336C37.0486 81.7227 36.987 81.7271 36.9293 81.7464C36.8804 81.7693 36.8369 81.8022 36.8015 81.8429C36.7661 81.8837 36.7397 81.9314 36.7239 81.983C36.6968 82.0867 36.6821 82.1933 36.6803 82.3004C36.6383 82.7137 36.7003 83.131 36.8608 83.5142C37.0132 83.7775 37.2089 84.0132 37.4397 84.2113C37.4795 84.2602 37.5286 84.3008 37.5842 84.3307C37.6397 84.3607 37.7006 84.3793 37.7634 84.3856C37.8442 84.3803 37.9219 84.3523 37.9875 84.3047C38.018 84.2891 38.0454 84.268 38.0684 84.2425C38.0743 84.2116 38.0743 84.1799 38.0684 84.1491C38.1214 83.8652 38.1214 83.574 38.0684 83.2901C37.9951 83.0743 37.8584 82.8855 37.6762 82.7486Z" fill="url(#paint5_linear_1_1383)"/>
<path d="M57.1152 84.0993C57.1971 84.0242 57.2627 83.9331 57.3081 83.8316C57.3373 83.7155 57.354 83.5966 57.3579 83.4769C57.3728 83.3557 57.4328 83.2446 57.526 83.1656C57.5704 83.1245 57.6252 83.0964 57.6845 83.0843C57.7437 83.0722 57.8052 83.0767 57.8621 83.0972C57.9104 83.121 57.9534 83.1541 57.9886 83.1947C58.0239 83.2354 58.0507 83.2826 58.0675 83.3337C58.0946 83.4395 58.1092 83.5481 58.1111 83.6574C58.1531 84.0707 58.0911 84.4879 57.9306 84.8711C57.7781 85.1325 57.5823 85.3661 57.3517 85.5621C57.2699 85.6602 57.1545 85.7245 57.028 85.7426C56.9467 85.7351 56.869 85.7049 56.804 85.6554C56.771 85.6439 56.7426 85.6221 56.723 85.5932C56.7167 85.5624 56.7167 85.5306 56.723 85.4998C56.6701 85.218 56.6701 84.9288 56.723 84.6471C56.7962 84.4295 56.9328 84.2387 57.1152 84.0993Z" fill="url(#paint6_linear_1_1383)"/>
<defs>
<linearGradient id="paint0_linear_1_1383" x1="86.8416" y1="41.7876" x2="98.0485" y2="-0.319909" gradientUnits="userSpaceOnUse">
<stop stop-color="#3E4957"/>
<stop offset="0.95" stop-color="#3E4957"/>
</linearGradient>
<linearGradient id="paint1_linear_1_1383" x1="104.813" y1="1.71245" x2="94.2377" y2="21.4378" gradientUnits="userSpaceOnUse">
<stop stop-color="#3E4957" stop-opacity="0"/>
<stop offset="0.95" stop-color="#3E4957"/>
</linearGradient>
<linearGradient id="paint2_linear_1_1383" x1="70.592" y1="46.6965" x2="69.8264" y2="-2.09082" gradientUnits="userSpaceOnUse">
<stop stop-color="#010101" stop-opacity="0"/>
<stop offset="0.95" stop-color="#3E4957"/>
</linearGradient>
<linearGradient id="paint3_linear_1_1383" x1="51.6314" y1="62.5627" x2="48.9798" y2="69.5963" gradientUnits="userSpaceOnUse">
<stop stop-color="#3E4957"/>
<stop offset="0.95" stop-color="#2A3543"/>
</linearGradient>
<linearGradient id="paint4_linear_1_1383" x1="49.6216" y1="100.582" x2="44.2064" y2="73.8352" gradientUnits="userSpaceOnUse">
<stop offset="0.12" stop-color="#010101" stop-opacity="0"/>
<stop offset="0.95" stop-color="#010101"/>
</linearGradient>
<linearGradient id="paint5_linear_1_1383" x1="36.5247" y1="83.2403" x2="42.0271" y2="82.095" gradientUnits="userSpaceOnUse">
<stop offset="0.12" stop-color="#010101" stop-opacity="0"/>
<stop offset="0.95" stop-color="#010101"/>
</linearGradient>
<linearGradient id="paint6_linear_1_1383" x1="58.2916" y1="84.591" x2="52.7892" y2="83.4519" gradientUnits="userSpaceOnUse">
<stop offset="0.12" stop-color="#010101" stop-opacity="0"/>
<stop offset="0.95" stop-color="#010101"/>
</linearGradient>
</defs>
</svg>
