<svg width="171" height="50" viewBox="0 0 171 50" fill="none" xmlns="http://www.w3.org/2000/svg">
<path d="M157.984 37.6426V38.6816H150.792V37.9365L155.249 31.0391H156.281L155.174 33.0352L152.228 37.6426H157.984ZM156.596 31.0391V40.9922H155.331V31.0391H156.596ZM160.417 39.4883V40.5068C160.417 40.9215 160.312 41.359 160.103 41.8193C159.893 42.2842 159.599 42.6715 159.221 42.9814L158.503 42.4824C158.649 42.2819 158.772 42.0768 158.872 41.8672C158.972 41.6621 159.048 41.4479 159.098 41.2246C159.153 41.0059 159.18 40.7734 159.18 40.5273V39.4883H160.417ZM166.747 31.0254H166.857V32.0986H166.747C166.077 32.0986 165.517 32.208 165.066 32.4268C164.614 32.641 164.257 32.9303 163.992 33.2949C163.728 33.6549 163.537 34.0605 163.418 34.5117C163.304 34.9629 163.247 35.4209 163.247 35.8857V37.3486C163.247 37.7907 163.3 38.1826 163.404 38.5244C163.509 38.8617 163.653 39.1465 163.835 39.3789C164.017 39.6113 164.222 39.7868 164.45 39.9053C164.683 40.0238 164.924 40.083 165.175 40.083C165.467 40.083 165.726 40.0283 165.954 39.9189C166.182 39.805 166.374 39.6478 166.528 39.4473C166.688 39.2422 166.809 39.0007 166.891 38.7227C166.973 38.4447 167.014 38.1393 167.014 37.8066C167.014 37.5104 166.977 37.2256 166.904 36.9521C166.832 36.6742 166.72 36.4281 166.57 36.2139C166.419 35.9951 166.23 35.8242 166.002 35.7012C165.779 35.5736 165.512 35.5098 165.202 35.5098C164.851 35.5098 164.523 35.5964 164.218 35.7695C163.917 35.9382 163.669 36.1615 163.473 36.4395C163.281 36.7129 163.172 37.0114 163.145 37.335L162.475 37.3281C162.539 36.8177 162.657 36.3825 162.83 36.0225C163.008 35.6579 163.227 35.3617 163.486 35.1338C163.751 34.9014 164.045 34.7327 164.368 34.6279C164.696 34.5186 165.043 34.4639 165.407 34.4639C165.904 34.4639 166.333 34.5573 166.693 34.7441C167.053 34.931 167.349 35.1816 167.581 35.4961C167.814 35.806 167.985 36.1569 168.094 36.5488C168.208 36.9362 168.265 37.335 168.265 37.7451C168.265 38.2145 168.199 38.6543 168.067 39.0645C167.934 39.4746 167.736 39.8346 167.472 40.1445C167.212 40.4544 166.891 40.696 166.508 40.8691C166.125 41.0423 165.681 41.1289 165.175 41.1289C164.637 41.1289 164.168 41.0195 163.767 40.8008C163.366 40.5775 163.033 40.2812 162.769 39.9121C162.504 39.543 162.306 39.1328 162.174 38.6816C162.042 38.2305 161.976 37.7725 161.976 37.3076V36.7129C161.976 36.0111 162.046 35.3229 162.188 34.6484C162.329 33.974 162.573 33.3633 162.919 32.8164C163.27 32.2695 163.755 31.8343 164.375 31.5107C164.995 31.1872 165.786 31.0254 166.747 31.0254Z" fill="#3E4957"/>
<path d="M26.6875 23.9922H1V49.9922H26.6875V23.9922Z" fill="#00B67A"/>
<path d="M54.5156 23.9922H28.8281V49.9922H54.5156V23.9922Z" fill="#00B67A"/>
<path d="M82.3438 23.9922H56.6562V49.9922H82.3438V23.9922Z" fill="#00B67A"/>
<path d="M110.172 23.9922H84.4844V49.9922H110.172V23.9922Z" fill="#00B67A"/>
<path d="M138 23.9922H125.156V49.9922H138V23.9922Z" fill="#DCDCE6"/>
<path d="M125.156 23.9922H112.312V49.9922H125.156V23.9922Z" fill="#00B67A"/>
<path d="M13.8441 41.5153L17.7508 40.5132L19.383 45.6049L13.8441 41.5153ZM22.8348 34.9341H15.958L13.8441 28.3799L11.7303 34.9341H4.85352L10.4191 38.9965L8.30527 45.5507L13.8709 41.4882L17.2959 38.9965L22.8348 34.9341Z" fill="white"/>
<path d="M41.6723 41.5153L45.5789 40.5132L47.2111 45.6049L41.6723 41.5153ZM50.6629 34.9341H43.7861L41.6723 28.3799L39.5584 34.9341H32.6816L38.2473 38.9965L36.1334 45.5507L41.699 41.4882L45.124 38.9965L50.6629 34.9341Z" fill="white"/>
<path d="M69.5004 41.5153L73.407 40.5132L75.0393 45.6049L69.5004 41.5153ZM78.491 34.9341H71.6143L69.5004 28.3799L67.3865 34.9341H60.5098L66.0754 38.9965L63.9615 45.5507L69.5272 41.4882L72.9522 38.9965L78.491 34.9341Z" fill="white"/>
<path d="M97.3285 41.5153L101.235 40.5132L102.867 45.6049L97.3285 41.5153ZM106.319 34.9341H99.4424L97.3285 28.3799L95.2146 34.9341H88.3379L93.9035 38.9965L91.7896 45.5507L97.3553 41.4882L100.78 38.9965L106.319 34.9341Z" fill="white"/>
<path d="M125.157 41.5153L129.063 40.5132L130.696 45.6049L125.157 41.5153ZM134.147 34.9341H127.271L125.157 28.3799L123.043 34.9341H116.166L121.732 38.9965L119.618 45.5507L125.183 41.4882L128.608 38.9965L134.147 34.9341Z" fill="white"/>
<path d="M18.0174 7.02002H25.0207V8.32376H22.2632V15.6732H20.7518V8.32376H18.0059L18.0174 7.02002ZM24.7207 9.40829H26.0129V10.6197H26.036C26.0821 10.4467 26.1629 10.2851 26.2783 10.1236C26.3937 9.96209 26.5321 9.8121 26.7052 9.68519C26.8667 9.54674 27.0513 9.4429 27.259 9.36214C27.4551 9.28138 27.6628 9.23523 27.8705 9.23523C28.032 9.23523 28.1474 9.24677 28.2051 9.24677C28.2627 9.2583 28.332 9.26984 28.3897 9.26984V10.5967C28.2974 10.5736 28.1935 10.562 28.0897 10.5505C27.9858 10.539 27.8935 10.5274 27.7897 10.5274C27.559 10.5274 27.3397 10.5736 27.1321 10.6659C26.9244 10.7582 26.7513 10.8966 26.5898 11.0697C26.4398 11.2543 26.3129 11.4735 26.2206 11.7389C26.1283 12.0042 26.0821 12.3158 26.0821 12.6619V15.6386H24.6976L24.7207 9.40829ZM34.7353 15.6732H33.3739V14.7963H33.3508C33.1777 15.1194 32.9239 15.3617 32.5893 15.5578C32.2547 15.7539 31.9086 15.8462 31.5625 15.8462C30.7433 15.8462 30.1434 15.6501 29.7742 15.2348C29.405 14.8309 29.2204 14.2079 29.2204 13.3887V9.40829H30.6049V13.2503C30.6049 13.8041 30.7087 14.1964 30.9279 14.4156C31.1356 14.6463 31.4356 14.7617 31.8163 14.7617C32.1047 14.7617 32.347 14.7156 32.5432 14.6233C32.7393 14.531 32.9008 14.4156 33.0162 14.2656C33.1431 14.1156 33.2239 13.931 33.2816 13.7233C33.3393 13.5157 33.3623 13.2849 33.3623 13.0426V9.40829H34.7468V15.6732H34.7353ZM37.089 13.6656C37.1351 14.0695 37.2851 14.3464 37.5505 14.5194C37.8158 14.681 38.1389 14.7617 38.5081 14.7617C38.635 14.7617 38.785 14.7502 38.9465 14.7271C39.108 14.704 39.2696 14.6694 39.408 14.6117C39.558 14.554 39.6734 14.4733 39.7657 14.3579C39.858 14.2425 39.9041 14.1041 39.8926 13.931C39.8811 13.7579 39.8234 13.608 39.6965 13.4926C39.5695 13.3772 39.4196 13.2964 39.235 13.2157C39.0504 13.1465 38.8311 13.0888 38.5889 13.0426C38.3466 12.9965 38.1043 12.9388 37.8504 12.8811C37.5966 12.8234 37.3428 12.7542 37.1005 12.6734C36.8582 12.5927 36.6505 12.4888 36.4544 12.3388C36.2698 12.2004 36.1083 12.0273 36.0044 11.8081C35.8891 11.5889 35.8314 11.3351 35.8314 11.012C35.8314 10.6659 35.9121 10.389 36.0852 10.1582C36.2467 9.92748 36.4659 9.74288 36.7198 9.60443C36.9736 9.46598 37.262 9.36214 37.5735 9.30445C37.8851 9.24677 38.185 9.22369 38.4619 9.22369C38.785 9.22369 39.0965 9.2583 39.3849 9.32753C39.6734 9.39675 39.9503 9.50059 40.181 9.66212C40.4233 9.81211 40.6195 10.0198 40.7694 10.2621C40.931 10.5044 41.0233 10.8043 41.0694 11.1505H39.6272C39.558 10.8159 39.408 10.5967 39.1773 10.4813C38.935 10.3659 38.6696 10.3082 38.3581 10.3082C38.2658 10.3082 38.1389 10.3198 38.012 10.3313C37.8735 10.3544 37.7581 10.3774 37.6312 10.4236C37.5159 10.4697 37.412 10.539 37.3313 10.6197C37.2505 10.7005 37.2043 10.8159 37.2043 10.9543C37.2043 11.1274 37.262 11.2543 37.3774 11.3581C37.4928 11.462 37.6428 11.5427 37.8389 11.6235C38.0235 11.6927 38.2427 11.7504 38.485 11.7966C38.7273 11.8427 38.9811 11.9004 39.235 11.9581C39.4888 12.0158 39.7311 12.085 39.9734 12.1658C40.2156 12.2465 40.4349 12.3504 40.6195 12.5004C40.8041 12.6388 40.9656 12.8119 41.081 13.0195C41.1963 13.2272 41.254 13.4926 41.254 13.7926C41.254 14.1618 41.1733 14.4733 41.0002 14.7386C40.8271 14.9925 40.6079 15.2117 40.3426 15.3732C40.0772 15.5347 39.7657 15.6501 39.4426 15.7309C39.108 15.8001 38.785 15.8462 38.4619 15.8462C38.0697 15.8462 37.7005 15.8001 37.3659 15.7078C37.0313 15.6155 36.7313 15.477 36.489 15.304C36.2467 15.1194 36.0506 14.9002 35.9121 14.6233C35.7737 14.3579 35.6929 14.0349 35.6814 13.6541H37.0774V13.6656H37.089ZM41.6463 9.40829H42.6962V7.51613H44.0807V9.39675H45.3268V10.4236H44.0807V13.7695C44.0807 13.9195 44.0923 14.0348 44.1038 14.1502C44.1153 14.2541 44.15 14.3464 44.1846 14.4156C44.2307 14.4848 44.2999 14.5425 44.3807 14.5771C44.473 14.6117 44.5884 14.6348 44.7499 14.6348C44.8422 14.6348 44.946 14.6348 45.0383 14.6233C45.1306 14.6117 45.2345 14.6002 45.3268 14.5771V15.6501C45.1768 15.6732 45.0268 15.6847 44.8768 15.6963C44.7268 15.7193 44.5884 15.7193 44.4269 15.7193C44.0576 15.7193 43.7692 15.6847 43.55 15.6155C43.3308 15.5463 43.1577 15.4424 43.0308 15.3155C42.9039 15.1771 42.8231 15.0155 42.777 14.8194C42.7308 14.6233 42.7078 14.381 42.6962 14.1271V10.4351H41.6463V9.38522V9.40829ZM46.2959 9.40829H47.5997V10.2621H47.6228C47.8189 9.89287 48.0843 9.63904 48.4304 9.47752C48.7765 9.31599 49.1457 9.23523 49.5611 9.23523C50.0572 9.23523 50.4841 9.31599 50.8533 9.50059C51.2225 9.67366 51.5224 9.90441 51.7647 10.2159C52.007 10.5159 52.1916 10.8736 52.307 11.2774C52.4224 11.6812 52.4916 12.1196 52.4916 12.5696C52.4916 12.9965 52.4339 13.4003 52.3301 13.7926C52.2147 14.1848 52.0532 14.5425 51.834 14.8425C51.6147 15.1425 51.3378 15.3847 50.9917 15.5693C50.6456 15.7539 50.2533 15.8462 49.7918 15.8462C49.5957 15.8462 49.388 15.8232 49.1919 15.7886C48.9957 15.7539 48.7996 15.6963 48.615 15.6155C48.4304 15.5347 48.2573 15.4309 48.1073 15.304C47.9458 15.1771 47.8189 15.0271 47.7151 14.8656H47.692V17.9922H46.3075V9.40829H46.2959ZM51.1302 12.5465C51.1302 12.2696 51.0956 11.9927 51.0148 11.7273C50.9456 11.462 50.8302 11.2312 50.6802 11.0235C50.5302 10.8159 50.3456 10.6543 50.1379 10.5274C49.9187 10.4005 49.6649 10.3428 49.388 10.3428C48.8111 10.3428 48.3727 10.539 48.0727 10.9428C47.7843 11.3466 47.6343 11.8889 47.6343 12.558C47.6343 12.8811 47.6689 13.1695 47.7497 13.4349C47.8304 13.7003 47.9343 13.931 48.0958 14.1271C48.2458 14.3233 48.4304 14.4733 48.6496 14.5887C48.8688 14.704 49.1111 14.7617 49.3995 14.7617C49.7226 14.7617 49.9764 14.6925 50.1956 14.5656C50.4148 14.4387 50.5879 14.2656 50.7379 14.0695C50.8763 13.8618 50.9802 13.631 51.0379 13.3657C51.0956 13.0888 51.1302 12.8234 51.1302 12.5465ZM53.5646 7.02002H54.9491V8.32376H53.5646V7.02002ZM53.5646 9.40829H54.9491V15.6732H53.5646V9.40829ZM56.1836 7.02002H57.5681V15.6732H56.1836V7.02002ZM61.7909 15.8462C61.2947 15.8462 60.8448 15.7655 60.4525 15.5924C60.0602 15.4194 59.7372 15.2001 59.4603 14.9117C59.1949 14.6233 58.9872 14.2656 58.8488 13.8618C58.7103 13.458 58.6296 13.008 58.6296 12.535C58.6296 12.0619 58.6988 11.6235 58.8488 11.2197C58.9872 10.8159 59.1949 10.4697 59.4603 10.1698C59.7256 9.88133 60.0602 9.65058 60.4525 9.48905C60.8448 9.32753 61.2947 9.23523 61.7909 9.23523C62.287 9.23523 62.7369 9.31599 63.1292 9.48905C63.5215 9.65058 63.8445 9.88133 64.1214 10.1698C64.3868 10.4582 64.5945 10.8159 64.7329 11.2197C64.8714 11.6235 64.9522 12.0619 64.9522 12.535C64.9522 13.0195 64.8829 13.458 64.7329 13.8618C64.583 14.2656 64.3868 14.6117 64.1214 14.9117C63.8561 15.2001 63.5215 15.4309 63.1292 15.5924C62.7369 15.7539 62.2985 15.8462 61.7909 15.8462ZM61.7909 14.7502C62.0908 14.7502 62.3677 14.681 62.587 14.554C62.8177 14.4271 62.9908 14.2541 63.1408 14.0464C63.2907 13.8387 63.3946 13.5964 63.4638 13.3426C63.533 13.0772 63.5676 12.8119 63.5676 12.535C63.5676 12.2696 63.533 12.0042 63.4638 11.7389C63.3946 11.4735 63.2907 11.2428 63.1408 11.0351C62.9908 10.8274 62.8062 10.6659 62.587 10.539C62.3562 10.4121 62.0908 10.3428 61.7909 10.3428C61.4909 10.3428 61.214 10.4121 60.9948 10.539C60.764 10.6659 60.591 10.8389 60.441 11.0351C60.291 11.2428 60.1871 11.4735 60.1179 11.7389C60.0487 12.0042 60.0141 12.2696 60.0141 12.535C60.0141 12.8119 60.0487 13.0772 60.1179 13.3426C60.1871 13.608 60.291 13.8387 60.441 14.0464C60.591 14.2541 60.7756 14.4271 60.9948 14.554C61.2255 14.6925 61.4909 14.7502 61.7909 14.7502ZM65.3675 9.40829H66.4174V7.51613H67.8019V9.39675H69.048V10.4236H67.8019V13.7695C67.8019 13.9195 67.8135 14.0348 67.825 14.1502C67.8365 14.2541 67.8712 14.3464 67.9058 14.4156C67.9519 14.4848 68.0211 14.5425 68.1019 14.5771C68.1942 14.6117 68.3096 14.6348 68.4711 14.6348C68.5634 14.6348 68.6672 14.6348 68.7595 14.6233C68.8518 14.6117 68.9557 14.6002 69.048 14.5771V15.6501C68.898 15.6732 68.748 15.6847 68.598 15.6963C68.448 15.7193 68.3096 15.7193 68.1481 15.7193C67.7789 15.7193 67.4904 15.6847 67.2712 15.6155C67.052 15.5463 66.8789 15.4424 66.752 15.3155C66.6251 15.1771 66.5443 15.0155 66.4982 14.8194C66.452 14.6233 66.429 14.381 66.4174 14.1271V10.4351H65.3675V9.38522V9.40829Z" fill="#3E4957"/>
<path d="M16.5795 7.01479H10.2453L8.2955 0.992188L6.33412 7.01479L0 7.00325L5.12267 10.7299L3.16129 16.7525L8.28396 13.0259L13.4066 16.7525L11.4568 10.7299L16.5795 7.01479Z" fill="#00B67A"/>
<path d="M11.9064 12.1012L11.4679 10.7397L8.30664 13.0357L11.9064 12.1012Z" fill="#005128"/>
</svg>
