<svg aria-hidden="true" style="position: absolute; width: 0; height: 0; overflow: hidden;" version="1.1" xmlns="http://www.w3.org/2000/svg" xmlns:xlink="http://www.w3.org/1999/xlink">
<defs>
<symbol id="icon-curve-h1" viewBox="0 0 343 32">
<path fill="#41e6ab" style="fill: var(--color1, #41e6ab)" d="M4.441 0.058c2.903-0.371 5.656 1.092 6.154 3.267l0.001 0.002 0.005 0.021c0.007 0.028 0.019 0.077 0.037 0.147 0.037 0.139 0.097 0.357 0.185 0.643 0.176 0.574 0.459 1.415 0.879 2.434 0.845 2.053 2.21 4.749 4.286 7.409 4.149 5.316 10.687 10.020 21.361 10.020 11.111 0 19.702-4.957 30.019-11.127l0.55-0.329c5.395-3.228 11.325-6.776 18.162-9.273 5.367-1.96 11.294-3.271 17.961-3.271 6.638 0 12.542 1.3 17.89 3.245 6.868 2.498 12.819 6.059 18.233 9.298l0.55 0.329c10.317 6.17 18.908 11.127 30.019 11.127s19.702-4.957 30.019-11.127l0.55-0.329c5.465-3.27 11.478-6.868 18.427-9.369 5.297-1.906 11.138-3.175 17.696-3.175 6.528 0 12.346 1.257 17.623 3.149 6.98 2.502 13.015 6.113 18.5 9.394l0.548 0.329c10.319 6.17 18.91 11.127 30.020 11.127 10.756 0 17.824-4.775 22.487-10.174 2.321-2.687 3.923-5.405 4.943-7.467 0.508-1.025 0.864-1.871 1.088-2.449 0.113-0.288 0.192-0.508 0.241-0.648 0.023-0.070 0.041-0.12 0.051-0.149l0.006-0.020v-0.004l0.002-0.002v-0.001c0.672-2.147 3.537-3.482 6.404-2.981 2.869 0.501 4.653 2.651 3.985 4.803l-5.197-0.907c5.197 0.907 5.197 0.91 5.197 0.91l-0.002 0.004-0.002 0.009-0.009 0.025-0.023 0.076c-0.021 0.062-0.049 0.147-0.087 0.253-0.073 0.211-0.179 0.507-0.322 0.875-0.288 0.735-0.721 1.764-1.327 2.989-1.207 2.437-3.13 5.72-5.99 9.033-5.702 6.601-15.642 13.825-31.445 13.825-15.159 0-26.494-6.781-36.124-12.544l-0.55-0.329c-10.317-6.17-18.908-11.127-30.018-11.127s-19.701 4.957-30.019 11.127l-0.55 0.329c-9.63 5.762-20.963 12.544-36.123 12.544s-26.493-6.781-36.123-12.544l-0.55-0.329c-10.317-6.17-18.908-11.127-30.019-11.127s-19.702 4.957-30.019 11.127l-0.55 0.329c-9.63 5.762-20.963 12.544-36.123 12.544-15.886 0-25.355-7.296-30.571-13.979-2.607-3.34-4.265-6.643-5.272-9.090-0.507-1.231-0.856-2.264-1.083-3.003-0.113-0.37-0.196-0.667-0.252-0.88-0.028-0.106-0.050-0.192-0.065-0.255l-0.019-0.077-0.006-0.026-0.002-0.010-0.001-0.004c0 0-0.001-0.003 5.259-0.675l-5.26 0.671c-0.495-2.178 1.459-4.244 4.364-4.615z"></path>
</symbol>
<symbol id="icon-for-button-text" viewBox="0 0 32 32">
<path d="M23.062 9.2l-10.138 10.138-5.523-5.508-2.169 2.169 7.692 7.692 12.308-12.308-2.169-2.185zM16 0.615c-8.492 0-15.385 6.892-15.385 15.385s6.892 15.385 15.385 15.385c8.492 0 15.385-6.892 15.385-15.385s-6.892-15.385-15.385-15.385zM16 28.308c-6.8 0-12.308-5.508-12.308-12.308s5.508-12.308 12.308-12.308c6.8 0 12.308 5.508 12.308 12.308s-5.508 12.308-12.308 12.308z"></path>
<symbol id="icon-Vector-2" viewBox="0 0 36 32">
<path fill="#41b4e6" style="fill: var(--color1, #41b4e6)" d="M17.882 25.503l10.179 6.144-2.701-11.579 8.993-7.791-11.842-1.005-4.628-10.92-4.628 10.92-11.842 1.005 8.993 7.791-2.701 11.579 10.179-6.144z"></path>
</symbol>
<symbol id="icon-Vector-3" viewBox="0 0 52 32">
<path fill="#41b4e6" style="fill: var(--color1, #41b4e6)" d="M34.462 13.846c3.575 0 6.44-2.886 6.44-6.462s-2.865-6.462-6.44-6.462c-3.575 0-6.462 2.886-6.462 6.462s2.886 6.462 6.462 6.462zM17.231 13.846c3.575 0 6.44-2.886 6.44-6.462s-2.865-6.462-6.44-6.462c-3.575 0-6.462 2.886-6.462 6.462s2.886 6.462 6.462 6.462zM17.231 18.154c-5.018 0-15.077 2.52-15.077 7.538v5.385h30.154v-5.385c0-5.018-10.058-7.538-15.077-7.538zM34.462 18.154c-0.624 0-1.335 0.043-2.089 0.108 2.498 1.809 4.243 4.243 4.243 7.431v5.385h12.923v-5.385c0-5.018-10.059-7.538-15.077-7.538z"></path>
</symbol>
<symbol id="icon-Vector-4" viewBox="0 0 41 32">
<path fill="#41b4e6" style="fill: var(--color1, #41b4e6)" d="M35.2 1.067h-29.867c-2.053 0-3.715 1.68-3.715 3.733l-0.019 22.4c0 2.053 1.68 3.733 3.733 3.733h29.867c2.053 0 3.733-1.68 3.733-3.733v-22.4c0-2.053-1.68-3.733-3.733-3.733zM35.2 8.533l-14.933 9.333-14.933-9.333v-3.733l14.933 9.333 14.933-9.333v3.733z"></path>
</symbol>
<symbol id="icon-Vector-14" viewBox="0 0 41 32">
<path fill="none" stroke="#3e4857" style="stroke: var(--color2, #3e4857)" stroke-linejoin="miter" stroke-linecap="butt" stroke-miterlimit="16" stroke-width="6.8571" d="M36.571 4.571l-16 18.286-16-18.286"></path>
<symbol id="icon-Vector" viewBox="0 0 137 32">
<path fill="#41b4e6" style="fill: var(--color2, #41b4e6)" d="M38.332 2.555h3.548v-2.555h-3.55c-1.41 0-2.559 1.147-2.559 2.555v3.577h2.559v-3.575c0-0 0.001-0.001 0.001-0.001s0.001-0.001 0.001-0.001z"></path>
<path fill="#41b4e6" style="fill: var(--color2, #41b4e6)" d="M130.54 0h3.55c1.41 0 2.559 1.147 2.559 2.555v3.577h-2.559v-3.575c-0-0-0.001-0.001-0.001-0.001s-0.001-0.001-0.001-0.001h-3.548v-2.555z"></path>
<path fill="#41b4e6" style="fill: var(--color2, #41b4e6)" d="M35.771 29.445v-3.545h2.559v3.543c0 0 0.001 0.001 0.001 0.001s0.001 0.001 0.001 0.001h3.548v2.555h-3.55c-1.41 0-2.559-1.147-2.559-2.555z"></path>
<path fill="#41b4e6" style="fill: var(--color2, #41b4e6)" d="M134.090 29.443v-3.543h2.559v3.545c0 1.408-1.149 2.555-2.559 2.555h-3.55v-2.555h3.548c0-0 0-0.001 0.001-0.001s0.001-0.001 0.001-0.001z"></path>
</symbol>
<symbol id="about-us-envelope" viewBox="0 0 40 32">
<path fill="#41e6ab" style="fill: var(--color1, #41e6ab)" d="M40 4c0-2.2-1.8-4-4-4h-32c-2.2 0-4 1.8-4 4v24c0 2.2 1.8 4 4 4h32c2.2 0 4-1.8 4-4v-24zM36 4l-16 9.98-16-9.98h32zM36 28h-32v-20l16 10 16-10v20z"></path>
</symbol>
<symbol id="icon-iceberg" viewBox="0 0 130 32">
<path fill="#b4e8ff" style="fill: var(--color1, #b4e8ff)" d="M58.868 24.525c-1.135 0-2.191-0.194-3.167-0.582-0.962-0.402-1.81-0.962-2.543-1.681-0.718-0.718-1.278-1.551-1.681-2.499-0.402-0.962-0.603-1.997-0.603-3.103s0.201-2.133 0.603-3.081c0.402-0.962 0.962-1.796 1.681-2.499s1.559-1.25 2.521-1.638c0.977-0.402 2.033-0.603 3.167-0.603 1.207 0 2.277 0.194 3.21 0.582 0.801 0.328 1.515 0.758 2.142 1.291 0.189 0.161 0.192 0.448 0.017 0.624l-1.618 1.634c-0.178 0.179-0.468 0.173-0.66 0.009-0.33-0.282-0.707-0.513-1.131-0.693-0.56-0.244-1.214-0.366-1.961-0.366-0.661 0-1.271 0.115-1.832 0.345-0.546 0.215-1.020 0.531-1.422 0.948-0.388 0.417-0.697 0.919-0.927 1.508-0.215 0.589-0.323 1.235-0.323 1.939 0 0.718 0.108 1.372 0.323 1.961 0.23 0.589 0.539 1.092 0.927 1.508 0.402 0.417 0.876 0.74 1.422 0.97 0.56 0.23 1.171 0.345 1.832 0.345 0.776 0 1.451-0.122 2.025-0.366 0.429-0.183 0.815-0.417 1.156-0.704 0.19-0.16 0.475-0.165 0.651 0.011l1.636 1.636c0.179 0.179 0.174 0.472-0.022 0.632-0.647 0.532-1.371 0.962-2.171 1.29-0.934 0.388-2.018 0.582-3.254 0.582z"></path>
<path fill="#b4e8ff" style="fill: var(--color1, #b4e8ff)" d="M46.859 24.288c-0.246 0-0.445-0.199-0.445-0.445v-14.322c0-0.246 0.199-0.445 0.445-0.445h2.493c0.246 0 0.445 0.199 0.445 0.445v14.322c0 0.246-0.199 0.445-0.445 0.445h-2.493z"></path>
<path fill="#b4e8ff" style="fill: var(--color1, #b4e8ff)" d="M65.428 23.843c0 0.246 0.199 0.445 0.445 0.445h2.493c0.016 0 0.031-0.001 0.047-0.002 0.015 0.002 0.031 0.002 0.046 0.002h7.449c0.246 0 0.445-0.199 0.445-0.445v-2.040c0-0.246-0.199-0.445-0.445-0.445h-7.096v-3.426h6.342c0.246 0 0.445-0.199 0.445-0.445v-1.933c0-0.246-0.199-0.445-0.445-0.445h-6.342v-3.124h6.989c0.245 0 0.445-0.199 0.445-0.445v-2.019c0-0.246-0.199-0.445-0.445-0.445h-7.341c-0.015 0-0.031 0.001-0.046 0.002-0.015-0.002-0.031-0.002-0.047-0.002h-2.493c-0.246 0-0.445 0.199-0.445 0.445v14.322z"></path>
<path fill="#b4e8ff" style="fill: var(--color1, #b4e8ff)" d="M80.637 24.288c-0.023 0-0.046-0.002-0.068-0.005-0.022 0.003-0.045 0.005-0.068 0.005h-2.45c-0.245 0-0.445-0.199-0.445-0.445v-14.322c0-0.246 0.199-0.445 0.445-0.445h2.45c0.023 0 0.046 0.002 0.068 0.005 0.022-0.003 0.045-0.005 0.068-0.005h3.498c0.977 0 1.803 0.18 2.478 0.539 0.689 0.359 1.214 0.84 1.573 1.444s0.539 1.271 0.539 2.004c0 0.934-0.301 1.724-0.905 2.37-0.26 0.278-0.573 0.52-0.94 0.723 0.514 0.252 0.949 0.571 1.306 0.957 0.704 0.747 1.056 1.666 1.056 2.758 0 0.833-0.208 1.587-0.625 2.262-0.403 0.661-0.991 1.185-1.767 1.573-0.761 0.388-1.681 0.582-2.758 0.582h-3.455zM80.947 21.659h2.823c0.661 0 1.177-0.194 1.551-0.582s0.56-0.862 0.56-1.422c0-0.388-0.086-0.733-0.259-1.034s-0.417-0.539-0.733-0.711c-0.301-0.172-0.675-0.259-1.12-0.259h-2.823v4.008zM83.489 15.087c0.561 0 1.013-0.136 1.358-0.409 0.345-0.287 0.517-0.718 0.517-1.293 0-0.56-0.172-0.977-0.517-1.25-0.345-0.287-0.797-0.431-1.358-0.431h-2.542v3.383h2.542z"></path>
<path fill="#b4e8ff" style="fill: var(--color1, #b4e8ff)" d="M90.333 23.843c0 0.246 0.199 0.445 0.445 0.445h2.493c0.015 0 0.031-0.001 0.047-0.002 0.015 0.002 0.031 0.002 0.046 0.002h7.449c0.246 0 0.445-0.199 0.445-0.445v-2.040c0-0.246-0.199-0.445-0.445-0.445h-7.097v-3.426h6.343c0.246 0 0.445-0.199 0.445-0.445v-1.933c0-0.246-0.199-0.445-0.445-0.445h-6.343v-3.124h6.989c0.246 0 0.445-0.199 0.445-0.445v-2.019c0-0.246-0.199-0.445-0.445-0.445h-7.341c-0.015 0-0.031 0.001-0.046 0.002-0.015-0.002-0.031-0.002-0.047-0.002h-2.493c-0.246 0-0.445 0.199-0.445 0.445v14.322z"></path>
<path fill="#b4e8ff" style="fill: var(--color1, #b4e8ff)" d="M105.895 23.843v-5.825h0.444c0.003 0.083 0.031 0.167 0.085 0.242l4.229 5.844c0.083 0.116 0.218 0.184 0.361 0.184h2.88c0.369 0 0.578-0.422 0.354-0.715l-4.327-5.665c0.517-0.092 0.993-0.242 1.425-0.451 0.776-0.373 1.379-0.891 1.81-1.551 0.431-0.675 0.647-1.458 0.647-2.349 0-0.876-0.216-1.652-0.647-2.327s-1.027-1.199-1.789-1.573c-0.761-0.388-1.645-0.582-2.65-0.582h-3.175c-0.016 0-0.031 0.001-0.047 0.002-0.015-0.002-0.031-0.002-0.046-0.002h-2.493c-0.245 0-0.445 0.199-0.445 0.445v14.322c0 0.246 0.199 0.445 0.445 0.445h2.493c0.245 0 0.445-0.199 0.445-0.445zM108.308 15.518h-2.413v-3.814h2.435c0.675 0 1.193 0.18 1.551 0.539s0.539 0.812 0.539 1.357c0 0.589-0.187 1.056-0.56 1.401-0.359 0.345-0.876 0.517-1.551 0.517z"></path>
<path fill="#b4e8ff" style="fill: var(--color1, #b4e8ff)" d="M119.183 23.921c0.977 0.402 2.019 0.603 3.125 0.603 1.508 0 2.837-0.316 3.986-0.948 1.163-0.632 2.069-1.566 2.715-2.801 0.661-1.25 0.991-2.787 0.991-4.611v-0.051c0-0.246-0.199-0.445-0.445-0.445h-7.104c-0.246 0-0.445 0.199-0.445 0.445v1.983c0 0.243 0.195 0.441 0.438 0.445l3.933 0.062c-0.084 0.317-0.197 0.609-0.341 0.879-0.33 0.632-0.811 1.12-1.443 1.465-0.618 0.33-1.372 0.496-2.263 0.496-0.876 0-1.652-0.201-2.327-0.603s-1.207-0.962-1.595-1.681c-0.388-0.718-0.582-1.551-0.582-2.499s0.194-1.774 0.582-2.478c0.402-0.718 0.955-1.271 1.659-1.659 0.703-0.402 1.501-0.603 2.391-0.603 0.833 0 1.58 0.158 2.241 0.474 0.519 0.248 0.985 0.594 1.397 1.036 0.183 0.196 0.495 0.218 0.685 0.028l1.658-1.659c0.164-0.164 0.176-0.426 0.017-0.594-0.657-0.689-1.457-1.242-2.399-1.656-1.063-0.474-2.248-0.711-3.555-0.711-1.135 0-2.198 0.201-3.189 0.603-0.991 0.388-1.86 0.941-2.607 1.659-0.733 0.704-1.307 1.53-1.724 2.478s-0.625 1.975-0.625 3.081c0 1.106 0.201 2.14 0.603 3.103 0.417 0.948 0.984 1.781 1.702 2.499 0.718 0.704 1.559 1.257 2.521 1.659z"></path>
<path fill="#b4e8ff" style="fill: var(--color1, #b4e8ff)" d="M1.906 3.657c-1.906 2.424-1.906 5.971-1.906 13.065s0 10.642 1.906 13.065c0.437 0.556 0.939 1.058 1.496 1.496 0.213 0.167 0.434 0.32 0.666 0.459l9.381-20.712c0.408-0.9 1.441-1.334 2.369-0.995l5.962 2.176c0.563 0.206 0.995 0.666 1.165 1.241l5.46 18.542c0.404-0.201 0.777-0.437 1.127-0.712 0.556-0.437 1.058-0.939 1.496-1.496 1.906-2.423 1.906-5.971 1.906-13.065s0-10.641-1.906-13.065c-0.437-0.556-0.939-1.058-1.496-1.496-2.423-1.906-5.971-1.906-13.065-1.906s-10.641 0-13.065 1.906c-0.556 0.437-1.058 0.939-1.496 1.496z"></path>
</symbol>
<symbol id="icon-luminous" viewBox="0 0 161 32">
<path fill="#b4e8ff" style="fill: var(--color1, #b4e8ff)" d="M3.973 3.742c2.196-2.096 5.177-3.32 8.199-3.472 1.034 0 2.072 0.006 3.106-0.003-0.053 1.109 0 2.221-0.031 3.329-0.146 2.478-1.062 4.901-2.606 6.845-2.006 2.615-5.075 4.37-8.332 4.823-1.422 0.23-2.867 0.084-4.298 0.124 0.025-1.221-0.053-2.444 0.043-3.662 0.28-3.019 1.705-5.91 3.919-7.985z"></path>
<path fill="#b4e8ff" style="fill: var(--color1, #b4e8ff)" d="M16.234 0.267c1.109 0.012 2.217-0.006 3.329 0.006 2.767 0.196 5.497 1.258 7.581 3.099 2.298 1.972 3.873 4.792 4.276 7.805 0.177 1.398 0.065 2.811 0.134 4.214-0.969-0.003-1.935-0.006-2.904 0-2.382-0.065-4.724-0.835-6.718-2.134-0.919-0.658-1.863-1.326-2.553-2.239-1.512-1.689-2.54-3.811-2.929-6.047-0.292-1.553-0.174-3.137-0.217-4.705z"></path>
<path fill="#b4e8ff" style="fill: var(--color1, #b4e8ff)" d="M0.011 16.28c0.985 0.056 1.972-0.047 2.954 0.062 4.202 0.090 8.28 2.45 10.457 6.044 1.248 2.012 1.919 4.398 1.832 6.767-0.003 0.776 0.009 1.55-0.012 2.323-1.559-0.047-3.134 0.081-4.677-0.221-3.429-0.578-6.581-2.618-8.478-5.531-1.438-2.118-2.155-4.705-2.081-7.261 0-0.73 0-1.457 0.006-2.183z"></path>
<path fill="#b4e8ff" style="fill: var(--color1, #b4e8ff)" d="M26.307 16.609c1.69-0.376 3.432-0.314 5.149-0.314l0.075 0.075c-0.037 1.624 0.090 3.267-0.236 4.873-0.686 3.603-3.072 6.82-6.28 8.587-1.997 1.112-4.289 1.658-6.572 1.634-0.73 0.003-1.463-0.012-2.193 0.009 0-1.345-0.056-2.696 0.096-4.034 0.354-3.239 2.106-6.255 4.624-8.292 1.559-1.23 3.391-2.121 5.335-2.537z"></path>
<path fill="#b4e8ff" style="fill: var(--color1, #b4e8ff)" d="M44.28 25.46c0 0.547-0.189 1.009-0.568 1.388-0.358 0.358-0.81 0.536-1.356 0.536-0.526 0-0.967-0.179-1.325-0.536-0.358-0.378-0.536-0.841-0.536-1.388v-19.494c0-0.547 0.179-0.999 0.536-1.356 0.379-0.379 0.841-0.568 1.388-0.568s0.988 0.189 1.325 0.568c0.358 0.357 0.536 0.81 0.536 1.356v19.494z"></path>
<path fill="#b4e8ff" style="fill: var(--color1, #b4e8ff)" d="M59.473 10.509c0.547 0 0.999 0.189 1.356 0.568 0.358 0.357 0.536 0.81 0.536 1.356v8.012c0 2.229-0.62 3.995-1.861 5.299s-3.028 1.956-5.362 1.956c-2.334 0-4.122-0.652-5.362-1.956-1.22-1.304-1.83-3.070-1.83-5.299v-8.012c0-0.547 0.179-0.999 0.536-1.356 0.358-0.379 0.81-0.568 1.356-0.568s0.999 0.189 1.356 0.568c0.358 0.357 0.536 0.81 0.536 1.356v8.012c0 1.283 0.284 2.24 0.852 2.87 0.568 0.61 1.419 0.915 2.555 0.915 1.157 0 2.019-0.305 2.587-0.915 0.568-0.631 0.852-1.588 0.852-2.87v-8.012c0-0.547 0.179-0.999 0.536-1.356 0.358-0.379 0.81-0.568 1.356-0.568z"></path>
<path fill="#b4e8ff" style="fill: var(--color1, #b4e8ff)" d="M72.751 10.193c1.682 0 2.922 0.41 3.722 1.23 0.799 0.799 1.325 1.84 1.577 3.123l-0.536-0.284 0.253-0.505c0.253-0.484 0.641-0.999 1.167-1.546 0.526-0.568 1.156-1.041 1.892-1.419 0.758-0.4 1.599-0.599 2.524-0.599 1.514 0 2.66 0.326 3.438 0.978 0.799 0.652 1.346 1.525 1.64 2.618 0.294 1.072 0.442 2.271 0.442 3.596v8.075c0 0.547-0.179 1.009-0.536 1.388-0.358 0.358-0.81 0.536-1.357 0.536s-0.998-0.179-1.356-0.536c-0.358-0.378-0.536-0.841-0.536-1.388v-8.075c0-0.694-0.084-1.314-0.253-1.861-0.168-0.568-0.473-1.020-0.915-1.356s-1.073-0.505-1.893-0.505c-0.799 0-1.482 0.168-2.050 0.505s-0.999 0.789-1.293 1.356c-0.273 0.547-0.41 1.167-0.41 1.861v8.075c0 0.547-0.179 1.009-0.536 1.388-0.358 0.358-0.81 0.536-1.357 0.536s-0.999-0.179-1.357-0.536c-0.358-0.378-0.536-0.841-0.536-1.388v-8.075c0-0.694-0.084-1.314-0.252-1.861-0.168-0.568-0.474-1.020-0.915-1.356s-1.073-0.505-1.893-0.505c-0.799 0-1.482 0.168-2.050 0.505s-0.999 0.789-1.293 1.356c-0.273 0.547-0.41 1.167-0.41 1.861v8.075c0 0.547-0.179 1.009-0.536 1.388-0.358 0.358-0.81 0.536-1.356 0.536s-0.999-0.179-1.356-0.536c-0.358-0.378-0.536-0.841-0.536-1.388v-13.027c0-0.547 0.179-0.999 0.536-1.356 0.358-0.379 0.81-0.568 1.356-0.568s0.999 0.189 1.356 0.568c0.357 0.357 0.536 0.81 0.536 1.356v1.356l-0.473-0.095c0.189-0.357 0.452-0.736 0.789-1.136 0.337-0.421 0.747-0.81 1.23-1.167s1.020-0.641 1.609-0.852c0.589-0.231 1.23-0.347 1.924-0.347z"></path>
<path fill="#b4e8ff" style="fill: var(--color1, #b4e8ff)" d="M94.953 25.46c0 0.547-0.179 1.009-0.536 1.388-0.358 0.358-0.81 0.536-1.357 0.536s-0.999-0.179-1.357-0.536c-0.358-0.378-0.536-0.841-0.536-1.388v-13.027c0-0.547 0.179-0.999 0.536-1.356 0.358-0.379 0.81-0.568 1.357-0.568s0.999 0.189 1.357 0.568c0.358 0.357 0.536 0.81 0.536 1.356v13.027zM93.029 8.459c-0.715 0-1.22-0.116-1.514-0.347s-0.442-0.641-0.442-1.23v-0.599c0-0.61 0.158-1.020 0.474-1.23 0.336-0.231 0.841-0.347 1.514-0.347 0.736 0 1.251 0.116 1.546 0.347s0.442 0.641 0.442 1.23v0.599c0 0.61-0.158 1.030-0.473 1.262-0.316 0.21-0.831 0.315-1.546 0.315z"></path>
<path fill="#b4e8ff" style="fill: var(--color1, #b4e8ff)" d="M106.287 10.193c1.556 0 2.734 0.326 3.533 0.978 0.82 0.652 1.377 1.525 1.672 2.618 0.315 1.072 0.473 2.271 0.473 3.596v8.075c0 0.547-0.179 1.009-0.536 1.388-0.358 0.358-0.81 0.536-1.357 0.536s-0.999-0.179-1.357-0.536c-0.358-0.378-0.536-0.841-0.536-1.388v-8.075c0-0.694-0.095-1.314-0.284-1.861-0.168-0.568-0.483-1.020-0.946-1.356s-1.125-0.505-1.987-0.505c-0.841 0-1.556 0.168-2.145 0.505-0.568 0.337-1.009 0.789-1.325 1.356-0.295 0.547-0.442 1.167-0.442 1.861v8.075c0 0.547-0.179 1.009-0.536 1.388-0.358 0.358-0.81 0.536-1.357 0.536s-0.999-0.179-1.357-0.536c-0.357-0.378-0.536-0.841-0.536-1.388v-13.027c0-0.547 0.179-0.999 0.536-1.356 0.358-0.379 0.81-0.568 1.357-0.568s0.999 0.189 1.357 0.568c0.358 0.357 0.536 0.81 0.536 1.356v1.356l-0.473-0.095c0.189-0.357 0.463-0.736 0.82-1.136 0.358-0.421 0.778-0.81 1.261-1.167s1.031-0.641 1.64-0.852c0.61-0.231 1.272-0.347 1.987-0.347z"></path>
<path fill="#b4e8ff" style="fill: var(--color1, #b4e8ff)" d="M130.692 18.962c0 1.724-0.389 3.249-1.167 4.574-0.758 1.304-1.788 2.324-3.091 3.060-1.283 0.736-2.723 1.104-4.321 1.104s-3.049-0.368-4.353-1.104c-1.283-0.736-2.313-1.756-3.091-3.060-0.757-1.325-1.136-2.849-1.136-4.574s0.379-3.238 1.136-4.542c0.778-1.325 1.808-2.355 3.091-3.091 1.304-0.757 2.755-1.136 4.353-1.136s3.039 0.379 4.321 1.136c1.304 0.736 2.334 1.766 3.091 3.091 0.778 1.304 1.167 2.818 1.167 4.542zM126.907 18.962c0-1.073-0.221-1.998-0.662-2.776-0.421-0.799-0.999-1.419-1.735-1.861-0.715-0.442-1.514-0.662-2.397-0.662s-1.693 0.221-2.429 0.662c-0.714 0.442-1.293 1.062-1.734 1.861-0.421 0.778-0.631 1.703-0.631 2.776 0 1.051 0.21 1.977 0.631 2.776 0.441 0.778 1.020 1.388 1.734 1.829 0.736 0.442 1.546 0.662 2.429 0.662s1.682-0.221 2.397-0.662c0.736-0.442 1.314-1.051 1.735-1.829 0.442-0.799 0.662-1.724 0.662-2.776z"></path>
<path fill="#b4e8ff" style="fill: var(--color1, #b4e8ff)" d="M144.801 10.509c0.547 0 0.998 0.189 1.356 0.568 0.358 0.357 0.536 0.81 0.536 1.356v8.012c0 2.229-0.621 3.995-1.861 5.299s-3.028 1.956-5.362 1.956c-2.335 0-4.122-0.652-5.363-1.956-1.219-1.304-1.83-3.070-1.83-5.299v-8.012c0-0.547 0.179-0.999 0.536-1.356 0.358-0.379 0.81-0.568 1.357-0.568s0.999 0.189 1.357 0.568c0.357 0.357 0.536 0.81 0.536 1.356v8.012c0 1.283 0.284 2.24 0.852 2.87 0.568 0.61 1.419 0.915 2.555 0.915 1.156 0 2.018-0.305 2.586-0.915 0.568-0.631 0.851-1.588 0.851-2.87v-8.012c0-0.547 0.179-0.999 0.536-1.356 0.358-0.379 0.81-0.568 1.357-0.568z"></path>
<path fill="#b4e8ff" style="fill: var(--color1, #b4e8ff)" d="M148.236 24.766c-0.21-0.294-0.305-0.673-0.284-1.136s0.294-0.862 0.82-1.199c0.337-0.21 0.694-0.294 1.073-0.252 0.378 0.021 0.746 0.21 1.104 0.568 0.609 0.61 1.251 1.083 1.924 1.419s1.514 0.505 2.523 0.505c0.316-0.021 0.662-0.063 1.041-0.126 0.379-0.084 0.705-0.252 0.978-0.505 0.294-0.273 0.442-0.683 0.442-1.23 0-0.463-0.158-0.831-0.473-1.104s-0.736-0.505-1.262-0.694c-0.505-0.189-1.073-0.368-1.704-0.536-0.652-0.189-1.325-0.399-2.019-0.631-0.673-0.231-1.293-0.526-1.861-0.883-0.568-0.378-1.030-0.873-1.388-1.483s-0.536-1.377-0.536-2.303c0-1.051 0.294-1.945 0.883-2.681s1.346-1.304 2.271-1.703c0.946-0.4 1.935-0.599 2.965-0.599 0.652 0 1.335 0.084 2.050 0.252 0.715 0.147 1.398 0.399 2.051 0.757 0.652 0.337 1.199 0.789 1.64 1.356 0.232 0.315 0.368 0.694 0.41 1.136s-0.158 0.841-0.6 1.199c-0.315 0.252-0.683 0.368-1.104 0.347-0.42-0.042-0.767-0.189-1.041-0.442-0.358-0.463-0.841-0.831-1.451-1.104-0.589-0.273-1.272-0.41-2.050-0.41-0.316 0-0.662 0.042-1.041 0.126-0.358 0.063-0.673 0.221-0.947 0.473-0.273 0.231-0.41 0.61-0.41 1.136 0 0.484 0.157 0.873 0.473 1.167 0.315 0.273 0.736 0.505 1.262 0.694 0.547 0.168 1.125 0.336 1.735 0.505 0.63 0.168 1.272 0.368 1.923 0.599s1.251 0.536 1.798 0.915c0.547 0.379 0.989 0.873 1.325 1.483 0.337 0.589 0.505 1.346 0.505 2.271 0 1.073-0.315 1.987-0.946 2.744s-1.42 1.335-2.366 1.735c-0.946 0.378-1.914 0.568-2.902 0.568-1.24 0-2.481-0.21-3.722-0.631-1.241-0.442-2.271-1.209-3.091-2.303z"></path>
</symbol>
<symbol id="icon-nextmove" viewBox="0 0 218 32">
<path fill="#b4e8ff" style="fill: var(--color1, #b4e8ff)" d="M40.381 29.037v-27.89h5.1l13.108 19.642v-19.642h5.1v27.89h-5.1l-13.108-19.602v19.602h-5.1z"></path>
<path fill="#b4e8ff" style="fill: var(--color1, #b4e8ff)" d="M76.586 29.515c-1.992 0-3.759-0.425-5.299-1.275s-2.749-2.045-3.626-3.586c-0.876-1.541-1.315-3.32-1.315-5.339 0-2.045 0.425-3.865 1.275-5.458 0.877-1.594 2.072-2.829 3.586-3.705 1.541-0.903 3.347-1.355 5.418-1.355 1.939 0 3.653 0.425 5.14 1.275s2.643 2.019 3.466 3.506c0.85 1.461 1.275 3.094 1.275 4.901 0 0.292-0.014 0.598-0.040 0.916 0 0.319-0.014 0.651-0.040 0.996h-15.020c0.106 1.541 0.638 2.749 1.594 3.626 0.983 0.877 2.165 1.315 3.546 1.315 1.035 0 1.899-0.226 2.59-0.677 0.717-0.478 1.248-1.089 1.593-1.833h5.179c-0.372 1.248-0.996 2.391-1.872 3.426-0.85 1.009-1.912 1.806-3.188 2.391-1.248 0.584-2.669 0.877-4.263 0.877zM76.626 12.941c-1.248 0-2.351 0.359-3.307 1.076-0.956 0.691-1.567 1.753-1.833 3.187h9.841c-0.080-1.302-0.558-2.337-1.435-3.108s-1.966-1.155-3.267-1.155z"></path>
<path fill="#b4e8ff" style="fill: var(--color1, #b4e8ff)" d="M85.57 29.037l7.172-9.881-7.172-9.881h5.458l5.020 7.012 4.98-7.012h5.499l-7.211 9.881 7.211 9.881h-5.499l-4.98-7.012-5.020 7.012h-5.458z"></path>
<path fill="#b4e8ff" style="fill: var(--color1, #b4e8ff)" d="M116.588 29.037c-2.072 0-3.732-0.505-4.98-1.514s-1.873-2.802-1.873-5.379v-8.606h-3.387v-4.263h3.387l0.597-5.299h4.502v5.299h5.339v4.263h-5.339v8.646c0 0.956 0.2 1.62 0.598 1.992 0.425 0.345 1.142 0.518 2.152 0.518h2.47v4.343h-3.467z"></path>
<path fill="#b4e8ff" style="fill: var(--color1, #b4e8ff)" d="M122.561 29.037v-19.762h4.502l0.438 2.669c0.638-0.956 1.474-1.713 2.51-2.271 1.062-0.584 2.284-0.877 3.666-0.877 3.054 0 5.219 1.182 6.494 3.546 0.717-1.089 1.673-1.952 2.869-2.59 1.221-0.637 2.549-0.956 3.984-0.956 2.577 0 4.555 0.77 5.937 2.311s2.072 3.798 2.072 6.773v11.156h-5.1v-10.678c0-1.7-0.331-3.001-0.996-3.905-0.638-0.903-1.634-1.355-2.988-1.355-1.381 0-2.497 0.505-3.347 1.514-0.823 1.009-1.235 2.417-1.235 4.223v10.2h-5.099v-10.678c0-1.7-0.332-3.001-0.996-3.905s-1.687-1.355-3.068-1.355c-1.355 0-2.457 0.505-3.307 1.514-0.824 1.009-1.235 2.417-1.235 4.223v10.2h-5.1z"></path>
<path fill="#b4e8ff" style="fill: var(--color1, #b4e8ff)" d="M167.365 29.515c-1.912 0-3.639-0.438-5.179-1.315-1.514-0.877-2.723-2.085-3.626-3.626-0.876-1.567-1.315-3.373-1.315-5.419s0.452-3.838 1.355-5.379c0.904-1.567 2.112-2.789 3.626-3.666 1.541-0.877 3.267-1.315 5.179-1.315 1.886 0 3.586 0.438 5.1 1.315 1.541 0.877 2.749 2.098 3.625 3.666 0.904 1.541 1.355 3.334 1.355 5.379s-0.451 3.851-1.355 5.419c-0.876 1.541-2.085 2.749-3.625 3.626s-3.254 1.315-5.14 1.315zM167.365 25.093c1.328 0 2.483-0.491 3.466-1.474 0.983-1.009 1.474-2.497 1.474-4.462s-0.491-3.44-1.474-4.422c-0.983-1.009-2.125-1.514-3.426-1.514-1.355 0-2.523 0.505-3.506 1.514-0.956 0.983-1.434 2.457-1.434 4.422s0.478 3.453 1.434 4.462c0.983 0.983 2.139 1.474 3.467 1.474z"></path>
<path fill="#b4e8ff" style="fill: var(--color1, #b4e8ff)" d="M184.418 29.037l-7.251-19.762h5.339l5.020 14.941 5.020-14.941h5.339l-7.291 19.762h-6.175z"></path>
<path fill="#b4e8ff" style="fill: var(--color1, #b4e8ff)" d="M207.739 29.515c-1.992 0-3.758-0.425-5.299-1.275s-2.749-2.045-3.626-3.586c-0.876-1.541-1.314-3.32-1.314-5.339 0-2.045 0.425-3.865 1.275-5.458 0.877-1.594 2.072-2.829 3.586-3.705 1.541-0.903 3.346-1.355 5.418-1.355 1.939 0 3.653 0.425 5.14 1.275s2.643 2.019 3.467 3.506c0.85 1.461 1.275 3.094 1.275 4.901 0 0.292-0.013 0.598-0.040 0.916 0 0.319-0.014 0.651-0.040 0.996h-15.021c0.106 1.541 0.638 2.749 1.594 3.626 0.983 0.877 2.165 1.315 3.546 1.315 1.035 0 1.899-0.226 2.59-0.677 0.717-0.478 1.248-1.089 1.594-1.833h5.179c-0.372 1.248-0.997 2.391-1.873 3.426-0.85 1.009-1.912 1.806-3.188 2.391-1.248 0.584-2.669 0.877-4.263 0.877zM207.778 12.941c-1.248 0-2.35 0.359-3.307 1.076-0.956 0.691-1.567 1.753-1.832 3.187h9.841c-0.080-1.302-0.558-2.337-1.435-3.108s-1.965-1.155-3.267-1.155z"></path>
<path fill="#b4e8ff" style="fill: var(--color1, #b4e8ff)" d="M15.533 0.605v12.608c0 1.439-1.167 2.606-2.606 2.606h-12.608v-5.211h6.31l-6.63-6.63 3.685-3.685 6.637 6.637v-6.324h5.211z"></path>
<path fill="#b4e8ff" style="fill: var(--color1, #b4e8ff)" d="M30.925 15.997h-12.608c-1.439 0-2.606 1.167-2.606 2.606v12.608h5.211v-6.311l6.631 6.631 3.685-3.685-6.637-6.637h6.324v-5.211z"></path>
</symbol>
<symbol id="icon-pronature" viewBox="0 0 136 32">
<path fill="#b4e8ff" style="fill: var(--color1, #b4e8ff)" d="M40.127 8.592c1.291 0 2.408 0.215 3.352 0.645 0.958 0.43 1.693 1.041 2.207 1.832s0.77 1.728 0.77 2.811c0 1.069-0.257 2.005-0.77 2.811-0.514 0.791-1.249 1.402-2.207 1.832-0.944 0.416-2.061 0.625-3.352 0.625h-2.935v4.018h-3.373v-14.573h6.308zM39.939 16.399c1.013 0 1.784-0.215 2.311-0.645 0.527-0.444 0.791-1.069 0.791-1.874 0-0.819-0.264-1.443-0.791-1.874-0.527-0.444-1.298-0.666-2.311-0.666h-2.748v5.059h2.748z"></path>
<path fill="#b4e8ff" style="fill: var(--color1, #b4e8ff)" d="M50.695 13.443c0.389-0.541 0.909-0.951 1.561-1.228 0.666-0.278 1.43-0.416 2.29-0.416v2.998c-0.361-0.028-0.604-0.042-0.729-0.042-0.93 0-1.659 0.264-2.186 0.791-0.527 0.513-0.791 1.291-0.791 2.332v5.288h-3.248v-11.201h3.102v1.478z"></path>
<path fill="#b4e8ff" style="fill: var(--color1, #b4e8ff)" d="M60.665 23.332c-1.18 0-2.242-0.243-3.185-0.729-0.93-0.5-1.659-1.187-2.186-2.061s-0.791-1.867-0.791-2.977 0.264-2.103 0.791-2.977c0.527-0.874 1.256-1.554 2.186-2.040 0.944-0.5 2.006-0.749 3.185-0.749s2.235 0.25 3.164 0.749c0.93 0.486 1.659 1.166 2.186 2.040s0.791 1.867 0.791 2.977-0.264 2.103-0.791 2.977c-0.527 0.874-1.256 1.561-2.186 2.061-0.93 0.486-1.985 0.729-3.164 0.729zM60.665 20.667c0.833 0 1.513-0.278 2.040-0.833 0.541-0.569 0.812-1.325 0.812-2.269s-0.271-1.693-0.812-2.248c-0.527-0.569-1.208-0.854-2.040-0.854s-1.52 0.284-2.061 0.854c-0.541 0.555-0.812 1.305-0.812 2.248s0.271 1.7 0.812 2.269c0.541 0.555 1.228 0.833 2.061 0.833z"></path>
<path fill="#b4e8ff" style="fill: var(--color1, #b4e8ff)" d="M81.531 8.592v14.573h-2.769l-7.265-8.848v8.848h-3.331v-14.573h2.79l7.245 8.848v-8.848h3.331z"></path>
<path fill="#b4e8ff" style="fill: var(--color1, #b4e8ff)" d="M88.227 11.798c1.735 0 3.067 0.416 3.997 1.249 0.93 0.819 1.395 2.061 1.395 3.727v6.391h-3.039v-1.395c-0.611 1.041-1.749 1.561-3.414 1.561-0.861 0-1.61-0.146-2.249-0.437-0.624-0.291-1.103-0.694-1.436-1.207s-0.5-1.096-0.5-1.749c0-1.041 0.389-1.86 1.166-2.457 0.791-0.597 2.006-0.895 3.643-0.895h2.582c0-0.708-0.215-1.249-0.645-1.624-0.43-0.389-1.076-0.583-1.936-0.583-0.596 0-1.187 0.097-1.77 0.291-0.569 0.18-1.055 0.43-1.457 0.749l-1.166-2.269c0.611-0.43 1.339-0.763 2.186-0.999 0.861-0.236 1.742-0.354 2.644-0.354zM87.977 21.146c0.556 0 1.048-0.125 1.478-0.375 0.43-0.264 0.736-0.645 0.916-1.145v-1.145h-2.228c-1.332 0-1.998 0.437-1.998 1.312 0 0.416 0.159 0.749 0.479 0.999 0.333 0.236 0.784 0.354 1.353 0.354z"></path>
<path fill="#b4e8ff" style="fill: var(--color1, #b4e8ff)" d="M102.742 22.624c-0.319 0.236-0.715 0.416-1.187 0.541-0.458 0.111-0.944 0.167-1.458 0.167-1.332 0-2.366-0.34-3.102-1.020-0.722-0.68-1.083-1.679-1.083-2.998v-4.601h-1.728v-2.498h1.728v-2.727h3.248v2.727h2.79v2.498h-2.79v4.559c0 0.472 0.118 0.84 0.354 1.103 0.25 0.25 0.597 0.375 1.041 0.375 0.513 0 0.95-0.139 1.311-0.416l0.875 2.29z"></path>
<path fill="#b4e8ff" style="fill: var(--color1, #b4e8ff)" d="M114.808 11.964v11.201h-3.082v-1.332c-0.43 0.486-0.944 0.86-1.541 1.124-0.596 0.25-1.242 0.375-1.936 0.375-1.471 0-2.637-0.423-3.498-1.27s-1.291-2.103-1.291-3.768v-6.329h3.248v5.85c0 1.804 0.756 2.706 2.269 2.706 0.777 0 1.402-0.25 1.874-0.749 0.472-0.514 0.708-1.27 0.708-2.269v-5.538h3.248z"></path>
<path fill="#b4e8ff" style="fill: var(--color1, #b4e8ff)" d="M119.877 13.443c0.389-0.541 0.909-0.951 1.561-1.228 0.667-0.278 1.43-0.416 2.29-0.416v2.998c-0.361-0.028-0.604-0.042-0.728-0.042-0.93 0-1.659 0.264-2.186 0.791-0.528 0.513-0.791 1.291-0.791 2.332v5.288h-3.248v-11.201h3.102v1.478z"></path>
<path fill="#b4e8ff" style="fill: var(--color1, #b4e8ff)" d="M135.489 17.606c0 0.042-0.021 0.333-0.063 0.874h-8.473c0.153 0.694 0.513 1.242 1.083 1.645s1.277 0.604 2.124 0.604c0.583 0 1.096-0.083 1.54-0.25 0.458-0.18 0.882-0.458 1.27-0.833l1.728 1.874c-1.055 1.207-2.595 1.811-4.622 1.811-1.263 0-2.38-0.243-3.352-0.729-0.972-0.5-1.721-1.187-2.248-2.061s-0.791-1.867-0.791-2.977c0-1.096 0.257-2.082 0.77-2.956 0.528-0.888 1.243-1.575 2.145-2.061 0.916-0.5 1.936-0.749 3.060-0.749 1.096 0 2.089 0.236 2.977 0.708s1.582 1.152 2.082 2.040c0.513 0.874 0.771 1.894 0.771 3.060zM129.68 14.255c-0.735 0-1.353 0.208-1.853 0.625s-0.805 0.985-0.916 1.707h5.518c-0.111-0.708-0.417-1.27-0.916-1.686-0.5-0.43-1.11-0.645-1.832-0.645z"></path>
<path fill="#b4e8ff" style="fill: var(--color1, #b4e8ff)" d="M15.323 0.476c-0.495-0.286-1.105-0.286-1.6 0-3.515 2.033-5.885 5.837-5.885 10.197 0 0.621 0.048 1.231 0.141 1.827-2.42-0.822-5.039-0.523-7.179 0.71-0.495 0.285-0.8 0.814-0.8 1.385 0.003 3.016 1.569 5.955 4.375 7.575 1.377 0.795 2.879 1.172 4.361 1.173-0.226 0.639-0.348 1.326-0.348 2.042 0 3.388 2.747 6.135 6.135 6.135s6.135-2.747 6.135-6.135c0-0.718-0.123-1.407-0.35-2.047 1.394-0.044 2.797-0.422 4.090-1.169 2.806-1.62 4.373-4.559 4.375-7.575 0.001-0.572-0.305-1.1-0.8-1.385-2.056-1.184-4.554-1.507-6.892-0.802 0.084-0.566 0.127-1.145 0.127-1.735 0-4.36-2.371-8.164-5.885-10.197zM11.033 10.673c0-2.831 1.371-5.343 3.49-6.907 2.119 1.564 3.49 4.076 3.49 6.907s-1.371 5.344-3.49 6.907c-2.12-1.564-3.49-4.076-3.49-6.907zM20.824 15.979c1.475-0.852 3.18-0.951 4.669-0.412-0.278 1.559-1.216 2.986-2.691 3.837s-3.18 0.951-4.669 0.412c0.278-1.559 1.216-2.986 2.691-3.837zM3.281 15.566c1.489-0.539 3.194-0.44 4.669 0.412s2.413 2.278 2.691 3.837c-1.489 0.539-3.194 0.44-4.669-0.412s-2.413-2.278-2.691-3.837zM11.583 25.386c0-1.624 1.316-2.94 2.94-2.94s2.94 1.316 2.94 2.94c0 1.624-1.316 2.94-2.94 2.94s-2.94-1.316-2.94-2.94z"></path>
</symbol>
<symbol id="facebook-ic" viewBox="0 0 30 32">
<path fill="#3e4957" style="fill: var(--color1, #3e4957)" d="M25.875 1.671h-21.434c-2.448 0-4.441 1.992-4.441 4.441v21.434c0 2.448 1.992 4.441 4.441 4.441h8.941v-10.717h-3.553v-5.329h3.553v-3.612c0-2.939 2.39-5.329 5.329-5.329h5.388v5.329h-5.388v3.612h5.388l-0.888 5.329h-4.5v10.717h7.164c2.448 0 4.441-1.992 4.441-4.441v-21.434c0-2.448-1.992-4.441-4.441-4.441z"></path>
</symbol>
<symbol id="instagram-ic" viewBox="0 0 30 32">
<path fill="#3e4957" style="fill: var(--color1, #3e4957)" d="M20.799 1.671h-11.345c-5.221 0-9.454 4.242-9.454 9.474v11.368c0 5.231 4.234 9.474 9.454 9.474h11.345c5.22 0 9.454-4.242 9.454-9.474v-11.368c0-5.231-4.234-9.474-9.454-9.474zM27.417 22.513c0 3.657-2.969 6.632-6.618 6.632h-11.345c-3.649 0-6.618-2.975-6.618-6.632v-11.368c0-3.657 2.969-6.632 6.618-6.632h11.345c3.649 0 6.618 2.975 6.618 6.632v11.368z"></path>
<path fill="#3e4957" style="fill: var(--color1, #3e4957)" d="M15.126 9.25c-4.177 0-7.563 3.393-7.563 7.579s3.386 7.579 7.563 7.579c4.177 0 7.563-3.394 7.563-7.579s-3.386-7.579-7.563-7.579zM15.126 21.566c-2.606 0-4.727-2.126-4.727-4.737 0-2.613 2.121-4.737 4.727-4.737s4.727 2.124 4.727 4.737c0 2.611-2.121 4.737-4.727 4.737z"></path>
<path fill="#3e4957" style="fill: var(--color1, #3e4957)" d="M23.256 9.692c0.557 0 1.008-0.452 1.008-1.010s-0.451-1.010-1.008-1.010c-0.556 0-1.008 0.452-1.008 1.010s0.451 1.010 1.008 1.010z"></path>
</symbol>
<symbol id="twitter-ic" viewBox="0 0 32 32">
<path fill="#3e4957" style="fill: var(--color1, #3e4957)" d="M30.99 7.429c-1.127 0.495-2.329 0.822-3.581 0.981 1.288-0.769 2.272-1.978 2.734-3.435-1.201 0.716-2.527 1.222-3.941 1.504-1.141-1.215-2.766-1.967-4.54-1.967-3.441 0-6.211 2.793-6.211 6.217 0 0.493 0.042 0.966 0.144 1.417-5.167-0.252-9.739-2.728-12.81-6.501-0.536 0.93-0.851 1.995-0.851 3.141 0 2.152 1.108 4.060 2.761 5.165-0.999-0.019-1.978-0.309-2.808-0.765 0 0.019 0 0.044 0 0.068 0 3.020 2.154 5.529 4.979 6.107-0.506 0.138-1.057 0.205-1.629 0.205-0.398 0-0.8-0.023-1.177-0.106 0.805 2.461 3.090 4.271 5.807 4.329-2.115 1.654-4.799 2.651-7.706 2.651-0.51 0-0.999-0.023-1.487-0.085 2.753 1.775 6.016 2.789 9.534 2.789 11.437 0 17.689-9.474 17.689-17.686 0-0.275-0.009-0.54-0.023-0.803 1.234-0.875 2.27-1.969 3.115-3.227z"></path>
</symbol>
<symbol id="youtube-ic" viewBox="0 0 30 32">
<path fill="#3e4957" style="fill: var(--color1, #3e4957)" d="M29.027 8.416c-0.822-1.463-1.715-1.732-3.532-1.834-1.815-0.123-6.38-0.174-10.334-0.174-3.962 0-8.528 0.051-10.341 0.172-1.813 0.104-2.708 0.371-3.537 1.836-0.847 1.461-1.283 3.977-1.283 8.407 0 0.004 0 0.006 0 0.006 0 0.004 0 0.006 0 0.006v0.004c0 4.411 0.436 6.946 1.283 8.392 0.83 1.463 1.722 1.728 3.536 1.851 1.815 0.106 6.381 0.169 10.343 0.169 3.954 0 8.519-0.062 10.336-0.167 1.817-0.123 2.71-0.388 3.532-1.851 0.855-1.446 1.287-3.981 1.287-8.392 0 0 0-0.006 0-0.009 0 0 0-0.004 0-0.006 0-4.432-0.432-6.948-1.288-8.409zM11.368 22.513v-11.368l9.474 5.684-9.474 5.684z"></path>
</symbol>
<symbol id="icon-qr" viewBox="0 0 59 32">
<path fill="#9b27af" style="fill: var(--color2, #9b27af)" d="M38.259 16.824l4.708 4.708-1.695 1.695-4.708-4.708 1.695-1.695z"></path>
<path fill="#9b27af" style="fill: var(--color2, #9b27af)" d="M35.934 20.322c-2.133 0-3.861-1.729-3.861-3.861s1.729-3.861 3.861-3.861c2.133 0 3.861 1.729 3.861 3.861s-1.729 3.861-3.861 3.861zM35.934 22.718c3.456 0 6.258-2.802 6.258-6.258s-2.802-6.258-6.258-6.258c-3.456 0-6.258 2.802-6.258 6.258s2.802 6.258 6.258 6.258z"></path>
<path fill="#9b27af" style="fill: var(--color2, #9b27af)" d="M52.43 22.719l-2.409-3.479h-2.658v3.479h-2.891v-12.489h5.406c1.106 0 2.064 0.184 2.873 0.553 0.821 0.369 1.451 0.892 1.891 1.57s0.66 1.481 0.66 2.409c0 0.928-0.226 1.731-0.678 2.409-0.44 0.666-1.071 1.178-1.891 1.535l2.801 4.014h-3.105zM52.376 14.761c0-0.702-0.226-1.237-0.678-1.606-0.452-0.381-1.112-0.571-1.98-0.571h-2.355v4.353h2.355c0.868 0 1.528-0.19 1.98-0.571s0.678-0.916 0.678-1.606z"></path>
<path fill="#fff" style="fill: var(--color3, #fff)" d="M11.365 22.719l-0.018-7.494-3.675 6.173h-1.302l-3.658-6.013v7.333h-2.712v-12.489h2.391l4.675 7.761 4.603-7.761h2.373l0.036 12.489h-2.712z"></path>
<path fill="#fff" style="fill: var(--color3, #fff)" d="M26.711 20.399v2.319h-9.67v-12.489h9.438v2.319h-6.566v2.712h5.799v2.248h-5.799v2.89h6.798z"></path>
<path fill="#9b27af" style="fill: var(--color2, #9b27af)" d="M53.111 3.279h2.929v2.929h2.397v-2.929c0-1.324-1.073-2.397-2.397-2.397h-2.929v2.397zM58.437 26.447h-2.397v2.929h-2.929v2.397h2.929c1.324 0 2.397-1.073 2.397-2.397v-2.929zM32.872 31.773v-2.397h-2.929v-2.929h-2.397v2.929c0 1.324 1.073 2.397 2.397 2.397h2.929zM27.546 6.208h2.397v-2.929h2.929v-2.397h-2.929c-1.324 0-2.397 1.073-2.397 2.397v2.929z"></path>
</symbol>
<symbol id="icon-review" viewBox="0 0 135 32">
<path fill="#f5bf00" style="fill: var(--color4, #f5bf00)" d="M38.259 16.824l4.708 4.708-1.695 1.695-4.708-4.708 1.695-1.695z"></path>
<path fill="#f5bf00" style="fill: var(--color4, #f5bf00)" d="M35.934 20.322c-2.133 0-3.861-1.729-3.861-3.861s1.729-3.861 3.861-3.861c2.133 0 3.861 1.729 3.861 3.861s-1.729 3.861-3.861 3.861zM35.934 22.718c3.456 0 6.258-2.802 6.258-6.258s-2.802-6.258-6.258-6.258c-3.456 0-6.258 2.802-6.258 6.258s2.802 6.258 6.258 6.258z"></path>
<path fill="#f5bf00" style="fill: var(--color4, #f5bf00)" d="M52.43 22.719l-2.409-3.479h-2.658v3.479h-2.891v-12.489h5.406c1.106 0 2.064 0.184 2.873 0.553 0.821 0.369 1.451 0.892 1.891 1.57s0.66 1.481 0.66 2.409c0 0.928-0.226 1.731-0.678 2.409-0.44 0.666-1.071 1.178-1.891 1.535l2.801 4.014h-3.105zM52.376 14.761c0-0.702-0.226-1.237-0.678-1.606-0.452-0.381-1.112-0.571-1.98-0.571h-2.355v4.353h2.355c0.868 0 1.528-0.19 1.98-0.571s0.678-0.916 0.678-1.606z"></path>
<path fill="#fff" style="fill: var(--color3, #fff)" d="M67.875 22.719l-2.409-3.479h-2.659v3.479h-2.89v-12.489h5.406c1.106 0 2.064 0.184 2.873 0.553 0.821 0.369 1.451 0.892 1.891 1.57s0.66 1.481 0.66 2.409c0 0.928-0.226 1.731-0.678 2.409-0.44 0.666-1.071 1.178-1.891 1.535l2.801 4.014h-3.105zM67.822 14.761c0-0.702-0.226-1.237-0.678-1.606-0.452-0.381-1.112-0.571-1.98-0.571h-2.355v4.353h2.355c0.868 0 1.528-0.19 1.98-0.571s0.678-0.916 0.678-1.606z"></path>
<path fill="#fff" style="fill: var(--color3, #fff)" d="M82.708 20.399v2.319h-9.67v-12.489h9.439v2.319h-6.566v2.712h5.799v2.248h-5.799v2.89h6.798z"></path>
<path fill="#fff" style="fill: var(--color3, #fff)" d="M96.842 10.229l-5.406 12.489h-2.855l-5.388-12.489h3.122l3.8 8.921 3.854-8.921h2.873z"></path>
<path fill="#fff" style="fill: var(--color3, #fff)" d="M97.884 10.229h2.89v12.489h-2.89v-12.489z"></path>
<path fill="#fff" style="fill: var(--color3, #fff)" d="M113.409 20.399v2.319h-9.67v-12.489h9.438v2.319h-6.565v2.712h5.798v2.248h-5.798v2.89h6.797z"></path>
<path fill="#fff" style="fill: var(--color3, #fff)" d="M134.412 10.229l-4.086 12.489h-3.104l-2.748-8.457-2.837 8.457h-3.086l-4.104-12.489h2.997l2.82 8.778 2.943-8.778h2.676l2.855 8.85 2.908-8.85h2.765z"></path>
<path fill="#fff" style="fill: var(--color3, #fff)" d="M11.365 22.719l-0.018-7.494-3.675 6.173h-1.302l-3.658-6.013v7.333h-2.712v-12.489h2.391l4.675 7.761 4.603-7.761h2.373l0.036 12.489h-2.712z"></path>
<path fill="#fff" style="fill: var(--color3, #fff)" d="M26.711 20.399v2.319h-9.67v-12.489h9.438v2.319h-6.566v2.712h5.799v2.248h-5.799v2.89h6.798z"></path>
<path fill="#f5bf00" style="fill: var(--color4, #f5bf00)" d="M53.111 3.279h2.929v2.929h2.397v-2.929c0-1.324-1.073-2.397-2.397-2.397h-2.929v2.397zM58.437 26.447h-2.397v2.929h-2.929v2.397h2.929c1.324 0 2.397-1.073 2.397-2.397v-2.929zM32.872 31.773v-2.397h-2.929v-2.929h-2.397v2.929c0 1.324 1.073 2.397 2.397 2.397h2.929zM27.546 6.208h2.397v-2.929h2.929v-2.397h-2.929c-1.324 0-2.397 1.073-2.397 2.397v2.929z"></path>
</symbol>
<symbol id="icon-city" viewBox="0 0 101 32">
<path fill="#4f52ff" style="fill: var(--color5, #4f52ff)" d="M38.259 16.824l4.708 4.708-1.695 1.695-4.708-4.708 1.695-1.695z"></path>
<path fill="#4f52ff" style="fill: var(--color5, #4f52ff)" d="M35.934 20.322c-2.133 0-3.861-1.729-3.861-3.861s1.729-3.861 3.861-3.861c2.133 0 3.861 1.729 3.861 3.861s-1.729 3.861-3.861 3.861zM35.934 22.718c3.456 0 6.258-2.802 6.258-6.258s-2.802-6.258-6.258-6.258c-3.456 0-6.258 2.802-6.258 6.258s2.802 6.258 6.258 6.258z"></path>
<path fill="#4f52ff" style="fill: var(--color5, #4f52ff)" d="M52.43 22.719l-2.409-3.479h-2.658v3.479h-2.891v-12.489h5.406c1.106 0 2.064 0.184 2.873 0.553 0.821 0.369 1.451 0.892 1.891 1.57s0.66 1.481 0.66 2.409c0 0.928-0.226 1.731-0.678 2.409-0.44 0.666-1.071 1.178-1.891 1.535l2.801 4.014h-3.105zM52.376 14.761c0-0.702-0.226-1.237-0.678-1.606-0.452-0.381-1.112-0.571-1.98-0.571h-2.355v4.353h2.355c0.868 0 1.528-0.19 1.98-0.571s0.678-0.916 0.678-1.606z"></path>
<path fill="#fff" style="fill: var(--color3, #fff)" d="M65.894 22.932c-1.273 0-2.426-0.274-3.461-0.821-1.023-0.559-1.832-1.326-2.426-2.302-0.583-0.987-0.874-2.099-0.874-3.336s0.291-2.343 0.874-3.319c0.595-0.987 1.404-1.754 2.426-2.302 1.035-0.559 2.195-0.839 3.479-0.839 1.082 0 2.058 0.19 2.926 0.571 0.88 0.381 1.618 0.928 2.212 1.642l-1.856 1.713c-0.845-0.975-1.891-1.463-3.14-1.463-0.773 0-1.463 0.172-2.070 0.517-0.607 0.333-1.082 0.803-1.427 1.409-0.333 0.607-0.5 1.297-0.5 2.070s0.166 1.463 0.5 2.070c0.345 0.607 0.821 1.082 1.427 1.427 0.607 0.333 1.297 0.5 2.070 0.5 1.249 0 2.296-0.494 3.14-1.481l1.856 1.713c-0.595 0.726-1.332 1.279-2.212 1.659s-1.862 0.571-2.944 0.571z"></path>
<path fill="#fff" style="fill: var(--color3, #fff)" d="M73.002 10.229h2.89v12.489h-2.89v-12.489z"></path>
<path fill="#fff" style="fill: var(--color3, #fff)" d="M81.444 12.584h-3.997v-2.355h10.884v2.355h-3.997v10.134h-2.891v-10.134z"></path>
<path fill="#fff" style="fill: var(--color3, #fff)" d="M95.654 18.294v4.425h-2.89v-4.461l-4.836-8.029h3.068l3.337 5.549 3.336-5.549h2.837l-4.853 8.065z"></path>
<path fill="#fff" style="fill: var(--color3, #fff)" d="M11.365 22.719l-0.018-7.494-3.675 6.173h-1.302l-3.658-6.013v7.333h-2.712v-12.489h2.391l4.675 7.761 4.603-7.761h2.373l0.036 12.489h-2.712z"></path>
<path fill="#fff" style="fill: var(--color3, #fff)" d="M26.711 20.399v2.319h-9.67v-12.489h9.438v2.319h-6.566v2.712h5.799v2.248h-5.799v2.89h6.798z"></path>
<path fill="#4f52ff" style="fill: var(--color5, #4f52ff)" d="M53.111 3.279h2.929v2.929h2.397v-2.929c0-1.324-1.073-2.397-2.397-2.397h-2.929v2.397z"></path>
<path fill="#4f52ff" style="fill: var(--color5, #4f52ff)" d="M58.437 26.447h-2.397v2.929h-2.929v2.397h2.929c1.324 0 2.397-1.073 2.397-2.397v-2.929z"></path>
<path fill="#4f52ff" style="fill: var(--color5, #4f52ff)" d="M32.872 31.773v-2.397h-2.929v-2.929h-2.397v2.929c0 1.324 1.073 2.397 2.397 2.397h2.929z"></path>
<path fill="#4f52ff" style="fill: var(--color5, #4f52ff)" d="M27.546 6.208h2.397v-2.929h2.929v-2.397h-2.929c-1.324 0-2.397 1.073-2.397 2.397v2.929z"></path>
</symbol>
<symbol id="icon-promo" viewBox="0 0 103 32">
<path fill="#fff" style="fill: var(--color3, #fff)" d="M11.365 22.717l-0.018-7.493-3.675 6.173h-1.302l-3.657-6.012v7.333h-2.712v-12.489h2.391l4.674 7.761 4.603-7.761h2.373l0.036 12.489h-2.712z"></path>
<path fill="#fff" style="fill: var(--color3, #fff)" d="M26.709 20.398v2.319h-9.67v-12.489h9.438v2.319h-6.566v2.712h5.798v2.248h-5.798v2.89h6.797z"></path>
<path fill="#eb5647" style="fill: var(--color6, #eb5647)" d="M34.963 10.228c1.106 0 2.064 0.184 2.872 0.553 0.821 0.369 1.451 0.892 1.891 1.57s0.66 1.481 0.66 2.409c0 0.916-0.22 1.719-0.66 2.409-0.44 0.678-1.070 1.201-1.891 1.57-0.809 0.357-1.766 0.535-2.872 0.535h-2.516v3.443h-2.89v-12.489h5.406zM34.803 16.919c0.868 0 1.528-0.184 1.98-0.553 0.452-0.381 0.678-0.916 0.678-1.606 0-0.702-0.226-1.237-0.678-1.606-0.452-0.381-1.112-0.571-1.98-0.571h-2.355v4.335h2.355z"></path>
<path fill="#eb5647" style="fill: var(--color6, #eb5647)" d="M50.407 22.717l-2.409-3.479h-2.658v3.479h-2.89v-12.489h5.406c1.106 0 2.064 0.184 2.872 0.553 0.821 0.369 1.451 0.892 1.891 1.57s0.66 1.481 0.66 2.409-0.226 1.731-0.678 2.409c-0.44 0.666-1.071 1.177-1.891 1.534l2.801 4.014h-3.104zM50.354 14.76c0-0.702-0.226-1.237-0.678-1.606-0.452-0.381-1.112-0.571-1.98-0.571h-2.355v4.353h2.355c0.868 0 1.528-0.19 1.98-0.571s0.678-0.916 0.678-1.606z"></path>
<path fill="#eb5647" style="fill: var(--color6, #eb5647)" d="M61.618 22.931c-1.296 0-2.468-0.279-3.515-0.838-1.035-0.559-1.849-1.326-2.444-2.302-0.583-0.987-0.874-2.093-0.874-3.318s0.291-2.325 0.874-3.301c0.595-0.987 1.409-1.76 2.444-2.319 1.047-0.559 2.218-0.839 3.515-0.839s2.462 0.28 3.497 0.839c1.035 0.559 1.85 1.332 2.444 2.319 0.595 0.975 0.892 2.075 0.892 3.301s-0.297 2.331-0.892 3.318c-0.595 0.975-1.409 1.742-2.444 2.302s-2.2 0.838-3.497 0.838zM61.618 20.469c0.737 0 1.403-0.166 1.998-0.5 0.595-0.345 1.059-0.821 1.392-1.427 0.345-0.607 0.517-1.296 0.517-2.070s-0.172-1.463-0.517-2.070c-0.333-0.607-0.797-1.076-1.392-1.409-0.595-0.345-1.261-0.517-1.998-0.517s-1.404 0.172-1.998 0.517c-0.595 0.333-1.065 0.803-1.409 1.409-0.333 0.607-0.5 1.296-0.5 2.070s0.166 1.463 0.5 2.070c0.345 0.607 0.815 1.082 1.409 1.427 0.595 0.333 1.261 0.5 1.998 0.5z"></path>
<path fill="#eb5647" style="fill: var(--color6, #eb5647)" d="M81.988 22.717l-0.018-7.493-3.675 6.173h-1.302l-3.657-6.012v7.333h-2.712v-12.489h2.391l4.674 7.761 4.603-7.761h2.373l0.036 12.489h-2.712z"></path>
<path fill="#eb5647" style="fill: var(--color6, #eb5647)" d="M93.71 22.931c-1.296 0-2.468-0.279-3.515-0.838-1.035-0.559-1.849-1.326-2.444-2.302-0.583-0.987-0.874-2.093-0.874-3.318s0.291-2.325 0.874-3.301c0.595-0.987 1.409-1.76 2.444-2.319 1.047-0.559 2.219-0.839 3.515-0.839s2.462 0.28 3.497 0.839 1.85 1.332 2.444 2.319c0.595 0.975 0.892 2.075 0.892 3.301s-0.298 2.331-0.892 3.318c-0.595 0.975-1.41 1.742-2.444 2.302s-2.2 0.838-3.497 0.838zM93.71 20.469c0.738 0 1.404-0.166 1.998-0.5 0.595-0.345 1.059-0.821 1.392-1.427 0.345-0.607 0.517-1.296 0.517-2.070s-0.172-1.463-0.517-2.070c-0.333-0.607-0.797-1.076-1.392-1.409-0.595-0.345-1.26-0.517-1.998-0.517s-1.404 0.172-1.998 0.517c-0.595 0.333-1.064 0.803-1.409 1.409-0.333 0.607-0.5 1.296-0.5 2.070s0.166 1.463 0.5 2.070c0.345 0.607 0.814 1.082 1.409 1.427 0.595 0.333 1.261 0.5 1.998 0.5z"></path>
<path fill="#eb5647" style="fill: var(--color6, #eb5647)" d="M98.467 3.279h2.375v2.929h1.943v-2.929c0-1.324-0.869-2.397-1.943-2.397h-2.375v2.397zM31.745 3.279v-2.397h-2.375c-1.073 0-1.943 1.073-1.943 2.397v2.929h1.943v-2.929h2.375zM29.37 26.445h-1.943v2.929c0 1.324 0.87 2.397 1.943 2.397h2.375v-2.397h-2.375v-2.929zM98.467 29.374v2.397h2.375c1.074 0 1.943-1.073 1.943-2.397v-2.929h-1.943v2.929h-2.375z"></path>
</symbol>
<symbol id="icon-ads" viewBox="0 0 68 32">
<path fill="#fff" style="fill: var(--color3, #fff)" d="M11.365 22.717l-0.018-7.493-3.675 6.173h-1.302l-3.657-6.012v7.333h-2.712v-12.489h2.391l4.674 7.761 4.603-7.761h2.373l0.036 12.489h-2.712z"></path>
<path fill="#fff" style="fill: var(--color3, #fff)" d="M26.709 20.398v2.319h-9.67v-12.489h9.438v2.319h-6.566v2.712h5.798v2.248h-5.798v2.89h6.797z"></path>
<path fill="#2fc1a0" style="fill: var(--color7, #2fc1a0)" d="M62.427 3.279h2.929v2.929h2.397v-2.929c0-1.324-1.073-2.397-2.397-2.397h-2.929v2.397zM32.87 3.279v-2.397h-2.929c-1.324 0-2.397 1.073-2.397 2.397v2.929h2.397v-2.929h2.929zM29.941 26.445h-2.397v2.929c0 1.324 1.073 2.397 2.397 2.397h2.929v-2.397h-2.929v-2.929zM62.427 29.374v2.397h2.929c1.324 0 2.397-1.073 2.397-2.397v-2.929h-2.397v2.929h-2.929z"></path>
<path fill="#2fc1a0" style="fill: var(--color7, #2fc1a0)" d="M37.782 20.041h-5.798l-1.106 2.676h-2.962l5.566-12.489h2.855l5.584 12.489h-3.033l-1.106-2.676zM36.872 17.846l-1.98-4.781-1.98 4.781h3.961z"></path>
<path fill="#2fc1a0" style="fill: var(--color7, #2fc1a0)" d="M43.217 10.228h5.673c1.356 0 2.551 0.262 3.586 0.785 1.047 0.511 1.855 1.237 2.426 2.177 0.583 0.94 0.874 2.034 0.874 3.283s-0.291 2.343-0.874 3.283c-0.571 0.94-1.38 1.671-2.426 2.195-1.035 0.511-2.23 0.767-3.586 0.767h-5.673v-12.489zM48.747 20.344c1.249 0 2.242-0.345 2.979-1.035 0.749-0.702 1.124-1.647 1.124-2.837s-0.375-2.129-1.124-2.819c-0.737-0.702-1.731-1.053-2.979-1.053h-2.64v7.743h2.64z"></path>
<path fill="#2fc1a0" style="fill: var(--color7, #2fc1a0)" d="M62.060 22.931c-0.987 0-1.945-0.131-2.872-0.393-0.916-0.273-1.653-0.624-2.212-1.053l0.981-2.177c0.535 0.392 1.172 0.708 1.909 0.945s1.475 0.357 2.212 0.357c0.821 0 1.427-0.119 1.82-0.357 0.393-0.25 0.589-0.577 0.589-0.981 0-0.297-0.119-0.541-0.357-0.731-0.226-0.202-0.523-0.363-0.892-0.482-0.357-0.119-0.844-0.25-1.463-0.393-0.952-0.226-1.731-0.452-2.337-0.678s-1.13-0.589-1.57-1.088c-0.428-0.5-0.642-1.166-0.642-1.998 0-0.726 0.196-1.38 0.589-1.963 0.393-0.595 0.981-1.065 1.766-1.409 0.797-0.345 1.766-0.517 2.908-0.517 0.797 0 1.576 0.095 2.337 0.286s1.427 0.464 1.998 0.821l-0.892 2.194c-1.154-0.654-2.307-0.981-3.461-0.981-0.809 0-1.41 0.131-1.802 0.392-0.381 0.262-0.571 0.607-0.571 1.035s0.22 0.749 0.66 0.963c0.452 0.202 1.136 0.404 2.052 0.607 0.952 0.226 1.731 0.452 2.337 0.678s1.124 0.583 1.552 1.070c0.44 0.488 0.66 1.148 0.66 1.98 0 0.714-0.202 1.368-0.607 1.962-0.392 0.583-0.987 1.047-1.784 1.392s-1.766 0.517-2.908 0.517z"></path>
</symbol>
<symbol id="icon-booking" viewBox="0 0 121 32">
<path fill="#eb5647" style="fill: var(--color6, #eb5647)" d="M38.728 16.223c0.714 0.226 1.273 0.607 1.677 1.142 0.404 0.523 0.607 1.172 0.607 1.945 0 1.094-0.428 1.939-1.285 2.533-0.844 0.583-2.081 0.874-3.711 0.874h-6.458v-12.489h6.102c1.522 0 2.688 0.291 3.497 0.874 0.821 0.583 1.231 1.374 1.231 2.373 0 0.607-0.149 1.148-0.446 1.624-0.285 0.476-0.69 0.85-1.213 1.124zM32.43 12.405v2.944h2.872c0.714 0 1.255-0.125 1.623-0.375s0.553-0.619 0.553-1.106c0-0.488-0.184-0.85-0.553-1.088-0.369-0.25-0.91-0.375-1.623-0.375h-2.872zM35.802 20.541c0.761 0 1.332-0.125 1.713-0.375 0.392-0.25 0.589-0.636 0.589-1.16 0-1.035-0.767-1.552-2.301-1.552h-3.372v3.087h3.372z"></path>
<path fill="#eb5647" style="fill: var(--color6, #eb5647)" d="M49.247 22.931c-1.296 0-2.468-0.279-3.515-0.838-1.035-0.559-1.849-1.326-2.444-2.302-0.583-0.987-0.874-2.093-0.874-3.318s0.291-2.325 0.874-3.301c0.595-0.987 1.409-1.76 2.444-2.319 1.047-0.559 2.218-0.839 3.515-0.839s2.462 0.28 3.497 0.839c1.035 0.559 1.849 1.332 2.444 2.319 0.595 0.975 0.892 2.075 0.892 3.301s-0.297 2.331-0.892 3.318c-0.595 0.975-1.409 1.742-2.444 2.302s-2.2 0.838-3.497 0.838zM49.247 20.469c0.737 0 1.403-0.166 1.998-0.5 0.595-0.345 1.059-0.821 1.392-1.427 0.345-0.607 0.517-1.296 0.517-2.070s-0.172-1.463-0.517-2.070c-0.333-0.607-0.797-1.076-1.392-1.409-0.595-0.345-1.261-0.517-1.998-0.517s-1.403 0.172-1.998 0.517c-0.595 0.333-1.064 0.803-1.409 1.409-0.333 0.607-0.5 1.296-0.5 2.070s0.167 1.463 0.5 2.070c0.345 0.607 0.815 1.082 1.409 1.427 0.595 0.333 1.261 0.5 1.998 0.5z"></path>
<path fill="#eb5647" style="fill: var(--color6, #eb5647)" d="M64.301 22.931c-1.296 0-2.468-0.279-3.515-0.838-1.035-0.559-1.849-1.326-2.444-2.302-0.583-0.987-0.874-2.093-0.874-3.318s0.291-2.325 0.874-3.301c0.595-0.987 1.409-1.76 2.444-2.319 1.047-0.559 2.218-0.839 3.515-0.839s2.462 0.28 3.497 0.839c1.035 0.559 1.85 1.332 2.444 2.319 0.595 0.975 0.892 2.075 0.892 3.301s-0.297 2.331-0.892 3.318c-0.595 0.975-1.409 1.742-2.444 2.302s-2.2 0.838-3.497 0.838zM64.301 20.469c0.737 0 1.403-0.166 1.998-0.5 0.595-0.345 1.059-0.821 1.392-1.427 0.345-0.607 0.517-1.296 0.517-2.070s-0.172-1.463-0.517-2.070c-0.333-0.607-0.797-1.076-1.392-1.409-0.595-0.345-1.261-0.517-1.998-0.517s-1.403 0.172-1.998 0.517c-0.595 0.333-1.065 0.803-1.41 1.409-0.333 0.607-0.5 1.296-0.5 2.070s0.167 1.463 0.5 2.070c0.345 0.607 0.815 1.082 1.41 1.427 0.595 0.333 1.261 0.5 1.998 0.5z"></path>
<path fill="#eb5647" style="fill: var(--color6, #eb5647)" d="M77.856 17.811l-1.677 1.748v3.158h-2.872v-12.489h2.872v5.834l5.531-5.834h3.211l-5.174 5.566 5.477 6.922h-3.372l-3.996-4.906z"></path>
<path fill="#eb5647" style="fill: var(--color6, #eb5647)" d="M86.513 10.228h2.89v12.489h-2.89v-12.489z"></path>
<path fill="#eb5647" style="fill: var(--color6, #eb5647)" d="M103.82 10.228v12.489h-2.372l-6.227-7.582v7.582h-2.855v-12.489h2.391l6.209 7.582v-7.582h2.854z"></path>
<path fill="#eb5647" style="fill: var(--color6, #eb5647)" d="M115.214 16.277h2.64v5.067c-0.677 0.511-1.462 0.904-2.355 1.177s-1.79 0.41-2.694 0.41c-1.296 0-2.462-0.274-3.497-0.821-1.035-0.559-1.849-1.326-2.444-2.301-0.583-0.987-0.875-2.099-0.875-3.336s0.292-2.343 0.875-3.319c0.595-0.987 1.415-1.754 2.461-2.301 1.047-0.559 2.225-0.839 3.533-0.839 1.094 0 2.087 0.184 2.979 0.553s1.642 0.904 2.248 1.606l-1.855 1.713c-0.892-0.94-1.969-1.409-3.229-1.409-0.796 0-1.505 0.167-2.123 0.5s-1.1 0.803-1.445 1.409c-0.345 0.607-0.517 1.302-0.517 2.087 0 0.773 0.172 1.463 0.517 2.070s0.82 1.082 1.428 1.427c0.618 0.333 1.32 0.5 2.105 0.5 0.833 0 1.582-0.178 2.248-0.535v-3.657z"></path>
<path fill="#fff" style="fill: var(--color3, #fff)" d="M11.365 22.717l-0.018-7.493-3.675 6.173h-1.302l-3.657-6.012v7.333h-2.712v-12.489h2.391l4.674 7.761 4.603-7.761h2.373l0.036 12.489h-2.712z"></path>
<path fill="#fff" style="fill: var(--color3, #fff)" d="M26.709 20.398v2.319h-9.67v-12.489h9.438v2.319h-6.566v2.712h5.798v2.248h-5.798v2.89h6.797z"></path>
<path fill="#eb5647" style="fill: var(--color6, #eb5647)" d="M115.151 3.279h2.93v2.929h2.396v-2.929c0-1.324-1.073-2.397-2.396-2.397h-2.93v2.397zM32.87 3.279v-2.397h-2.929c-1.324 0-2.397 1.073-2.397 2.397v2.929h2.397v-2.929h2.929zM29.941 26.445h-2.397v2.929c0 1.324 1.073 2.397 2.397 2.397h2.929v-2.397h-2.929v-2.929zM115.151 29.374v2.397h2.93c1.324 0 2.396-1.073 2.396-2.397v-2.929h-2.396v2.929h-2.93z"></path>
</symbol>
<symbol id="icon-page" viewBox="0 0 81 32">
<path fill="#fff" style="fill: var(--color3, #fff)" d="M11.365 22.717l-0.018-7.493-3.675 6.173h-1.302l-3.657-6.012v7.333h-2.712v-12.489h2.391l4.674 7.761 4.603-7.761h2.373l0.036 12.489h-2.712z"></path>
<path fill="#fff" style="fill: var(--color3, #fff)" d="M26.709 20.398v2.319h-9.67v-12.489h9.438v2.319h-6.566v2.712h5.798v2.248h-5.798v2.89h6.797z"></path>
<path fill="#4984ee" style="fill: var(--color8, #4984ee)" d="M75.475 3.279h2.929v2.929h2.397v-2.929c0-1.324-1.073-2.397-2.397-2.397h-2.929v2.397z"></path>
<path fill="#4984ee" style="fill: var(--color8, #4984ee)" d="M32.337 3.279v-2.397h-2.929c-1.324 0-2.397 1.073-2.397 2.397v2.929h2.397v-2.929h2.929z"></path>
<path fill="#4984ee" style="fill: var(--color8, #4984ee)" d="M29.408 26.445h-2.397v2.929c0 1.324 1.073 2.397 2.397 2.397h2.929v-2.397h-2.929v-2.929z"></path>
<path fill="#4984ee" style="fill: var(--color8, #4984ee)" d="M75.475 29.374v2.397h2.929c1.324 0 2.397-1.073 2.397-2.397v-2.929h-2.397v2.929h-2.929z"></path>
<path fill="#4984ee" style="fill: var(--color8, #4984ee)" d="M34.963 10.229c1.106 0 2.064 0.184 2.872 0.553 0.821 0.369 1.451 0.892 1.891 1.57s0.66 1.481 0.66 2.409c0 0.916-0.22 1.719-0.66 2.409-0.44 0.678-1.071 1.201-1.891 1.57-0.809 0.357-1.766 0.535-2.872 0.535h-2.516v3.443h-2.89v-12.489h5.406zM34.803 16.919c0.868 0 1.528-0.184 1.98-0.553 0.452-0.381 0.678-0.916 0.678-1.606 0-0.702-0.226-1.237-0.678-1.606-0.452-0.381-1.112-0.571-1.98-0.571h-2.355v4.335h2.355z"></path>
<path fill="#4984ee" style="fill: var(--color8, #4984ee)" d="M50.048 20.041h-5.798l-1.106 2.676h-2.962l5.566-12.489h2.855l5.584 12.489h-3.033l-1.106-2.676zM49.138 17.847l-1.98-4.781-1.98 4.781h3.961z"></path>
<path fill="#4984ee" style="fill: var(--color8, #4984ee)" d="M63.747 16.277h2.64v5.067c-0.678 0.511-1.463 0.904-2.355 1.177s-1.79 0.41-2.694 0.41c-1.296 0-2.462-0.274-3.497-0.821-1.035-0.559-1.849-1.326-2.444-2.302-0.583-0.987-0.874-2.099-0.874-3.336s0.291-2.343 0.874-3.318c0.595-0.987 1.415-1.754 2.462-2.302 1.047-0.559 2.224-0.838 3.533-0.838 1.094 0 2.087 0.184 2.979 0.553s1.641 0.904 2.248 1.606l-1.855 1.713c-0.892-0.94-1.968-1.409-3.229-1.409-0.797 0-1.505 0.166-2.123 0.5s-1.1 0.803-1.445 1.409c-0.345 0.607-0.517 1.302-0.517 2.087 0 0.773 0.173 1.463 0.517 2.070s0.821 1.082 1.427 1.427c0.618 0.333 1.32 0.5 2.105 0.5 0.833 0 1.582-0.178 2.248-0.535v-3.657z"></path>
<path fill="#4984ee" style="fill: var(--color8, #4984ee)" d="M78.742 20.398v2.319h-9.67v-12.489h9.438v2.319h-6.566v2.712h5.798v2.248h-5.798v2.89h6.797z"></path>
</symbol>
<symbol id="icon-stars" viewBox="0 0 109 32">
<path fill="#3e4957" style="fill: var(--color1, #3e4957)" d="M101.11 24.091v0.665h-4.603v-0.477l2.852-4.414h0.66l-0.708 1.277-1.885 2.949h3.684zM100.221 19.865v6.37h-0.81v-6.37h0.81zM102.667 25.273v0.652c0 0.265-0.067 0.545-0.201 0.84-0.134 0.298-0.323 0.545-0.564 0.744l-0.46-0.319c0.093-0.128 0.172-0.26 0.236-0.394 0.064-0.131 0.113-0.268 0.145-0.411 0.035-0.14 0.052-0.289 0.052-0.446v-0.665h0.792zM106.718 19.856h0.070v0.687h-0.070c-0.429 0-0.787 0.070-1.076 0.21-0.289 0.137-0.518 0.322-0.687 0.556-0.169 0.23-0.291 0.49-0.367 0.779-0.073 0.289-0.109 0.582-0.109 0.879v0.936c0 0.283 0.034 0.534 0.1 0.753 0.067 0.216 0.159 0.398 0.276 0.547s0.248 0.261 0.394 0.337c0.149 0.076 0.303 0.114 0.464 0.114 0.187 0 0.353-0.035 0.499-0.105 0.146-0.073 0.269-0.174 0.367-0.302 0.102-0.131 0.18-0.286 0.232-0.464s0.079-0.373 0.079-0.586c0-0.19-0.024-0.372-0.070-0.547-0.046-0.178-0.118-0.335-0.214-0.472-0.097-0.14-0.218-0.249-0.364-0.328-0.143-0.082-0.314-0.122-0.512-0.122-0.225 0-0.435 0.055-0.63 0.166-0.193 0.108-0.351 0.251-0.477 0.429-0.123 0.175-0.193 0.366-0.21 0.573l-0.429-0.004c0.041-0.327 0.116-0.605 0.227-0.836 0.114-0.233 0.254-0.423 0.42-0.569 0.17-0.149 0.358-0.257 0.564-0.324 0.21-0.070 0.432-0.105 0.665-0.105 0.318 0 0.593 0.060 0.823 0.179s0.42 0.28 0.568 0.481c0.149 0.198 0.259 0.423 0.328 0.674 0.073 0.248 0.109 0.503 0.109 0.766 0 0.3-0.042 0.582-0.127 0.844s-0.212 0.493-0.381 0.691c-0.166 0.198-0.372 0.353-0.617 0.464s-0.529 0.166-0.853 0.166c-0.344 0-0.644-0.070-0.901-0.21-0.257-0.143-0.47-0.333-0.639-0.569s-0.296-0.499-0.381-0.788c-0.084-0.289-0.127-0.582-0.127-0.879v-0.381c0-0.449 0.045-0.89 0.136-1.321s0.246-0.822 0.468-1.172c0.225-0.35 0.535-0.629 0.932-0.836s0.903-0.311 1.518-0.311z"></path>
<path fill="#00b67a" style="fill: var(--color9, #00b67a)" d="M17.080 15.355h-16.44v16.64h16.44v-16.64z"></path>
<path fill="#00b67a" style="fill: var(--color9, #00b67a)" d="M34.89 15.355h-16.44v16.64h16.44v-16.64z"></path>
<path fill="#00b67a" style="fill: var(--color9, #00b67a)" d="M52.7 15.355h-16.44v16.64h16.44v-16.64z"></path>
<path fill="#00b67a" style="fill: var(--color9, #00b67a)" d="M70.51 15.355h-16.44v16.64h16.44v-16.64z"></path>
<path fill="#dcdce6" style="fill: var(--color10, #dcdce6)" d="M88.32 15.355h-8.22v16.64h8.22v-16.64z"></path>
<path fill="#00b67a" style="fill: var(--color9, #00b67a)" d="M80.1 15.355h-8.22v16.64h8.22v-16.64z"></path>
<path fill="#fff" style="fill: var(--color3, #fff)" d="M8.86 26.57l2.5-0.641 1.045 3.259-3.545-2.617zM14.614 22.358h-4.401l-1.353-4.195-1.353 4.195h-4.401l3.562 2.6-1.353 4.195 9.299-6.795z"></path>
<path fill="#fff" style="fill: var(--color3, #fff)" d="M26.67 26.57l2.5-0.641 1.045 3.259-3.545-2.617zM32.424 22.358h-4.401l-1.353-4.195-1.353 4.195h-4.401l3.562 2.6-1.353 4.195 9.299-6.795z"></path>
<path fill="#fff" style="fill: var(--color3, #fff)" d="M44.48 26.57l2.5-0.641 1.045 3.259-3.545-2.617zM50.234 22.358h-4.401l-1.353-4.195-1.353 4.195h-4.401l3.562 2.6-1.353 4.195 9.299-6.795z"></path>
<path fill="#fff" style="fill: var(--color3, #fff)" d="M62.29 26.57l2.5-0.641 1.044 3.259-3.545-2.617zM68.044 22.358h-4.401l-1.353-4.195-1.353 4.195h-4.401l3.562 2.6-1.353 4.195 9.299-6.795z"></path>
<path fill="#fff" style="fill: var(--color3, #fff)" d="M80.1 26.57l2.5-0.641 1.045 3.259-3.545-2.617zM85.854 22.358h-4.401l-1.353-4.195-1.353 4.195h-4.401l3.562 2.6-1.353 4.195 9.299-6.795z"></path>
<path fill="#3e4957" style="fill: var(--color1, #3e4957)" d="M11.531 4.493h4.482v0.834h-1.765v4.704h-0.967v-4.704h-1.757l0.007-0.834zM15.821 6.021h0.827v0.775h0.015c0.029-0.111 0.081-0.214 0.155-0.317s0.162-0.199 0.273-0.281c0.103-0.089 0.221-0.155 0.354-0.207 0.125-0.052 0.258-0.081 0.391-0.081 0.103 0 0.177 0.007 0.214 0.007 0.037 0.007 0.081 0.015 0.118 0.015v0.849c-0.059-0.015-0.126-0.022-0.192-0.030s-0.126-0.015-0.192-0.015c-0.148 0-0.288 0.030-0.421 0.089s-0.244 0.148-0.347 0.258c-0.096 0.118-0.177 0.258-0.236 0.428s-0.089 0.369-0.089 0.591v1.905h-0.886l0.015-3.987zM22.231 10.031h-0.871v-0.561h-0.015c-0.111 0.207-0.273 0.362-0.487 0.487s-0.436 0.185-0.657 0.185c-0.524 0-0.908-0.126-1.145-0.391-0.236-0.258-0.354-0.657-0.354-1.181v-2.547h0.886v2.459c0 0.354 0.066 0.605 0.207 0.746 0.133 0.148 0.325 0.222 0.569 0.222 0.185 0 0.34-0.030 0.465-0.089s0.229-0.133 0.303-0.229c0.081-0.096 0.133-0.214 0.17-0.347s0.052-0.281 0.052-0.436v-2.326h0.886v4.010h-0.007zM23.737 8.746c0.029 0.258 0.125 0.436 0.295 0.546 0.17 0.103 0.377 0.155 0.613 0.155 0.081 0 0.177-0.007 0.281-0.022s0.207-0.037 0.295-0.074c0.096-0.037 0.17-0.089 0.229-0.162s0.089-0.162 0.081-0.273c-0.007-0.111-0.044-0.207-0.125-0.281s-0.177-0.126-0.295-0.177c-0.118-0.044-0.259-0.081-0.413-0.111s-0.31-0.066-0.473-0.103c-0.162-0.037-0.325-0.081-0.48-0.133s-0.288-0.118-0.413-0.214c-0.118-0.089-0.221-0.199-0.288-0.34-0.074-0.14-0.111-0.303-0.111-0.51 0-0.221 0.052-0.399 0.162-0.546 0.103-0.148 0.244-0.266 0.406-0.354s0.347-0.155 0.546-0.192c0.199-0.037 0.391-0.052 0.569-0.052 0.207 0 0.406 0.022 0.591 0.066s0.362 0.111 0.509 0.214c0.155 0.096 0.281 0.229 0.377 0.384 0.103 0.155 0.163 0.347 0.192 0.569h-0.923c-0.044-0.214-0.14-0.354-0.288-0.428-0.155-0.074-0.325-0.111-0.524-0.111-0.059 0-0.14 0.007-0.221 0.015-0.089 0.015-0.163 0.029-0.244 0.059-0.074 0.029-0.14 0.074-0.192 0.125s-0.081 0.126-0.081 0.214c0 0.111 0.037 0.192 0.111 0.258s0.17 0.118 0.295 0.17c0.118 0.044 0.258 0.081 0.413 0.111s0.317 0.066 0.48 0.103c0.162 0.037 0.317 0.081 0.473 0.133s0.295 0.118 0.413 0.214c0.118 0.089 0.221 0.199 0.295 0.332s0.111 0.303 0.111 0.495c0 0.236-0.052 0.436-0.162 0.605-0.111 0.162-0.251 0.303-0.421 0.406s-0.369 0.177-0.576 0.229c-0.214 0.044-0.421 0.074-0.628 0.074-0.251 0-0.487-0.030-0.701-0.089s-0.406-0.148-0.561-0.258c-0.155-0.118-0.281-0.258-0.369-0.436-0.089-0.17-0.14-0.377-0.148-0.62h0.893v0.007h0.007zM26.654 6.021h0.672v-1.211h0.886v1.204h0.797v0.657h-0.797v2.141c0 0.096 0.007 0.17 0.015 0.244 0.007 0.066 0.030 0.126 0.052 0.17 0.029 0.044 0.074 0.081 0.125 0.103 0.059 0.022 0.133 0.037 0.236 0.037 0.059 0 0.125 0 0.185-0.007s0.126-0.015 0.185-0.030v0.687c-0.096 0.015-0.192 0.022-0.288 0.030-0.096 0.015-0.185 0.015-0.288 0.015-0.236 0-0.421-0.022-0.561-0.066s-0.251-0.111-0.332-0.192c-0.081-0.089-0.133-0.192-0.162-0.318s-0.044-0.281-0.052-0.443v-2.363h-0.672v-0.657zM29.629 6.021h0.834v0.546h0.015c0.125-0.236 0.295-0.399 0.517-0.502s0.458-0.155 0.724-0.155c0.318 0 0.591 0.052 0.827 0.17 0.236 0.111 0.428 0.258 0.583 0.458 0.155 0.192 0.273 0.421 0.347 0.679s0.118 0.539 0.118 0.827c0 0.273-0.037 0.532-0.103 0.783-0.074 0.251-0.177 0.48-0.318 0.672s-0.318 0.347-0.539 0.465-0.473 0.177-0.768 0.177c-0.125 0-0.258-0.015-0.384-0.037s-0.251-0.059-0.369-0.111-0.229-0.118-0.325-0.199c-0.103-0.081-0.185-0.177-0.251-0.281h-0.015v2.001h-0.886v-5.494h-0.007zM32.723 8.030c0-0.177-0.022-0.354-0.074-0.524-0.044-0.17-0.118-0.317-0.214-0.45s-0.214-0.236-0.347-0.317c-0.14-0.081-0.303-0.118-0.48-0.118-0.369 0-0.65 0.126-0.842 0.384-0.185 0.258-0.281 0.606-0.281 1.034 0 0.207 0.022 0.391 0.074 0.561s0.118 0.318 0.221 0.443c0.096 0.126 0.214 0.222 0.354 0.295s0.295 0.111 0.48 0.111c0.207 0 0.369-0.044 0.509-0.126s0.251-0.192 0.347-0.318c0.089-0.133 0.155-0.281 0.192-0.45 0.037-0.177 0.059-0.347 0.059-0.524zM34.281 4.493h0.886v0.834h-0.886v-0.834zM34.281 6.021h0.886v4.010h-0.886v-4.010zM35.958 4.493h0.886v5.538h-0.886v-5.538zM39.546 10.142c-0.318 0-0.605-0.052-0.857-0.162s-0.458-0.251-0.635-0.436c-0.17-0.185-0.303-0.414-0.391-0.672s-0.14-0.546-0.14-0.849c0-0.303 0.044-0.583 0.14-0.842 0.089-0.258 0.221-0.48 0.391-0.672 0.17-0.185 0.384-0.332 0.635-0.436s0.539-0.162 0.857-0.162c0.318 0 0.605 0.052 0.856 0.162 0.251 0.103 0.458 0.251 0.635 0.436 0.17 0.185 0.303 0.413 0.391 0.672s0.14 0.539 0.14 0.842c0 0.31-0.044 0.591-0.14 0.849s-0.221 0.48-0.391 0.672c-0.17 0.185-0.384 0.332-0.635 0.436s-0.532 0.162-0.856 0.162zM39.546 9.44c0.192 0 0.369-0.044 0.51-0.126 0.148-0.081 0.258-0.192 0.354-0.325s0.162-0.288 0.207-0.45c0.044-0.17 0.066-0.34 0.066-0.517 0-0.17-0.022-0.34-0.066-0.51s-0.111-0.317-0.207-0.45c-0.096-0.133-0.214-0.236-0.354-0.317-0.148-0.081-0.318-0.126-0.51-0.126s-0.369 0.044-0.51 0.126c-0.148 0.081-0.258 0.192-0.354 0.317-0.096 0.133-0.163 0.281-0.207 0.45s-0.066 0.34-0.066 0.51c0 0.177 0.022 0.347 0.066 0.517s0.111 0.318 0.207 0.45c0.096 0.133 0.214 0.244 0.354 0.325 0.148 0.089 0.318 0.126 0.51 0.126zM41.835 6.021h0.672v-1.211h0.886v1.204h0.797v0.657h-0.797v2.141c0 0.096 0.007 0.17 0.015 0.244 0.007 0.066 0.030 0.126 0.052 0.17 0.029 0.044 0.074 0.081 0.126 0.103 0.059 0.022 0.133 0.037 0.236 0.037 0.059 0 0.126 0 0.185-0.007s0.126-0.015 0.185-0.030v0.687c-0.096 0.015-0.192 0.022-0.288 0.030-0.096 0.015-0.185 0.015-0.288 0.015-0.236 0-0.421-0.022-0.561-0.066s-0.251-0.111-0.332-0.192c-0.081-0.089-0.133-0.192-0.162-0.318s-0.044-0.281-0.052-0.443v-2.363h-0.672v-0.657z"></path>
<path fill="#00b67a" style="fill: var(--color9, #00b67a)" d="M10.611 4.489h-4.054l-1.248-3.854-1.255 3.854-4.054-0.007 3.279 2.385-1.255 3.854 3.279-2.385 3.278 2.385-1.248-3.854 3.279-2.378z"></path>
<path fill="#005128" style="fill: var(--color11, #005128)" d="M7.62 7.745l-0.281-0.871-2.023 1.469 2.304-0.598z"></path>
</symbol>
<symbol id="icon-privacy" viewBox="0 0 25 32">
<path fill="#aeaeae" style="fill: var(--color1, #aeaeae)" d="M12.084 2.442l-12.084 5.371v8.056c0 7.452 5.156 14.42 12.084 16.112 6.928-1.692 12.084-8.66 12.084-16.112v-8.056l-12.084-5.371zM21.483 15.869c0 2.484-0.685 4.901-1.853 6.995l-1.947-1.947c1.732-2.605 1.437-6.149-0.859-8.445-2.618-2.618-6.874-2.618-9.493 0s-2.618 6.874 0 9.493c2.296 2.296 5.841 2.578 8.445 0.859l2.309 2.309c-1.598 1.906-3.665 3.37-6.002 4.082-5.397-1.679-9.399-7.277-9.399-13.346v-6.31l9.399-4.176 9.399 4.176v6.31zM12.084 21.239c-2.229 0-4.028-1.799-4.028-4.028s1.799-4.028 4.028-4.028c2.229 0 4.028 1.799 4.028 4.028s-1.799 4.028-4.028 4.028z"></path>
</symbol>
<symbol id="icon-person" viewBox="0 0 32 32">
<path fill="#41e6ab" style="fill: var(--color1, #41e6ab)" d="M16 16c2.947 0 5.333-2.387 5.333-5.333s-2.387-5.333-5.333-5.333c-2.947 0-5.333 2.387-5.333 5.333s2.387 5.333 5.333 5.333zM16 18.667c-3.56 0-10.667 1.787-10.667 5.333v2.667h21.333v-2.667c0-3.547-7.107-5.333-10.667-5.333z"></path>
</symbol>
<symbol id="icon-tarifs-arrow" viewBox="0 0 55 32">
<path fill="none" stroke="#41e6ab" style="stroke: var(--color1, #41e6ab)" stroke-linejoin="miter" stroke-linecap="butt" stroke-miterlimit="16" stroke-width="9.1429" d="M50.286 4.571l-22.857 18.286-22.857-18.286"></path>
</symbol>
<symbol id="icon-burger" viewBox="0 0 49 32">
<path fill="#3e4857" style="fill: var(--color2, #3e4857)" d="M0 32h48v-5.333h-48v5.333zM0 18.667h48v-5.333h-48v5.333zM0 0v5.333h48v-5.333h-48z"></path>
</symbol>
<symbol id="icon-logo-main" viewBox="0 0 134 32">
<path fill="#3e4857" style="fill: var(--color1, #3e4857)" d="M16.536 23.479l-0.042-14.684h-2.787l-5.407 9.125-5.491-9.125h-2.808v14.684h3.186v-8.622l4.296 7.069h1.53l4.317-7.258 0.021 8.811h3.186z"></path>
<path fill="#3e4857" style="fill: var(--color1, #3e4857)" d="M23.392 20.752v-3.398h6.812v-2.643h-6.812v-3.189h7.713v-2.727h-11.087v14.684h11.36v-2.727h-7.985z"></path>
<path fill="#41b4e6" style="fill: var(--color2, #41b4e6)" d="M44.861 23.73c4.192 0 6.225-2.098 6.225-4.552 0-5.391-8.53-3.524-8.53-6.23 0-0.923 0.776-1.678 2.788-1.678 1.299 0 2.704 0.378 4.066 1.154l1.048-2.58c-1.362-0.86-3.249-1.301-5.093-1.301-4.171 0-6.183 2.077-6.183 4.573 0 5.454 8.53 3.566 8.53 6.314 0 0.902-0.817 1.573-2.829 1.573-1.761 0-3.605-0.629-4.841-1.531l-1.153 2.559c1.299 1.007 3.647 1.699 5.973 1.699z"></path>
<path fill="#41b4e6" style="fill: var(--color2, #41b4e6)" d="M56.78 20.752v-3.398h6.812v-2.643h-6.812v-3.189h7.713v-2.727h-11.087v14.684h11.36v-2.727h-7.986z"></path>
<path fill="#41b4e6" style="fill: var(--color2, #41b4e6)" d="M77.569 8.794v8.915l-7.293-8.915h-2.808v14.684h3.354v-8.915l7.314 8.915h2.788v-14.684h-3.354z"></path>
<path fill="#41b4e6" style="fill: var(--color2, #41b4e6)" d="M84.393 23.479h6.665c4.799 0 8.090-2.895 8.090-7.342s-3.291-7.342-8.090-7.342h-6.665v14.684zM87.789 20.689v-9.104h3.102c2.913 0 4.82 1.741 4.82 4.552s-1.907 4.552-4.82 4.552h-3.102z"></path>
<path fill="#41b4e6" style="fill: var(--color2, #41b4e6)" d="M105.083 20.752v-3.398h6.812v-2.643h-6.812v-3.189h7.713v-2.727h-11.087v14.684h11.36v-2.727h-7.986z"></path>
<path fill="#41b4e6" style="fill: var(--color2, #41b4e6)" d="M128.764 23.479l-3.29-4.72c1.907-0.818 3.018-2.433 3.018-4.636 0-3.293-2.452-5.328-6.372-5.328h-6.35v14.684h3.396v-4.091h3.123l2.829 4.091h3.647zM125.055 14.123c0 1.594-1.048 2.559-3.123 2.559h-2.766v-5.119h2.766c2.075 0 3.123 0.944 3.123 2.559z"></path>
<path fill="#41b4e6" style="fill: var(--color2, #41b4e6)" d="M37.49 3.127h3.47v-2.505h-3.472c-1.379 0-2.503 1.124-2.503 2.505v3.507h2.503v-3.504c0-0 0.001-0.001 0.001-0.001s0.001-0.001 0.001-0.001z"></path>
<path fill="#41b4e6" style="fill: var(--color2, #41b4e6)" d="M127.672 0.623h3.472c1.379 0 2.502 1.124 2.502 2.505v3.507h-2.502v-3.504c-0.001-0-0.001-0.001-0.001-0.001s-0.001-0.001-0.001-0.001h-3.47v-2.505z"></path>
<path fill="#41b4e6" style="fill: var(--color2, #41b4e6)" d="M34.985 29.49v-3.475h2.503v3.473c0 0 0.001 0.001 0.001 0.001s0.001 0.001 0.001 0.001h3.47v2.505h-3.472c-1.379 0-2.503-1.124-2.503-2.505z"></path>
<path fill="#41b4e6" style="fill: var(--color2, #41b4e6)" d="M131.145 29.488v-3.473h2.502v3.475c0 1.38-1.123 2.505-2.502 2.505h-3.472v-2.505h3.47c0.001-0 0.001-0.001 0.001-0.001s0.001-0.001 0.001-0.001z"></path>
</symbol>
</defs>
</svg>
