<svg width="253" height="211" viewBox="0 0 253 211" fill="none" xmlns="http://www.w3.org/2000/svg">
<path d="M222.706 9.12776V162.808C222.706 165.319 221.711 167.727 219.94 169.502C218.169 171.277 215.767 172.274 213.262 172.274H9.6941C7.18955 172.274 4.78746 171.277 3.0163 169.502C1.24513 167.727 0.25 165.319 0.25 162.808V12.0014C0.25 9.49088 1.24513 7.08329 3.0163 5.30825C4.78746 3.53323 7.18954 2.53613 9.6941 2.53613H216.13C217.874 2.53613 219.546 3.23047 220.78 4.46658C222.013 5.70271 222.706 7.37937 222.706 9.12776Z" fill="white" stroke="#B4E8FF" stroke-width="0.5"/>
<path d="M132.895 57.2014H36.2443V106.625H132.895V57.2014Z" fill="#F3F9FE"/>
<path d="M132.895 25.3506H36.2443V31.9404H132.895V25.3506Z" fill="#F3F9FE"/>
<path d="M87.8647 36.3337H36.2443V42.9236H87.8647V36.3337Z" fill="#F3F9FE"/>
<path d="M132.895 111.019H36.2443V161.541H132.895V111.019Z" fill="#F3F9FE"/>
<path d="M222.956 9.72451V9.97436H0V9.72451C0 7.16917 1.02134 4.7185 2.83934 2.9116C4.65733 1.10471 7.12306 0.0896028 9.6941 0.0896028H213.262C214.536 0.088576 215.797 0.33709 216.973 0.820926C218.15 1.30476 219.219 2.01442 220.119 2.90931C221.02 3.8042 221.734 4.86675 222.221 6.03618C222.707 7.2056 222.957 8.45895 222.956 9.72451Z" fill="#B4E8FF"/>
<path d="M30.7526 9.97437V172.524H9.91087C7.28234 172.524 4.76147 171.503 2.90283 169.686C1.04418 167.868 0 165.404 0 162.834V9.97437H30.7526Z" fill="#B4E8FF"/>
<path d="M25.2611 50.6116H9.88477V52.8082H25.2611V50.6116Z" fill="white"/>
<path d="M25.2611 46.2185H6.58984V48.4151H25.2611V46.2185Z" fill="white"/>
<path d="M25.2611 69.283H9.88477V70.3813H25.2611V69.283Z" fill="white"/>
<path d="M25.2611 64.8896H6.58984V67.0863H25.2611V64.8896Z" fill="white"/>
<path d="M25.2611 87.9541H9.88477V89.0524H25.2611V87.9541Z" fill="white"/>
<path d="M25.2611 82.4626H6.58984V84.6593H25.2611V82.4626Z" fill="white"/>
<path d="M25.2611 105.527H9.88477V107.724H25.2611V105.527Z" fill="white"/>
<path d="M25.2611 101.134H6.58984V103.33H25.2611V101.134Z" fill="white"/>
<path d="M10.9826 6.67936C12.1958 6.67936 13.1792 5.6959 13.1792 4.48275C13.1792 3.26959 12.1958 2.28613 10.9826 2.28613C9.76947 2.28613 8.78601 3.26959 8.78601 4.48275C8.78601 5.6959 9.76947 6.67936 10.9826 6.67936Z" fill="white"/>
<path d="M18.6712 6.67936C19.8843 6.67936 20.8678 5.6959 20.8678 4.48275C20.8678 3.26959 19.8843 2.28613 18.6712 2.28613C17.458 2.28613 16.4745 3.26959 16.4745 4.48275C16.4745 5.6959 17.458 6.67936 18.6712 6.67936Z" fill="white"/>
<path d="M25.2611 6.67936C26.4742 6.67936 27.4577 5.6959 27.4577 4.48275C27.4577 3.26959 26.4742 2.28613 25.2611 2.28613C24.0479 2.28613 23.0645 3.26959 23.0645 4.48275C23.0645 5.6959 24.0479 6.67936 25.2611 6.67936Z" fill="white"/>
<path d="M252.417 9.64405V36.8437C252.437 38.09 252.212 39.3282 251.754 40.4874C251.296 41.6466 250.613 42.7042 249.746 43.5998C248.879 44.4954 247.844 45.2114 246.701 45.7069C245.557 46.2024 244.327 46.4677 243.08 46.4878H222.307L212.919 60.0833V46.4878H195.253C192.735 46.4451 190.338 45.4058 188.586 43.5979C186.834 41.7899 185.871 39.361 185.907 36.8437V9.64405C185.871 7.1268 186.834 4.69782 188.586 2.88989C190.338 1.08195 192.735 0.0426731 195.253 0H243.046C244.294 0.0133662 245.527 0.272675 246.674 0.763082C247.822 1.25349 248.861 1.96537 249.733 2.85797C250.605 3.75058 251.293 4.80639 251.756 5.96497C252.22 7.12356 252.45 8.36217 252.434 9.60992L252.417 9.64405Z" fill="#41B4E6"/>
<path d="M215.522 197.063C215.522 197.063 218.133 199.521 217.621 201.271C217.109 203.02 214.762 204.181 214.438 206.314C214.114 208.448 212.85 209.609 211.707 209.609H206.245C206.245 209.609 205.391 208.107 207.44 207.654C209.488 207.202 210.239 204.693 210.111 202.363C210.061 200.551 210.127 198.738 210.307 196.935L214.634 195.894L215.522 197.063Z" fill="#FBB9AD"/>
<path d="M193.434 198.104C193.434 198.104 194.373 208.516 193.23 209.105H178.533C178.533 209.105 178.533 207.356 180.889 206.972C183.244 206.588 187.383 205.162 188.083 201.987C188.783 198.813 193.434 198.104 193.434 198.104Z" fill="#FBB9AD"/>
<path d="M203.881 123.401C200.869 116.411 199.025 114.414 199.375 112.238C199.64 110.625 198.573 82.1622 198.573 82.1622C198.214 82.0427 197.498 81.9403 197.105 81.855C196.49 81.7118 195.92 81.4152 195.45 80.9929C194.98 80.5706 194.625 80.0363 194.417 79.4397C193.765 77.3615 193.456 75.1908 193.503 73.0132L193.119 73.09L186.625 74.4214C186.625 74.4214 186.77 76.5294 186.77 78.518V78.5692C186.786 79.3994 186.532 80.2124 186.045 80.8852C185.559 81.5581 184.866 82.0543 184.073 82.2988L182.536 82.7511C181.046 87.3802 180.092 92.1654 179.694 97.0124C179.242 104.233 184.039 107.373 179.694 121.814C175.197 136.544 205.554 127.25 203.881 123.401Z" fill="#FBB9AD"/>
<path d="M199.375 112.229C199.375 112.229 205.819 121.165 206.425 127.199C207.031 133.233 207.363 154.441 208.644 160.33C209.924 166.219 214.618 177.545 214.618 195.894C214.175 196.661 213.464 197.236 212.621 197.507C212.045 197.709 211.458 197.878 210.863 198.01C210.251 198.151 209.61 198.078 209.046 197.803C208.482 197.528 208.03 197.068 207.765 196.5C204.59 189.885 194.451 168.558 193.93 164.137C193.563 161.005 190.363 140.24 183.381 128.104C181.674 125.185 184.414 113.595 184.414 113.595L199.375 112.229Z" fill="#B4E8FF"/>
<path d="M186.624 74.4129C186.624 74.4129 186.769 76.521 186.769 78.5095C190.413 78.4071 192.334 74.9848 193.119 73.0815L186.624 74.4129Z" fill="#FBB9AD"/>
<path d="M185.471 76.2222C185.523 76.2796 185.584 76.3285 185.651 76.3672C185.833 76.4675 186.04 76.5148 186.248 76.5038C187.072 76.4869 187.887 76.3252 188.655 76.0259C189.837 75.6926 190.958 75.171 191.975 74.4811C192.999 73.7106 193.709 72.5946 193.972 71.3404C194.114 70.2083 194.154 69.0658 194.091 67.9266C194.091 66.3477 194.305 64.3847 193.392 63.0021C192.538 61.7475 191.01 61.4403 189.645 61.3635C187.733 61.244 185.326 61.2696 183.824 62.7034C183.392 63.1316 183.064 63.6546 182.868 64.2311C182.594 65.3472 182.519 66.5028 182.647 67.6449C182.642 68.5743 182.591 69.503 182.493 70.4272C182.467 70.5969 182.467 70.7695 182.493 70.9393C182.59 71.1928 182.752 71.4164 182.962 71.5879C184.089 72.8169 184.285 74.6859 185.284 76.0259C185.337 76.0993 185.4 76.1654 185.471 76.2222Z" fill="#FBB9AD"/>
<path d="M185.728 61.2098C185.728 61.2098 188.083 67.6961 191.702 68.6605C195.32 69.6249 196.891 68.6178 196.891 68.6178C195.089 66.9817 193.905 64.776 193.537 62.3705C193.537 62.3705 187.503 58.1203 185.728 61.2098Z" fill="#3E4957"/>
<path d="M187.28 72.8681C187.062 73.1224 186.786 73.322 186.477 73.4509C186.167 73.5798 185.831 73.6345 185.497 73.6106C185.216 73.5907 184.945 73.4964 184.713 73.3374C184.48 73.1785 184.294 72.9605 184.174 72.7059C185.204 72.4645 186.281 72.5207 187.28 72.8681Z" fill="#FBB9AD"/>
<path d="M182.801 111.504L180.949 110.932C180.949 110.932 180.898 110.796 180.812 110.54C181.417 110.969 182.089 111.295 182.801 111.504Z" fill="#FBB9AD"/>
<path d="M181.46 112.639C181.46 112.639 177.236 126.218 176.963 130.843C176.689 135.469 185.045 196.559 185.378 198.668C185.711 200.776 188.117 201.953 188.117 201.953C188.953 202.376 189.922 202.452 190.814 202.167C191.88 201.943 192.874 201.459 193.707 200.759C193.707 200.759 196.993 157.232 194.962 141.648C193.719 132.023 193.03 122.335 192.897 112.631L181.46 112.639Z" fill="#B4E8FF"/>
<path d="M204.709 101.741C204.572 104.301 202.089 107.655 201.739 108.5C200.885 110.6 199.861 110.932 199.861 110.932C200.135 111.782 200.279 112.668 200.288 113.561C200.288 113.561 191.199 115.934 184.175 114.833C183.106 114.672 182.057 114.403 181.042 114.03C180.512 112.943 180.42 111.693 180.786 110.54C180.121 108.5 177.21 99.0267 178.602 93.428C178.934 92.071 179.327 90.7311 179.771 89.3911C180.163 88.2219 180.36 87.0527 180.744 85.8834C181.001 85.3538 181.084 84.7565 180.983 84.1765C180.928 84.0054 180.824 83.8538 180.685 83.7402C180.546 83.6266 180.376 83.5559 180.197 83.5364C180.104 83.5286 180.01 83.5449 179.925 83.5838C179.84 83.6227 179.766 83.6828 179.711 83.7583C180.607 81.5479 183.014 80.5067 185.199 79.6618C185.593 79.4893 186.015 79.3909 186.445 79.3716C187.036 79.4488 187.599 79.6716 188.083 80.0202C188.57 80.3018 189.065 80.5579 189.577 80.8054C190.993 81.4658 192.496 81.9199 194.041 82.1538C194.833 82.2789 195.637 82.3275 196.439 82.2989C196.942 82.2989 197.992 81.9405 198.436 82.1538C199.375 82.6147 200.254 85.5677 200.706 86.4979C202.049 89.2347 203.383 91.9714 204.709 94.7082C204.85 97.0502 204.85 99.3986 204.709 101.741Z" fill="#41B4E6"/>
<path d="M186.283 88.6572C186.171 90.1889 185.771 91.6858 185.105 93.0695C184.911 93.4175 184.688 93.7486 184.439 94.0595C183.901 94.7594 183.261 95.3909 182.775 96.1334C181.35 98.3183 181.512 101.186 181.725 103.815C181.956 106.733 182.229 109.712 183.364 112.349C183.772 113.113 184.046 113.942 184.175 114.799C183.106 114.638 182.057 114.369 181.042 113.996C180.512 112.909 180.42 111.659 180.786 110.506C180.121 108.466 177.21 98.9925 178.602 93.3938C178.934 92.0369 179.327 90.6969 179.771 89.357C180.163 88.1878 180.36 87.0185 180.744 85.8493C181.001 85.3196 181.084 84.7223 180.983 84.1424C180.928 83.9712 180.824 83.8197 180.685 83.7061C180.546 83.5925 180.376 83.5217 180.197 83.5023C180.435 83.0932 180.721 82.7148 181.051 82.3757C181.363 82.0097 181.758 81.7247 182.204 81.5448C182.65 81.365 183.133 81.2958 183.611 81.3431C184.225 81.4449 184.788 81.7446 185.216 82.1965C186.684 83.9034 186.573 86.4467 186.283 88.6572Z" fill="url(#paint0_linear_1_1461)"/>
<path d="M187.067 73.0475C187.067 73.0475 186.922 73.6961 185.36 73.5937C185.36 73.5937 184.037 73.5169 184.08 72.8C185.072 72.5039 186.138 72.5923 187.067 73.0475Z" fill="#FBB9AD"/>
<path d="M166.585 86.3441C163.351 86.0889 160.154 85.4823 157.051 84.5348C155.592 84.1166 154.133 83.5704 152.665 83.3058C152.01 83.2214 151.382 82.9979 150.821 82.6505C150.26 82.3032 149.78 81.8398 149.413 81.2916C148.73 80.2504 148.346 78.8251 147.194 78.407L147.288 79.9944C147.321 80.1763 147.288 80.3642 147.194 80.5235C146.964 80.8222 146.503 80.643 146.195 80.4382L142.159 77.7754C142.134 78.1321 142.2 78.4892 142.349 78.8142C142.498 79.1392 142.726 79.4217 143.012 79.6359C143.602 80.0432 144.067 80.608 144.352 81.266C143.222 80.5917 142.027 80.0341 140.785 79.6018C140.767 79.9275 140.837 80.2521 140.987 80.5418C141.137 80.8315 141.362 81.0757 141.638 81.249C142.196 81.5727 142.693 81.9915 143.106 82.4865C142.07 82.1779 141.007 81.9665 139.931 81.8549C139.684 82.4011 140.366 82.8705 140.921 83.0583L143.294 83.8605C142.342 83.8421 141.39 83.8791 140.443 83.9715C140.964 84.6713 142.014 84.458 142.85 84.6543C143.701 84.9875 144.489 85.4637 145.18 86.0625C146.246 86.6416 147.399 87.045 148.594 87.2573C149.407 87.6051 150.161 88.0773 150.83 88.657C153.101 89.9891 155.479 91.1309 157.939 92.0708C159.142 92.5743 160.354 93.0779 161.6 93.4705C165.509 94.6994 169.674 94.7677 173.762 94.5458C176.893 94.4742 179.958 93.6361 182.689 92.1049C185.087 90.7565 186.001 87.0866 185.6 84.4238C185.547 83.8292 185.328 83.2614 184.968 82.7852C184.599 82.3969 184.114 82.1393 183.585 82.0512C181.64 81.6501 179.762 82.8279 178.004 83.7581C174.52 85.6869 170.559 86.5838 166.585 86.3441Z" fill="#FBB9AD"/>
<path d="M182.365 66.655L183.526 64.4958C183.518 65.183 183.707 65.8582 184.072 66.4407C184.437 67.0233 184.961 67.4888 185.583 67.7816C186.006 67.9145 186.409 68.107 186.778 68.3534C187.076 68.6554 187.298 69.024 187.426 69.4288C188.198 71.4641 188.533 73.6394 188.408 75.8126C188.194 79.5764 185.617 86.643 189.33 89.4253C190.697 90.3044 192.272 90.8078 193.896 90.8847C193.718 92.4112 193.647 93.9483 193.682 95.4848C193.611 97.0651 193.98 98.6341 194.749 100.017C196.225 102.261 199.409 102.756 201.824 101.724C202.494 101.338 203.234 101.092 204 100.998C205.187 100.998 206.126 101.988 207.218 102.449C208.034 102.735 208.91 102.807 209.762 102.657C210.613 102.508 211.413 102.142 212.083 101.596C213.579 100.356 214.581 98.622 214.908 96.7072C215.236 94.7923 214.866 92.8235 213.866 91.1578C213.013 89.8605 211.818 88.8449 211.016 87.5221C208.78 83.8266 211.212 79.1582 209.975 75.1299C209.429 73.3398 208.257 71.8065 206.672 70.8114C204.871 69.6934 202.524 69.2666 201.346 67.4744C199.776 65.0932 201.158 61.7306 200.177 59.0422C199.443 57.0451 197.523 55.7735 195.577 55.0566C193.375 54.2687 191.018 54.0126 188.698 54.3093C186.378 54.6059 184.162 55.4469 182.229 56.7635C179.062 58.9227 178.849 64.4105 182.365 66.655Z" fill="#3E4957"/>
<path d="M189.73 207.595C188.927 207.567 188.128 207.452 187.349 207.253C187.034 207.188 186.728 207.088 186.436 206.955C185.745 206.588 185.233 205.82 184.456 205.717C184.123 205.691 183.789 205.735 183.474 205.845L181.853 206.272C181.074 206.45 180.318 206.717 179.6 207.066C178.851 207.421 178.248 208.024 177.893 208.773C177.765 209.063 177.56 210.428 177.773 210.65C177.939 210.792 178.153 210.866 178.371 210.855C183.162 211.108 187.965 211.02 192.743 210.59C193.008 210.593 193.269 210.529 193.502 210.403C193.869 210.172 194.134 208.696 194.202 208.295C194.382 207.194 194.143 206.076 192.922 206.75C191.95 207.304 190.85 207.595 189.73 207.595Z" fill="#B4E8FF"/>
<path d="M215.233 201.219C214.8 202.695 213.868 203.974 212.595 204.838C212.314 205.073 211.98 205.236 211.621 205.311C211.263 205.387 210.891 205.374 210.539 205.273C210.343 205.165 210.14 205.068 209.933 204.983C209.687 204.945 209.435 204.97 209.202 205.057C208.969 205.143 208.762 205.288 208.601 205.478C208.251 205.837 207.987 206.272 207.611 206.596C206.909 207.06 206.145 207.422 205.341 207.672C204.582 208.03 203.839 208.773 203.984 209.617C204.163 210.71 205.537 211 206.613 211C208.902 210.99 211.186 210.788 213.44 210.394C213.8 210.361 214.142 210.221 214.422 209.993C214.678 209.644 214.832 209.23 214.866 208.798C215.052 207.667 215.516 206.6 216.214 205.692C217.324 204.292 219.15 203.199 219.193 201.424C219.193 200.272 218.075 198.377 216.94 198.01C215.804 197.643 215.489 200.212 215.233 201.219Z" fill="#B4E8FF"/>
<path d="M249.119 36.8437L249.12 36.8478C249.139 38.0613 248.92 39.2668 248.474 40.3955C248.028 41.5242 247.363 42.5539 246.519 43.4259C245.675 44.2979 244.667 44.995 243.554 45.4775C242.441 45.9597 241.243 46.218 240.031 46.2378H219.277H219.145L219.071 46.3457L210.139 59.2813V46.4878V46.2378H209.889H192.19C190.975 46.2235 189.776 45.9703 188.66 45.4926C187.543 45.0147 186.531 44.3215 185.682 43.4526C184.833 42.5837 184.164 41.5561 183.712 40.4285C183.261 39.3009 183.036 38.0954 183.05 36.8808H183.05V36.8778V9.64405H183.05L183.05 9.64022C183.031 8.42283 183.253 7.21373 183.703 6.08229C184.152 4.95084 184.821 3.91932 185.67 3.04689C186.52 2.17446 187.533 1.4783 188.652 0.998336C189.77 0.518563 190.972 0.264261 192.189 0.25H239.98C241.193 0.263195 242.392 0.515113 243.507 0.991388C244.624 1.46784 245.635 2.15947 246.484 3.0268C247.333 3.89413 248.002 4.92016 248.454 6.0463C248.907 7.17245 249.133 8.37665 249.12 9.59014V9.59285V9.64405L249.119 36.8437Z" fill="white" stroke="#B4E8FF" stroke-width="0.5"/>
<path d="M213.303 40.8719L213.474 36.5108C211.211 36.3993 209.028 35.641 207.184 34.3259L208.285 31.4925C210.003 32.7458 212.049 33.4723 214.173 33.5834C217.143 33.6944 219.192 32.0301 219.294 29.5807C219.397 27.1313 217.818 25.6975 214.796 24.2637C210.614 22.3775 208.071 20.2951 208.216 16.5826C208.353 13.0237 210.905 10.4206 214.762 9.93415L214.924 5.56445L217.485 5.66687L217.323 9.8232C219.22 9.92522 221.06 10.513 222.665 11.5301L221.539 14.3721C220.005 13.3248 218.206 12.7331 216.35 12.6652C213.149 12.5372 211.869 14.466 211.809 16.1729C211.724 18.4004 213.218 19.5867 216.751 21.2937C221.018 23.2651 223.041 25.5609 222.896 29.41C222.768 32.8238 220.335 35.8878 216.068 36.4425L215.889 40.9061L213.303 40.8719Z" fill="#B4E8FF"/>
<defs>
<linearGradient id="paint0_linear_1_1461" x1="161.089" y1="92.071" x2="191.267" y2="100.128" gradientUnits="userSpaceOnUse">
<stop offset="0.01"/>
<stop offset="0.13" stop-opacity="0.69"/>
<stop offset="0.25" stop-opacity="0.32"/>
<stop offset="1" stop-opacity="0"/>
</linearGradient>
</defs>
</svg>
